<svg version="1.1" xmlns="http://www.w3.org/2000/svg" xmlns:xlink="http://www.w3.org/1999/xlink" width="438.15997" height="122.74685" viewBox="0,0,438.15997,122.74685"><g transform="translate(-26.45177,-259.62726)"><g data-paper-data="{&quot;isPaintingLayer&quot;:true}" fill="#e9e9e9" fill-rule="nonzero" stroke="#674c3f" stroke-width="0" stroke-linecap="butt" stroke-linejoin="miter" stroke-miterlimit="10" stroke-dasharray="" stroke-dashoffset="0" style="mix-blend-mode: normal"><g><path d="M31.33505,374.47441c-0.66726,-0.733 -0.68246,-66.48233 0,-68.40377c0.45007,-1.26712 62.11374,-0.77877 62.89489,0c0.1284,0.12801 0.25299,67.87015 0,68.40377c-1.11176,2.34498 -62.53437,0.39605 -62.89489,0z" data-paper-data="{&quot;index&quot;:null}"/><path d="M27.54343,302.09254c5.42776,-10.86555 23.62133,-39.35712 33.86944,-39.37321c9.74198,-0.01532 24.92705,24.57052 35.78712,39.31358c0.07315,0.0993 3.77202,5.30182 -0.14064,5.66225c-7.10652,0.65464 -21.94278,-0.02465 -33.56541,-0.02465c-8.66433,0 -27.1247,0.90994 -34.90522,-0.39753c-3.04526,-0.51175 -2.08963,-2.99215 -1.59933,-4.03831c0.16613,-0.35447 0.35117,-0.73599 0.55405,-1.14211z" data-paper-data="{&quot;index&quot;:null}"/></g><g><path d="M184.01518,381.50464c-0.96685,1.79489 -54.38398,0.30315 -54.69751,0c-0.58028,-0.56106 -0.5935,-68.94598 0,-70.41668c0.19624,-0.48629 11.87153,-31.65752 25.4497,-31.60959c13.50311,0.04768 28.90909,32.68048 29.24782,32.9777c0.11166,0.09798 0.22001,68.64014 0,69.04859z" data-paper-data="{&quot;index&quot;:null}"/><path d="M129.62506,314.67868c-1.35722,1.39209 -6.05169,1.98678 -8.52097,0.58728c-2.32817,-1.31953 -2.47945,-4.59409 -2.3721,-4.79119c5.91796,-10.86555 25.75461,-39.35712 36.92829,-39.37321c10.62181,-0.01532 27.17829,24.57051 39.01915,39.31358c0.03989,0.04967 -0.1306,3.53842 -2.35688,5.41879c-2.22485,1.87917 -6.50515,2.15026 -7.5297,1.24266c-9.2918,-8.23115 -22.77686,-31.56117 -28.84195,-31.65361c-4.6425,-0.07076 -17.39514,20.0955 -26.32583,29.25571z" data-paper-data="{&quot;index&quot;:null}"/></g><g><path d="M212.10496,376.4413c-0.22002,-0.40845 -0.11167,-68.95059 0,-69.04859c0.33872,-0.29722 15.74471,-32.93001 29.24781,-32.9777c13.57815,-0.04795 25.25345,31.1233 25.4497,31.60959c0.5935,1.47072 0.58028,69.85563 0,70.41668c-0.31353,0.30315 -53.73066,1.79489 -54.69751,0z"/><path d="M266.49509,309.61534c-8.93069,-9.16021 -21.68334,-29.32647 -26.32583,-29.25571c-6.06508,0.09245 -19.55015,23.42246 -28.84194,31.65361c-1.02455,0.90759 -5.30485,0.6365 -7.5297,-1.24266c-2.22627,-1.88037 -2.39677,-5.36912 -2.35687,-5.41879c11.84086,-14.74308 28.39732,-39.3289 39.01915,-39.31358c11.17366,0.01611 31.01032,28.50766 36.92827,39.37321c0.10735,0.19709 -0.04393,3.47166 -2.3721,4.79119c-2.46928,1.39949 -7.16376,0.80482 -8.52097,-0.58727z"/></g><g><path d="M308.97551,371.38237c-0.25299,-0.53362 -0.1284,-68.27574 0,-68.40376c0.78114,-0.77877 62.44483,-1.26712 62.89489,0c0.68246,1.92144 0.66726,67.67075 0,68.40376c-0.36052,0.39605 -61.78314,2.34498 -62.89489,0z"/><path d="M376.21607,300.14261c0.49029,1.04616 1.44591,3.52656 -1.59935,4.03831c-7.78051,1.30747 -26.24088,0.39753 -34.90522,0.39753c-11.62263,0 -26.45889,0.67929 -33.56541,0.02465c-3.91267,-0.36042 -0.21379,-5.56294 -0.14064,-5.66225c10.86005,-14.74308 26.04512,-39.3289 35.78712,-39.31358c10.24812,0.01611 28.44168,28.50766 33.86944,39.37321c0.20288,0.40614 0.38792,0.78764 0.55405,1.14211z"/></g><g><path d="M397.09429,378.10308c-0.66726,-0.733 -0.68246,-66.48233 0,-68.40377c0.45007,-1.26712 62.11374,-0.77877 62.89489,0c0.1284,0.12801 0.25299,67.87015 0,68.40377c-1.11176,2.34498 -62.53438,0.39605 -62.89489,0z" data-paper-data="{&quot;index&quot;:null}"/><path d="M393.30266,305.7212c5.42776,-10.86555 23.62133,-39.35712 33.86944,-39.37321c9.74199,-0.01532 24.92705,24.57052 35.78712,39.31358c0.07315,0.0993 3.77202,5.30182 -0.14064,5.66225c-7.10653,0.65464 -21.94278,-0.02465 -33.56541,-0.02465c-8.66433,0 -27.1247,0.90994 -34.90521,-0.39753c-3.04526,-0.51175 -2.08963,-2.99215 -1.59933,-4.03831c0.16613,-0.35447 0.35117,-0.73599 0.55405,-1.14211z" data-paper-data="{&quot;index&quot;:null}"/></g></g></g></svg>