<svg version="1.1" xmlns="http://www.w3.org/2000/svg" xmlns:xlink="http://www.w3.org/1999/xlink" width="384" height="343" viewBox="0,0,384,343"><g transform="translate(-48,-8.5)"><g data-paper-data="{&quot;isPaintingLayer&quot;:true}" fill-rule="nonzero" stroke-linejoin="miter" stroke-miterlimit="10" stroke-dasharray="" stroke-dashoffset="0" style="mix-blend-mode: normal"><path d="M348.73963,179.40265c1.22781,18.17361 0.9619,17.99693 -51.85467,18.13361c-53.33519,0.13802 -52.14968,-2.30541 -51.85467,-18.13361c0.31051,-16.65929 -3.99061,-18.30174 51.85467,-18.13361c56.33694,0.16961 50.71003,1.19101 51.85467,18.13361z" data-paper-data="{&quot;index&quot;:null}" fill="#ffffc6" stroke="#ffb5d8" stroke-width="4.5" stroke-linecap="butt"/><path d="M48,351.5v-343h384v343z" data-paper-data="{&quot;index&quot;:null}" fill="none" stroke="#ffb5d8" stroke-width="0" stroke-linecap="butt"/><g fill="none" stroke="#674c3f" stroke-width="4"><path d="M276.52971,169.48406c0,0 -6.6764,-1.98829 -7.98342,0.97156c-0.6764,1.53177 -0.89883,2.84756 -0.46539,4.01432c0.95021,2.55776 4.13304,4.39927 6.10246,6.22964c1.67243,1.55435 2.48459,3.10068 1.20104,5.07079c-1.4862,1.78843 -3.39291,2.3694 -5.12977,1.85826c-2.52105,-0.74191 -4.68424,-3.24991 -4.68424,-3.24991" stroke-linecap="round"/><path d="M284.64063,187.55925c0,0 -0.27573,-3.66898 -0.3456,-6.37992c-0.03402,-1.32016 -0.06242,-3.64733 -0.08441,-5.80434c-0.03443,-3.37659 -0.05315,-6.56382 -0.05315,-6.56382" stroke-linecap="round"/><path d="M286.21709,178.58354c0,0 4.12943,-2.45587 7.14521,1.08871c0.48177,0.56624 0.59479,1.55163 0.73893,2.63209c0.30884,2.31504 0.19706,5.06652 0.19706,5.06652" stroke-linecap="round"/><path d="M300.7711,182.08932c0,-1.51791 0.64336,-2.62596 1.67227,-3.58553c0.93901,-0.87574 2.19915,-1.67118 3.58444,-1.67118c1.23864,0 2.37722,0.5582 3.27565,1.27492c1.20737,0.96317 1.98106,2.31723 1.98106,3.98179c0,1.34272 -0.24383,2.95724 -1.07223,3.88635c-0.96274,1.07979 -2.624,1.37035 -4.18448,1.37035c-1.59393,0 -2.89237,-0.83921 -3.8564,-1.95953c-0.79186,-0.92024 -1.40031,-1.98791 -1.40031,-3.29718z" stroke-linecap="butt"/><g stroke-linecap="round"><path d="M318.12167,192.67487c-0.03919,-1.91127 0.0409,-6.46209 0.0936,-8.55967c0.0078,-0.31046 0.1621,-6.20782 0.1621,-6.20782"/><path d="M318.58236,177.94098c0,0 3.74081,-0.93005 6.32233,0.30365c1.52278,0.72773 2.69511,2.7639 2.57367,5.46411c-0.13925,3.0962 -1.57288,3.5859 -3.11389,4.13231c-2.53877,0.9002 -5.62973,0.38982 -5.62973,0.38982"/></g></g></g></g></svg>