<svg version="1.1" xmlns="http://www.w3.org/2000/svg" xmlns:xlink="http://www.w3.org/1999/xlink" width="193.69369" height="172.67267" viewBox="0,0,193.69369,172.67267"><g transform="translate(-143.15315,-93.66366)"><g data-paper-data="{&quot;isPaintingLayer&quot;:true}" fill-rule="nonzero" stroke-linejoin="miter" stroke-miterlimit="10" stroke-dasharray="" stroke-dashoffset="0" style="mix-blend-mode: normal"><path d="M267.99569,188.5992c0.23367,5.5651 0.20631,10.0641 0.27324,13.55212c0.08116,4.22959 0.11279,6.97264 -1.49797,8.32746c-1.59421,1.3409 -4.97941,0.91401 -10.18297,0.98159c-4.00046,0.05196 -9.31206,0.32334 -16.31075,0.31508c-11.58229,-0.01368 -18.67256,0.13482 -22.89875,0.09493c-2.76003,-0.02605 -4.29849,0.21167 -5.06884,-0.91877c-0.80338,-1.17891 -0.58656,-3.94745 -0.56911,-7.19501c0.01725,-3.20977 0.03047,-7.4736 0.03456,-12.87778c0.00623,-8.24009 0.29305,-13.87439 0.58477,-17.52372c0.20612,-2.57843 -0.18596,-4.16594 1.2909,-4.98152c1.03214,-0.56999 2.59993,-0.19849 4.75048,-0.2543c4.48476,-0.11639 11.50382,-0.08174 21.48416,-0.22675c9.36951,-0.13613 15.80767,0.05768 20.0985,0.14753c3.59345,0.07525 5.68085,-0.10159 6.72271,1.11947c1.03266,1.21026 1.03705,3.36711 1.04325,6.59697c0.00612,3.19212 0.01866,7.43233 0.24583,12.84269z" fill="#b4e8ff" stroke="#674c3f" stroke-width="4" stroke-linecap="butt"/><path d="M213.50453,195.36965l0.075,-6.97115l19.80192,-0.8l1.55385,-19.12308l8.38106,0.45427l1.26509,18.6688l21.80577,0.61346l0.04615,6.84038l-22.05193,0.34616c0,0 -0.54237,13.92308 -1.8,13.92308c-0.56882,0 -6.031,0.65111 -6.53841,-0.39536c-1.96419,-4.05096 -1.46159,-13.52771 -1.46159,-13.52771z" fill="#e7bbf3" stroke="#000000" stroke-width="0" stroke-linecap="butt"/><path d="M212.18145,196.95683c0,0 8.88466,-0.21024 15.59999,-0.19494c0.47864,0.00109 6.28712,-0.16169 7.05741,0.24295c0.99651,0.52346 0.79262,3.23491 0.91697,5.97133c0.17158,3.77614 0.02563,7.78066 0.02563,7.78066" fill="none" stroke="#674c3f" stroke-width="4" stroke-linecap="round"/><path d="M243.23935,210.55683c0,0 -0.14595,-4.00453 0.02563,-7.78066c0.12435,-2.73642 -0.07954,-5.44787 0.91697,-5.97134c0.77029,-0.40464 6.57877,-0.24186 7.05741,-0.24295c6.71533,-0.0153 15.59999,0.19494 15.59999,0.19494" data-paper-data="{&quot;index&quot;:null}" fill="none" stroke="#674c3f" stroke-width="4" stroke-linecap="round"/><path d="M267.23935,188.33044c0,0 -8.88466,0.01024 -15.59999,-0.00505c-0.47864,-0.00109 -6.28712,0.36169 -7.05741,-0.04295c-0.99651,-0.52346 -0.59262,-3.23492 -0.71697,-5.97134c-0.17158,-3.77614 -0.22563,-13.58066 -0.22563,-13.58066" data-paper-data="{&quot;index&quot;:null}" fill="none" stroke="#674c3f" stroke-width="4" stroke-linecap="round"/><path d="M234.68935,169.05544c0,0 -0.05405,9.80452 -0.22563,13.58066c-0.12435,2.73642 0.27954,5.44787 -0.71697,5.97133c-0.77029,0.40464 -6.57877,0.04186 -7.05741,0.04295c-6.71533,0.0153 -13.59999,0.00505 -13.59999,0.00505" data-paper-data="{&quot;index&quot;:null}" fill="none" stroke="#674c3f" stroke-width="4" stroke-linecap="round"/><path d="M250.10897,160.35817c-0.94131,0.74021 7.93232,-6.48542 11.20101,-0.23431c1.75333,3.3531 -0.77753,5.71229 -5.84791,6.83783c-5.24786,1.16494 -13.10218,1.03682 -14.88062,1.03682c-2.92679,0 -6.8866,-0.04246 -10.61834,0.05161c-2.68455,0.06766 -5.25108,0.16078 -7.23007,-0.24809c-4.19866,-0.86747 -5.37106,-3.3681 -5.15159,-5.30353c0.8,-7.05506 10.54701,0.49733 11.43163,0.02047c0.47562,-0.61469 -8.72632,-8.63028 -4.35081,-12.8434c0.93516,-0.90045 4.73664,-0.70429 7.38838,3.72116c1.09103,1.82081 2.652,4.19141 2.69176,7.75787c0.00782,0.70169 1.24165,-9.19715 3.70452,-9.14117c0.58306,0.01325 2.44083,0.3945 2.83153,1.24932c1.13546,2.48428 0.30443,7.47905 1.73603,7.35657c0.90444,-0.07738 0.11901,-14.18357 8.91891,-12.32838c2.31695,0.48845 5.82249,6.05397 -1.82442,12.06722z" fill="#e7bbf3" stroke="#674c3f" stroke-width="4" stroke-linecap="butt"/><path d="M143.15316,266.33634v-172.67267h193.69369v172.67267z" fill="none" stroke="none" stroke-width="none" stroke-linecap="butt"/></g></g></svg>