<svg version="1.1" xmlns="http://www.w3.org/2000/svg" xmlns:xlink="http://www.w3.org/1999/xlink" width="384" height="343" viewBox="0,0,384,343"><g transform="translate(-48,-8.5)"><g data-paper-data="{&quot;isPaintingLayer&quot;:true}" fill-rule="nonzero" stroke-linejoin="miter" stroke-miterlimit="10" stroke-dasharray="" stroke-dashoffset="0" style="mix-blend-mode: normal"><path d="M48,351.5v-343h384v343z" data-paper-data="{&quot;index&quot;:null}" fill="none" stroke="#ffb5d8" stroke-width="0" stroke-linecap="butt"/><path d="M232.73963,180.00265c1.22781,18.17361 0.9619,17.99693 -51.85467,18.13361c-53.33519,0.13802 -52.14968,-2.30541 -51.85467,-18.13361c0.31051,-16.65929 -3.99061,-18.30174 51.85467,-18.13361c56.33694,0.16961 50.71003,1.19101 51.85467,18.13361z" fill="#ffffc6" stroke="#ffb5d8" stroke-width="4.5" stroke-linecap="butt"/><g data-paper-data="{&quot;index&quot;:null}" fill="none" stroke="#674c3f" stroke-width="3.5" stroke-linecap="round"><path d="M189.55139,186.34123c0,0 -2.72791,0.92788 -4.81222,1.00896c-2.43065,0.09456 -4.25075,-1.94901 -3.91741,-1.81314c0.34285,0.13975 -3.28317,-3.23859 2.115,-6.44717c0.98195,-0.58366 1.93326,-0.66139 3.55768,-1.27334c1.42533,-0.53694 3.18126,1.16311 3.4592,3.35028c0.37348,2.93902 -0.29472,6.97712 -0.29472,6.97712"/><g><path d="M144.99703,188.43453c0,0 0.98071,-2.28013 1.6808,-4.27671c0.44275,-1.26266 0.98656,-3.55785 1.78214,-5.91917c1.29922,-3.85615 2.87839,-7.88865 2.87839,-7.88865"/><path d="M156.74022,188.43453c0,0 -0.88149,-3.97634 -1.56369,-6.40627c-0.55,-1.95907 -1.91966,-5.689 -2.71968,-8.29566c-0.50978,-1.661 -0.41391,-2.8659 -0.41391,-2.8659"/><path d="M147.81539,183.26752l6.57619,1.5501"/></g><g><path d="M165.39105,187.82908c0,0 -1.70616,-2.67658 -2.39135,-4.15986c-0.78789,-1.70559 -2.07106,-5.5002 -2.07106,-5.5002"/><path d="M165.62591,187.38998c0,0 0.42328,-2.23716 0.80373,-3.5304c0.46401,-1.57728 1.77977,-5.25147 1.77977,-5.25147"/><path d="M168.20942,178.60811c0,0 0.66222,1.29064 0.97851,2.24586c0.5574,1.68339 2.07472,6.97511 2.07472,6.97511"/><path d="M175.02048,178.60812c0,0 -0.37884,2.32679 -0.88272,3.70845c-0.63834,1.75034 -2.64024,5.9516 -2.64024,5.9516"/></g><path d="M197.28686,187.72297l-0.4339,-10.84762"/><path d="M197.50382,179.87591c0,0 2.2801,-0.4339 3.47124,-0.4339c1.2634,0 3.68819,1.01244 3.68819,1.01244"/><path d="M218.564,184.49426c-0.438,0.53816 -0.11969,2.51397 -1.02343,3.52116c-1.19057,1.32684 -3.6383,1.66358 -4.14799,1.68341c-2.43065,0.09456 -4.25075,-1.94901 -3.91741,-1.81314c0.34285,0.13975 -3.28317,-3.23859 2.115,-6.44717c0.98195,-0.58366 1.93326,-0.66139 3.55768,-1.27334c1.42533,-0.53694 3.18126,1.16311 3.4592,3.35028c0.37348,2.93902 0.40987,-12.04686 0.40987,-12.04686"/></g></g></g></svg>