<svg version="1.1" xmlns="http://www.w3.org/2000/svg" xmlns:xlink="http://www.w3.org/1999/xlink" width="83.51292" height="50.00442" viewBox="0,0,83.51292,50.00442"><g transform="translate(-198.24354,-154.97655)"><g data-paper-data="{&quot;isPaintingLayer&quot;:true}" fill-rule="nonzero" stroke-linejoin="miter" stroke-miterlimit="10" stroke-dasharray="" stroke-dashoffset="0" style="mix-blend-mode: normal"><path d="M270.92847,157.09275c5.38182,0.09346 9.19335,12.22254 9.07533,23.79879c-0.0113,1.10797 -0.04852,2.21424 -0.11184,3.3084c-0.57994,10.02346 -3.34824,19.03104 -8.41422,19.03104c-3.88058,0 -8.01693,-0.17571 -12.25092,0.00615c-3.9908,0.17142 -8.06834,0.51828 -12.10021,0.50771c-5.57675,-0.01462 -11.0661,-0.34028 -16.11765,-0.50676c-7.2105,-0.23763 -13.52899,-0.15779 -17.93638,-0.19019c-3.52492,-0.02591 -7.29152,-1.13876 -9.36239,-4.82659c-5.65566,-10.0717 -5.08777,-30.97788 3.30053,-38.76988c2.0896,-1.94106 4.83623,-2.72486 7.89274,-2.72486c4.71042,0 9.81909,-0.51813 15.0107,-0.46823c9.52145,0.09151 19.50501,0.24264 27.63969,0.53792c6.0919,0.22113 13.37461,0.2965 13.37461,0.2965z" fill="#af8366" stroke="#674c3f" stroke-width="3.5" stroke-linecap="butt"/><path d="M224.05787,179.88724c0,9.70098 0.23584,18.55865 -4.34507,21.25697c-1.02954,0.60643 -5.69143,0.31745 -6.82331,0.31745c-2.4329,0 -5.48414,-0.70801 -7.31848,-3.26352c-2.81626,-3.92346 -4.09606,-11.116 -4.09606,-18.3109c0,-11.88123 5.18487,-21.45133 11.353,-21.45133c6.16813,0 11.22992,9.5701 11.22992,21.45133z" fill="#ffffc7" stroke="none" stroke-width="0" stroke-linecap="butt"/><path d="M213.8034,156.90507c0,0 10.01453,1.02939 10.43757,23.43989c0.2579,13.66279 -6.09646,22.64423 -6.42372,22.54324c-0.04662,-0.01438 1.03019,-2.27113 0.86404,-2.44479c-0.26779,-0.27987 -5.63653,-0.32417 -7.72729,-2.62692c-1.75608,-1.93414 -5.41102,-9.46005 -4.89572,-13.45093c0.25592,-1.98201 0.38876,-17.76868 6.26677,-18.08455c0.3393,-0.01824 3.44068,0.85986 4.55838,5.51098c0.85169,3.54415 0.85306,9.02744 -0.13063,12.76886c-0.40774,1.55081 -0.22442,2.84779 -1.80319,3.49248c-2.34072,0.95583 -2.66691,-0.58936 -3.19097,-2.8992c-0.64131,-2.82656 -0.15076,-7.18932 -0.15076,-7.18932" fill="none" stroke="#674c3f" stroke-width="3.5" stroke-linecap="round"/><path d="M230.3165,174.40959c0,0 3.24121,-0.24653 7.14569,-0.6856c3.28557,-0.36946 7.0408,-0.92869 9.72963,-1.06114c6.45235,-0.31785 20.29159,-0.08414 20.29159,-0.08414" fill="none" stroke="#674c3f" stroke-width="2.5" stroke-linecap="round"/><path d="M223.90841,168.36767l19.77354,-0.54927" fill="none" stroke="#674c3f" stroke-width="2.5" stroke-linecap="round"/><path d="M227.57018,161.41032c0,0 -1.74057,0.22603 -2.56681,0.25185c-1.0653,0.03329 -3.29201,-0.06877 -3.29201,-0.06877" fill="none" stroke="#674c3f" stroke-width="2.5" stroke-linecap="round"/><path d="M266.93415,162.32575c0,0 2.53409,-0.18309 3.84485,-0.18309c1.37176,0 4.21103,0.18309 4.21103,0.18309" fill="none" stroke="#674c3f" stroke-width="2.5" stroke-linecap="round"/><path d="M276.08857,167.26914c0,0 -1.25853,0.11317 -1.83539,0.08113c-0.51453,-0.02859 -1.4602,-0.26421 -1.4602,-0.26421" fill="none" stroke="#674c3f" stroke-width="2.5" stroke-linecap="round"/><path d="M233.6121,182.28238c0,0 -3.20528,0.18309 -4.7603,0.18309c-1.49401,0 -4.39412,-0.18309 -4.39412,-0.18309" fill="none" stroke="#674c3f" stroke-width="2.5" stroke-linecap="round"/><path d="M278.83489,179.53605c0,0 -4.29889,0.22364 -6.95156,0.24867c-3.55082,0.0335 -12.4558,-0.06557 -12.4558,-0.06557" fill="none" stroke="#674c3f" stroke-width="2.5" stroke-linecap="round"/><path d="M223.17606,191.25371c0,0 10.95037,-0.63699 16.66276,-0.87377c6.04721,-0.25066 18.67328,-0.59093 18.67328,-0.59093" fill="none" stroke="#674c3f" stroke-width="2.5" stroke-linecap="round"/><path d="M277.37019,190.52135c0,0 -1.65521,0.18309 -2.56323,0.18309c-1.0296,0 -3.29559,-0.18309 -3.29559,-0.18309" fill="none" stroke="#674c3f" stroke-width="2.5" stroke-linecap="round"/><path d="M265.10328,195.64783c0,0 -6.21552,0.56155 -10.24456,0.67193c-2.10721,0.05773 -5.58052,0.07619 -8.79705,0.07882c-4.04797,0.00332 -7.68927,-0.0184 -7.68927,-0.0184" fill="none" stroke="#674c3f" stroke-width="2.5" stroke-linecap="round"/><path d="M276.27166,198.39415c0,0 -1.82266,0.24594 -2.71784,0.27681c-0.87417,0.03014 -2.59172,-0.09372 -2.59172,-0.09372" fill="none" stroke="#674c3f" stroke-width="2.5" stroke-linecap="round"/><path d="M236.72459,182.37392c0,-0.55614 0.45084,-1.00699 1.00698,-1.00699c0.55614,0 1.00699,0.45085 1.00699,1.00699c0,0.55614 -0.45085,1.00699 -1.00699,1.00699c-0.55614,0 -1.00698,-0.45085 -1.00698,-1.00699z" fill="#674c3f" stroke="none" stroke-width="0" stroke-linecap="butt"/><path d="M229.76723,161.86804c0,-0.55614 0.45084,-1.00699 1.00698,-1.00699c0.55614,0 1.00698,0.45085 1.00698,1.00699c0,0.55614 -0.45084,1.00699 -1.00698,1.00699c-0.55614,0 -1.00698,-0.45085 -1.00698,-1.00699z" fill="#674c3f" stroke="none" stroke-width="0" stroke-linecap="butt"/></g></g></svg>