<svg version="1.1" xmlns="http://www.w3.org/2000/svg" xmlns:xlink="http://www.w3.org/1999/xlink" width="384" height="343" viewBox="0,0,384,343"><g transform="translate(-48,-8.5)"><g data-paper-data="{&quot;isPaintingLayer&quot;:true}" fill-rule="nonzero" stroke-linejoin="miter" stroke-miterlimit="10" stroke-dasharray="" stroke-dashoffset="0" style="mix-blend-mode: normal"><path d="M48,351.5v-343h384v343z" data-paper-data="{&quot;index&quot;:null}" fill="none" stroke="#ffb5d8" stroke-width="0" stroke-linecap="butt"/><path d="M292.98319,185.23082c0,0 -1.481,0.59391 -3.04855,0.51498c-1.50641,-0.07585 -3.09277,-0.80784 -3.52149,-1.60431c-0.75959,-1.41114 -0.7291,-4.33951 0.02013,-5.82287c0.2895,-0.57317 0.46972,-1.56573 1.39283,-2.20093c0.86751,-0.59695 2.46191,-0.86058 3.27238,-0.70075c1.17995,0.2327 2.12729,1.65436 2.40931,2.13458c0.8633,1.46999 -3.00392,3.78231 -3.32883,3.91818c-0.33065,0.13827 -0.78065,0.23358 -1.26572,0.29892c-1.38301,0.18629 -3.05115,0.12893 -3.05115,0.12893" fill="none" stroke="#674c3f" stroke-width="4" stroke-linecap="round"/><path d="M253.22507,183.92894c0,0 -1.07747,1.88195 -2.92964,1.75707c-4.62236,-0.31166 -4.48229,-3.14827 -4.45838,-3.57781c0.21815,-3.919 3.09511,-5.13469 4.96732,-4.82267c1.41954,0.23658 1.98124,1.6628 1.98124,1.6628" fill="none" stroke="#674c3f" stroke-width="4" stroke-linecap="round"/><path d="M258.92363,181.01221c0,-1.21878 0.51658,-2.10848 1.34272,-2.87895c0.75397,-0.70316 1.76577,-1.34185 2.87807,-1.34185c0.99455,0 1.90875,0.4482 2.63014,1.02368c0.96944,0.77336 1.59066,1.86059 1.59066,3.19712c0,1.07812 -0.19578,2.37447 -0.86093,3.12049c-0.77302,0.867 -2.1069,1.1003 -3.35987,1.1003c-1.27983,0 -2.32239,-0.67383 -3.09644,-1.57337c-0.63581,-0.73889 -1.12436,-1.59617 -1.12436,-2.64742z" fill="none" stroke="#674c3f" stroke-width="4" stroke-linecap="butt"/><g fill="none" stroke="#674c3f" stroke-width="4" stroke-linecap="round"><path d="M273.86958,175.29597l0.38795,9.69876"/><path d="M274.45153,177.97875c0,0 2.03861,-0.38795 3.1036,-0.38795c1.12959,0 3.29758,0.90522 3.29758,0.90522"/></g><path d="M241.49078,175.37587c0,0 -3.7839,-1.12688 -4.52467,0.55064c-0.38336,0.86814 -0.50942,1.61388 -0.26376,2.27515c0.53854,1.44964 2.34243,2.49333 3.45862,3.5307c0.94786,0.88094 1.40816,1.75733 0.6807,2.87391c-0.84231,1.0136 -1.92296,1.34287 -2.90734,1.05318c-1.42882,-0.42049 -2.65483,-1.84192 -2.65483,-1.84192" fill="none" stroke="#674c3f" stroke-width="4" stroke-linecap="round"/><path d="M186.75479,185.5617c0,0 -0.2214,-2.94595 -0.2775,-5.12267c-0.02732,-1.06001 -0.05012,-2.92857 -0.06778,-4.66051c-0.02764,-2.71119 -0.04267,-5.27033 -0.04267,-5.27033" fill="none" stroke="#674c3f" stroke-width="4" stroke-linecap="round"/><path d="M186.76061,178.77477c0,0 5.62556,-2.81186 8.04703,0.03421" fill="none" stroke="#674c3f" stroke-width="4" stroke-linecap="round"/><g fill="none" stroke="#674c3f" stroke-width="4" stroke-linecap="round"><path d="M215.66725,177.18355c0,0 1.62526,10.46186 -0.29839,12.69916c-1.56527,1.82048 -6.03191,0.77376 -7.49541,0.64588"/><path d="M215.37633,184.95772c0,0 -2.30629,0.83256 -4.37305,0.09972c-1.25451,-0.44482 -2.20578,-0.63057 -2.31913,-3.15112c-0.09886,-2.19818 0.6426,-3.64289 1.88227,-4.23532c2.10156,-1.00433 4.93397,-0.4601 4.93397,-0.4601"/></g><path d="M195.25938,185.5617c0,0 -0.2214,-2.94595 -0.2775,-5.12267c-0.02732,-1.06001 -0.05012,-2.92857 -0.06778,-4.66051c-0.02764,-2.71119 -0.04267,-5.27033 -0.04267,-5.27033" fill="none" stroke="#674c3f" stroke-width="4" stroke-linecap="round"/><g stroke-width="4"><path d="M202.00479,178.56122l-0.38795,7.95298" fill="none" stroke="#674c3f" stroke-linecap="round"/><path d="M198.90114,172.451c0,-1.87476 1.5198,-3.39457 3.39457,-3.39457c1.87476,0 3.39457,1.5198 3.39457,3.39457c0,1.87476 -1.5198,3.39457 -3.39457,3.39457c-1.87476,0 -3.39457,-1.5198 -3.39457,-3.39457z" fill="#674c3f" stroke="none" stroke-linecap="butt"/></g><path d="M221.7181,185.5617c0,0 -0.2214,-2.94595 -0.2775,-5.12267c-0.02732,-1.06001 -0.05012,-2.92857 -0.06778,-4.66051c-0.02764,-2.71119 -0.04267,-5.27033 -0.04267,-5.27033" fill="none" stroke="#674c3f" stroke-width="4" stroke-linecap="round"/><path d="M222.98386,178.35479c0,0 3.31567,-1.97191 5.73715,0.87416c0.38683,0.45466 0.47758,1.24586 0.59331,2.1134c0.24798,1.85883 0.15823,4.06809 0.15823,4.06809" fill="none" stroke="#674c3f" stroke-width="4" stroke-linecap="round"/></g></g></svg>