<svg version="1.1" xmlns="http://www.w3.org/2000/svg" xmlns:xlink="http://www.w3.org/1999/xlink" width="155.94406" height="159.39156" viewBox="0,0,155.94406,159.39156"><defs><radialGradient cx="268.21441" cy="225.57504" r="3.05548" gradientUnits="userSpaceOnUse" id="color-1"><stop offset="0" stop-color="#ffffff"/><stop offset="1" stop-color="#ffffff" stop-opacity="0"/></radialGradient><radialGradient cx="277.611" cy="228.3208" r="3.05548" gradientUnits="userSpaceOnUse" id="color-2"><stop offset="0" stop-color="#ffffff"/><stop offset="1" stop-color="#ffffff" stop-opacity="0"/></radialGradient><radialGradient cx="290.48554" cy="228.19877" r="3.05547" gradientUnits="userSpaceOnUse" id="color-3"><stop offset="0" stop-color="#ffffff"/><stop offset="1" stop-color="#ffffff" stop-opacity="0"/></radialGradient><radialGradient cx="302.50573" cy="228.3208" r="3.05548" gradientUnits="userSpaceOnUse" id="color-4"><stop offset="0" stop-color="#ffffff"/><stop offset="1" stop-color="#ffffff" stop-opacity="0"/></radialGradient><radialGradient cx="314.09904" cy="228.19877" r="3.05547" gradientUnits="userSpaceOnUse" id="color-5"><stop offset="0" stop-color="#ffffff"/><stop offset="1" stop-color="#ffffff" stop-opacity="0"/></radialGradient><radialGradient cx="267.84831" cy="218.13099" r="3.05547" gradientUnits="userSpaceOnUse" id="color-6"><stop offset="0" stop-color="#ffffff"/><stop offset="1" stop-color="#ffffff" stop-opacity="0"/></radialGradient><radialGradient cx="268.03125" cy="211.23609" r="3.05548" gradientUnits="userSpaceOnUse" id="color-7"><stop offset="0" stop-color="#ffffff"/><stop offset="1" stop-color="#ffffff" stop-opacity="0"/></radialGradient><radialGradient cx="277.36693" cy="210.93102" r="3.05548" gradientUnits="userSpaceOnUse" id="color-8"><stop offset="0" stop-color="#ffffff"/><stop offset="1" stop-color="#ffffff" stop-opacity="0"/></radialGradient><radialGradient cx="286.94645" cy="210.93102" r="3.05548" gradientUnits="userSpaceOnUse" id="color-9"><stop offset="0" stop-color="#ffffff"/><stop offset="1" stop-color="#ffffff" stop-opacity="0"/></radialGradient><radialGradient cx="297.50247" cy="211.11406" r="3.05547" gradientUnits="userSpaceOnUse" id="color-10"><stop offset="0" stop-color="#ffffff"/><stop offset="1" stop-color="#ffffff" stop-opacity="0"/></radialGradient><radialGradient cx="308.97363" cy="210.62593" r="3.05548" gradientUnits="userSpaceOnUse" id="color-11"><stop offset="0" stop-color="#ffffff"/><stop offset="1" stop-color="#ffffff" stop-opacity="0"/></radialGradient><radialGradient cx="320.68885" cy="210.80898" r="3.05548" gradientUnits="userSpaceOnUse" id="color-12"><stop offset="0" stop-color="#ffffff"/><stop offset="1" stop-color="#ffffff" stop-opacity="0"/></radialGradient><radialGradient cx="331.48882" cy="210.74797" r="3.05548" gradientUnits="userSpaceOnUse" id="color-13"><stop offset="0" stop-color="#ffffff"/><stop offset="1" stop-color="#ffffff" stop-opacity="0"/></radialGradient><radialGradient cx="325.75324" cy="228.13774" r="3.05547" gradientUnits="userSpaceOnUse" id="color-14"><stop offset="0" stop-color="#ffffff"/><stop offset="1" stop-color="#ffffff" stop-opacity="0"/></radialGradient><radialGradient cx="338.20067" cy="228.62588" r="3.05548" gradientUnits="userSpaceOnUse" id="color-15"><stop offset="0" stop-color="#ffffff"/><stop offset="1" stop-color="#ffffff" stop-opacity="0"/></radialGradient><radialGradient cx="347.0481" cy="228.3208" r="3.05547" gradientUnits="userSpaceOnUse" id="color-16"><stop offset="0" stop-color="#ffffff"/><stop offset="1" stop-color="#ffffff" stop-opacity="0"/></radialGradient><radialGradient cx="341.55659" cy="210.93102" r="3.05547" gradientUnits="userSpaceOnUse" id="color-17"><stop offset="0" stop-color="#ffffff"/><stop offset="1" stop-color="#ffffff" stop-opacity="0"/></radialGradient><radialGradient cx="355.89554" cy="228.19877" r="3.05548" gradientUnits="userSpaceOnUse" id="color-18"><stop offset="0" stop-color="#ffffff"/><stop offset="1" stop-color="#ffffff" stop-opacity="0"/></radialGradient><radialGradient cx="350.64809" cy="211.11406" r="3.05548" gradientUnits="userSpaceOnUse" id="color-19"><stop offset="0" stop-color="#ffffff"/><stop offset="1" stop-color="#ffffff" stop-opacity="0"/></radialGradient><radialGradient cx="361.9362" cy="211.11406" r="3.05548" gradientUnits="userSpaceOnUse" id="color-20"><stop offset="0" stop-color="#ffffff"/><stop offset="1" stop-color="#ffffff" stop-opacity="0"/></radialGradient><radialGradient cx="367.12262" cy="228.01572" r="3.05548" gradientUnits="userSpaceOnUse" id="color-21"><stop offset="0" stop-color="#ffffff"/><stop offset="1" stop-color="#ffffff" stop-opacity="0"/></radialGradient><radialGradient cx="366.87856" cy="216.42253" r="3.05547" gradientUnits="userSpaceOnUse" id="color-22"><stop offset="0" stop-color="#ffffff"/><stop offset="1" stop-color="#ffffff" stop-opacity="0"/></radialGradient><radialGradient cx="246.67537" cy="229.29706" r="3.05548" gradientUnits="userSpaceOnUse" id="color-23"><stop offset="0" stop-color="#ffffff"/><stop offset="1" stop-color="#ffffff" stop-opacity="0"/></radialGradient><radialGradient cx="256.01106" cy="232.04282" r="3.05548" gradientUnits="userSpaceOnUse" id="color-24"><stop offset="0" stop-color="#ffffff"/><stop offset="1" stop-color="#ffffff" stop-opacity="0"/></radialGradient><radialGradient cx="268.94649" cy="231.9818" r="3.05548" gradientUnits="userSpaceOnUse" id="color-25"><stop offset="0" stop-color="#ffffff"/><stop offset="1" stop-color="#ffffff" stop-opacity="0"/></radialGradient><radialGradient cx="280.96693" cy="232.04282" r="3.05547" gradientUnits="userSpaceOnUse" id="color-26"><stop offset="0" stop-color="#ffffff"/><stop offset="1" stop-color="#ffffff" stop-opacity="0"/></radialGradient><radialGradient cx="292.56012" cy="231.9818" r="3.05548" gradientUnits="userSpaceOnUse" id="color-27"><stop offset="0" stop-color="#ffffff"/><stop offset="1" stop-color="#ffffff" stop-opacity="0"/></radialGradient><radialGradient cx="246.24837" cy="221.91404" r="3.05549" gradientUnits="userSpaceOnUse" id="color-28"><stop offset="0" stop-color="#ffffff"/><stop offset="1" stop-color="#ffffff" stop-opacity="0"/></radialGradient><radialGradient cx="246.49244" cy="214.95812" r="3.05548" gradientUnits="userSpaceOnUse" id="color-29"><stop offset="0" stop-color="#ffffff"/><stop offset="1" stop-color="#ffffff" stop-opacity="0"/></radialGradient><radialGradient cx="255.82789" cy="214.65304" r="3.05549" gradientUnits="userSpaceOnUse" id="color-30"><stop offset="0" stop-color="#ffffff"/><stop offset="1" stop-color="#ffffff" stop-opacity="0"/></radialGradient><radialGradient cx="265.40765" cy="214.65304" r="3.05548" gradientUnits="userSpaceOnUse" id="color-31"><stop offset="0" stop-color="#ffffff"/><stop offset="1" stop-color="#ffffff" stop-opacity="0"/></radialGradient><radialGradient cx="275.96343" cy="214.83609" r="3.05548" gradientUnits="userSpaceOnUse" id="color-32"><stop offset="0" stop-color="#ffffff"/><stop offset="1" stop-color="#ffffff" stop-opacity="0"/></radialGradient><radialGradient cx="287.43471" cy="214.34795" r="3.05548" gradientUnits="userSpaceOnUse" id="color-33"><stop offset="0" stop-color="#ffffff"/><stop offset="1" stop-color="#ffffff" stop-opacity="0"/></radialGradient><radialGradient cx="299.14981" cy="214.53101" r="3.05548" gradientUnits="userSpaceOnUse" id="color-34"><stop offset="0" stop-color="#ffffff"/><stop offset="1" stop-color="#ffffff" stop-opacity="0"/></radialGradient><radialGradient cx="309.94989" cy="214.46999" r="3.05548" gradientUnits="userSpaceOnUse" id="color-35"><stop offset="0" stop-color="#ffffff"/><stop offset="1" stop-color="#ffffff" stop-opacity="0"/></radialGradient><radialGradient cx="304.21432" cy="231.85977" r="3.05548" gradientUnits="userSpaceOnUse" id="color-36"><stop offset="0" stop-color="#ffffff"/><stop offset="1" stop-color="#ffffff" stop-opacity="0"/></radialGradient><radialGradient cx="316.60072" cy="232.34791" r="3.05548" gradientUnits="userSpaceOnUse" id="color-37"><stop offset="0" stop-color="#ffffff"/><stop offset="1" stop-color="#ffffff" stop-opacity="0"/></radialGradient><radialGradient cx="325.50918" cy="232.04282" r="3.05548" gradientUnits="userSpaceOnUse" id="color-38"><stop offset="0" stop-color="#ffffff"/><stop offset="1" stop-color="#ffffff" stop-opacity="0"/></radialGradient><radialGradient cx="319.95665" cy="214.65304" r="3.05547" gradientUnits="userSpaceOnUse" id="color-39"><stop offset="0" stop-color="#ffffff"/><stop offset="1" stop-color="#ffffff" stop-opacity="0"/></radialGradient><radialGradient cx="334.35661" cy="231.9818" r="3.05548" gradientUnits="userSpaceOnUse" id="color-40"><stop offset="0" stop-color="#ffffff"/><stop offset="1" stop-color="#ffffff" stop-opacity="0"/></radialGradient><radialGradient cx="329.04815" cy="214.83609" r="3.05547" gradientUnits="userSpaceOnUse" id="color-41"><stop offset="0" stop-color="#ffffff"/><stop offset="1" stop-color="#ffffff" stop-opacity="0"/></radialGradient><radialGradient cx="340.33626" cy="214.83609" r="3.05548" gradientUnits="userSpaceOnUse" id="color-42"><stop offset="0" stop-color="#ffffff"/><stop offset="1" stop-color="#ffffff" stop-opacity="0"/></radialGradient><radialGradient cx="345.52268" cy="231.73774" r="3.05548" gradientUnits="userSpaceOnUse" id="color-43"><stop offset="0" stop-color="#ffffff"/><stop offset="1" stop-color="#ffffff" stop-opacity="0"/></radialGradient><radialGradient cx="345.27862" cy="220.14455" r="3.05547" gradientUnits="userSpaceOnUse" id="color-44"><stop offset="0" stop-color="#ffffff"/><stop offset="1" stop-color="#ffffff" stop-opacity="0"/></radialGradient></defs><g transform="translate(-231.02578,-89.39612)"><g data-paper-data="{&quot;isPaintingLayer&quot;:true}" stroke-linejoin="miter" stroke-miterlimit="10" stroke-dasharray="" stroke-dashoffset="0" style="mix-blend-mode: normal"><g><g fill-rule="nonzero" stroke="#000000" stroke-width="2.5"><g fill="none" stroke-linecap="round"><path d="M253.8147,211.05329h130.27083"/><path d="M366.69575,211.66346l0.61016,16.77962h-99.15228l-0.30509,-17.38978"/></g><path d="M268.18416,223.25665c0.63091,0 1.20325,0.24895 1.61695,0.65288c0.41491,0.4027 0.67118,0.95918 0.67118,1.57423c0,0.61505 -0.25626,1.17152 -0.67118,1.57423c-0.41369,0.40393 -0.98603,0.65289 -1.61695,0.65289c-0.63091,0 -1.20325,-0.24895 -1.61695,-0.65289c-0.41491,-0.4027 -0.67118,-0.95917 -0.67118,-1.57423c0,-0.61505 0.25627,-1.17152 0.67118,-1.57423c0.4137,-0.40393 0.98603,-0.65288 1.61695,-0.65288z" fill="url(#color-1)" stroke-linecap="butt"/><path d="M277.58074,226.0024c0.63091,0 1.20325,0.24895 1.61694,0.65288c0.41491,0.4027 0.67118,0.95919 0.67118,1.57424c0,0.61505 -0.25627,1.17152 -0.67118,1.57423c-0.41369,0.40393 -0.98603,0.65289 -1.61694,0.65289c-0.63091,0 -1.20326,-0.24895 -1.61695,-0.65289c-0.41491,-0.4027 -0.67118,-0.95917 -0.67118,-1.57423c0,-0.61505 0.25627,-1.17153 0.67118,-1.57424c0.41369,-0.40393 0.98603,-0.65288 1.61695,-0.65288z" fill="url(#color-2)" stroke-linecap="butt"/><path d="M290.45527,225.88038c0.63091,0 1.20326,0.24895 1.61695,0.65288c0.41491,0.4027 0.67118,0.95917 0.67118,1.57423c0,0.61505 -0.25627,1.17153 -0.67118,1.57424c-0.41369,0.40393 -0.98603,0.65287 -1.61695,0.65287c-0.63091,0 -1.20325,-0.24895 -1.61695,-0.65287c-0.41491,-0.4027 -0.67118,-0.95919 -0.67118,-1.57424c0,-0.61505 0.25627,-1.17152 0.67118,-1.57423c0.41369,-0.40393 0.98603,-0.65288 1.61695,-0.65288z" fill="url(#color-3)" stroke-linecap="butt"/><path d="M302.47559,226.0024c0.63091,0 1.20325,0.24895 1.61695,0.65288c0.41491,0.4027 0.67118,0.95919 0.67118,1.57424c0,0.61505 -0.25627,1.17152 -0.67118,1.57423c-0.41369,0.40393 -0.98603,0.65289 -1.61695,0.65289c-0.63091,0 -1.20325,-0.24895 -1.61694,-0.65289c-0.41491,-0.4027 -0.67118,-0.95917 -0.67118,-1.57423c0,-0.61505 0.25627,-1.17153 0.67118,-1.57424c0.41369,-0.40393 0.98603,-0.65288 1.61694,-0.65288z" fill="url(#color-4)" stroke-linecap="butt"/><path d="M314.06878,225.88038c0.63091,0 1.20325,0.24895 1.61695,0.65288c0.41491,0.4027 0.67118,0.95917 0.67118,1.57423c0,0.61505 -0.25627,1.17153 -0.67118,1.57424c-0.41369,0.40393 -0.98603,0.65287 -1.61695,0.65287c-0.63091,0 -1.20326,-0.24895 -1.61695,-0.65287c-0.41491,-0.4027 -0.67118,-0.95919 -0.67118,-1.57424c0,-0.61505 0.25627,-1.17152 0.67118,-1.57423c0.41369,-0.40393 0.98603,-0.65288 1.61695,-0.65288z" fill="url(#color-5)" stroke-linecap="butt"/><path d="M267.81805,215.8126c0.63091,0 1.20325,0.24895 1.61695,0.65289c0.41491,0.4027 0.67118,0.95917 0.67118,1.57423c0,0.61505 -0.25627,1.17153 -0.67118,1.57424c-0.41369,0.40393 -0.98603,0.65288 -1.61695,0.65288c-0.63091,0 -1.20324,-0.24895 -1.61694,-0.65288c-0.41491,-0.4027 -0.67118,-0.95919 -0.67118,-1.57424c0,-0.61505 0.25627,-1.17152 0.67118,-1.57423c0.4137,-0.40393 0.98603,-0.65289 1.61694,-0.65289z" fill="url(#color-6)" stroke-linecap="butt"/><path d="M268.00111,208.9177c0.63091,0 1.20325,0.24895 1.61695,0.65288c0.41491,0.4027 0.67118,0.95919 0.67118,1.57424c0,0.61505 -0.25627,1.17152 -0.67118,1.57424c-0.41369,0.40393 -0.98603,0.65288 -1.61695,0.65288c-0.63091,0 -1.20326,-0.24895 -1.61695,-0.65288c-0.41491,-0.4027 -0.67118,-0.95919 -0.67118,-1.57424c0,-0.61505 0.25627,-1.17152 0.67118,-1.57424c0.41369,-0.40393 0.98603,-0.65288 1.61695,-0.65288z" fill="url(#color-7)" stroke-linecap="butt"/><path d="M277.33668,208.61262c0.63091,0 1.20325,0.24895 1.61694,0.65289c0.41491,0.4027 0.67118,0.95917 0.67118,1.57423c0,0.61505 -0.25627,1.17152 -0.67118,1.57423c-0.41369,0.40393 -0.98603,0.65288 -1.61694,0.65288c-0.63091,0 -1.20325,-0.24895 -1.61694,-0.65288c-0.41491,-0.4027 -0.67118,-0.95918 -0.67118,-1.57423c0,-0.61505 0.25627,-1.17152 0.67118,-1.57423c0.41369,-0.40393 0.98603,-0.65289 1.61694,-0.65289z" fill="url(#color-8)" stroke-linecap="butt"/><path d="M286.9163,208.61262c0.63091,0 1.20326,0.24895 1.61695,0.65289c0.41491,0.4027 0.67118,0.95917 0.67118,1.57423c0,0.61505 -0.25627,1.17152 -0.67118,1.57423c-0.41369,0.40393 -0.98603,0.65288 -1.61695,0.65288c-0.63091,0 -1.20325,-0.24895 -1.61695,-0.65288c-0.41491,-0.4027 -0.67118,-0.95918 -0.67118,-1.57423c0,-0.61505 0.25627,-1.17152 0.67118,-1.57423c0.41369,-0.40393 0.98603,-0.65289 1.61695,-0.65289z" fill="url(#color-9)" stroke-linecap="butt"/><path d="M297.4722,208.79567c0.63091,0 1.20326,0.24895 1.61695,0.65289c0.41491,0.4027 0.67118,0.95917 0.67118,1.57423c0,0.61505 -0.25627,1.17153 -0.67118,1.57423c-0.41369,0.40393 -0.98603,0.65288 -1.61695,0.65288c-0.63091,0 -1.20325,-0.24895 -1.61695,-0.65288c-0.41491,-0.4027 -0.67118,-0.95918 -0.67118,-1.57423c0,-0.61505 0.25627,-1.17152 0.67118,-1.57423c0.41369,-0.40393 0.98603,-0.65289 1.61695,-0.65289z" fill="url(#color-10)" stroke-linecap="butt"/><path d="M308.94337,208.30754c0.63091,0 1.20325,0.24895 1.61694,0.65288c0.41491,0.4027 0.67118,0.95919 0.67118,1.57424c0,0.61505 -0.25627,1.17152 -0.67118,1.57423c-0.41369,0.40393 -0.98603,0.65289 -1.61694,0.65289c-0.63091,0 -1.20326,-0.24895 -1.61695,-0.65289c-0.41491,-0.4027 -0.67118,-0.95917 -0.67118,-1.57423c0,-0.61505 0.25627,-1.17152 0.67118,-1.57424c0.41369,-0.40393 0.98603,-0.65288 1.61695,-0.65288z" fill="url(#color-11)" stroke-linecap="butt"/><path d="M320.65858,208.49059c0.63091,0 1.20325,0.24895 1.61694,0.65288c0.41491,0.4027 0.67119,0.95917 0.67119,1.57423c0,0.61505 -0.25628,1.17153 -0.67119,1.57424c-0.41369,0.40393 -0.98603,0.65288 -1.61694,0.65288c-0.63091,0 -1.20325,-0.24895 -1.61694,-0.65288c-0.41491,-0.4027 -0.67118,-0.95919 -0.67118,-1.57424c0,-0.61505 0.25627,-1.17152 0.67118,-1.57423c0.41369,-0.40393 0.98603,-0.65288 1.61694,-0.65288z" fill="url(#color-12)" stroke-linecap="butt"/><path d="M331.45856,208.42957c0.63091,0 1.20324,0.24895 1.61693,0.65288c0.41491,0.4027 0.67119,0.95918 0.67119,1.57423c0,0.61505 -0.25628,1.17152 -0.67119,1.57423c-0.41369,0.40393 -0.98602,0.65287 -1.61693,0.65287c-0.63091,0 -1.20326,-0.24895 -1.61695,-0.65287c-0.41491,-0.4027 -0.67118,-0.95917 -0.67118,-1.57423c0,-0.61505 0.25627,-1.17153 0.67118,-1.57423c0.41369,-0.40393 0.98603,-0.65288 1.61695,-0.65288z" fill="url(#color-13)" stroke-linecap="butt"/><path d="M325.72298,225.81935c0.63091,0 1.20325,0.24895 1.61695,0.65288c0.41491,0.4027 0.67119,0.95919 0.67119,1.57424c0,0.61505 -0.25628,1.17152 -0.67119,1.57423c-0.41369,0.40393 -0.98603,0.65288 -1.61695,0.65288c-0.63091,0 -1.20325,-0.24895 -1.61694,-0.65288c-0.41491,-0.4027 -0.67118,-0.95917 -0.67118,-1.57423c0,-0.61505 0.25627,-1.17153 0.67118,-1.57424c0.41369,-0.40393 0.98603,-0.65288 1.61694,-0.65288z" fill="url(#color-14)" stroke-linecap="butt"/><path d="M338.1704,226.30749c0.63091,0 1.20325,0.24895 1.61695,0.65288c0.41491,0.4027 0.67118,0.95919 0.67118,1.57424c0,0.61505 -0.25627,1.17152 -0.67118,1.57424c-0.41369,0.40393 -0.98603,0.65288 -1.61695,0.65288c-0.63091,0 -1.20325,-0.24895 -1.61694,-0.65288c-0.41491,-0.4027 -0.67118,-0.95919 -0.67118,-1.57424c0,-0.61505 0.25627,-1.17153 0.67118,-1.57424c0.41369,-0.40393 0.98603,-0.65288 1.61694,-0.65288z" fill="url(#color-15)" stroke-linecap="butt"/><path d="M347.01783,226.0024c0.63091,0 1.20326,0.24895 1.61695,0.65288c0.41491,0.4027 0.67118,0.95919 0.67118,1.57424c0,0.61505 -0.25627,1.17152 -0.67118,1.57423c-0.41369,0.40393 -0.98603,0.65289 -1.61695,0.65289c-0.63091,0 -1.20325,-0.24895 -1.61695,-0.65289c-0.41491,-0.4027 -0.67118,-0.95917 -0.67118,-1.57423c0,-0.61505 0.25627,-1.17153 0.67118,-1.57424c0.41369,-0.40393 0.98603,-0.65288 1.61695,-0.65288z" fill="url(#color-16)" stroke-linecap="butt"/><path d="M341.52633,208.61262c0.63091,0 1.20325,0.24895 1.61694,0.65289c0.41491,0.4027 0.67118,0.95917 0.67118,1.57423c0,0.61505 -0.25627,1.17152 -0.67118,1.57423c-0.41369,0.40393 -0.98603,0.65288 -1.61694,0.65288c-0.63091,0 -1.20325,-0.24895 -1.61695,-0.65288c-0.41491,-0.4027 -0.67118,-0.95918 -0.67118,-1.57423c0,-0.61505 0.25627,-1.17152 0.67118,-1.57423c0.41369,-0.40393 0.98603,-0.65289 1.61695,-0.65289z" fill="url(#color-17)" stroke-linecap="butt"/><path d="M355.86527,225.88038c0.63091,0 1.20326,0.24895 1.61695,0.65288c0.41491,0.4027 0.67118,0.95917 0.67118,1.57423c0,0.61505 -0.25627,1.17153 -0.67118,1.57424c-0.41369,0.40393 -0.98603,0.65287 -1.61695,0.65287c-0.63091,0 -1.20325,-0.24895 -1.61695,-0.65287c-0.41491,-0.4027 -0.67118,-0.95919 -0.67118,-1.57424c0,-0.61505 0.25627,-1.17152 0.67118,-1.57423c0.41369,-0.40393 0.98603,-0.65288 1.61695,-0.65288z" fill="url(#color-18)" stroke-linecap="butt"/><path d="M350.61783,208.79567c0.63091,0 1.20325,0.24895 1.61694,0.65289c0.41491,0.4027 0.67118,0.95917 0.67118,1.57423c0,0.61505 -0.25627,1.17153 -0.67118,1.57423c-0.41369,0.40393 -0.98603,0.65288 -1.61694,0.65288c-0.63091,0 -1.20325,-0.24895 -1.61695,-0.65288c-0.41491,-0.4027 -0.67118,-0.95918 -0.67118,-1.57423c0,-0.61505 0.25627,-1.17152 0.67118,-1.57423c0.41369,-0.40393 0.98603,-0.65289 1.61695,-0.65289z" fill="url(#color-19)" stroke-linecap="butt"/><path d="M361.90593,208.79567c0.63091,0 1.20326,0.24895 1.61695,0.65289c0.41491,0.4027 0.67118,0.95917 0.67118,1.57423c0,0.61505 -0.25627,1.17153 -0.67118,1.57423c-0.41369,0.40393 -0.98603,0.65288 -1.61695,0.65288c-0.63091,0 -1.20325,-0.24895 -1.61695,-0.65288c-0.41491,-0.4027 -0.67118,-0.95918 -0.67118,-1.57423c0,-0.61505 0.25627,-1.17152 0.67118,-1.57423c0.41369,-0.40393 0.98603,-0.65289 1.61695,-0.65289z" fill="url(#color-20)" stroke-linecap="butt"/><path d="M367.09236,225.69733c0.63091,0 1.20326,0.24895 1.61695,0.65288c0.41491,0.4027 0.67118,0.95918 0.67118,1.57423c0,0.61505 -0.25627,1.17152 -0.67118,1.57423c-0.41369,0.40393 -0.98603,0.65289 -1.61695,0.65289c-0.63091,0 -1.20325,-0.24895 -1.61694,-0.65289c-0.41491,-0.4027 -0.67118,-0.95917 -0.67118,-1.57423c0,-0.61505 0.25628,-1.17152 0.67118,-1.57423c0.41369,-0.40393 0.98603,-0.65288 1.61694,-0.65288z" fill="url(#color-21)" stroke-linecap="butt"/><path d="M366.84829,214.10413c0.63091,0 1.20325,0.24895 1.61694,0.65289c0.41491,0.4027 0.67118,0.95917 0.67118,1.57423c0,0.61505 -0.25627,1.17153 -0.67118,1.57424c-0.41369,0.40393 -0.98603,0.65287 -1.61694,0.65287c-0.63091,0 -1.20325,-0.24895 -1.61695,-0.65287c-0.41491,-0.4027 -0.67118,-0.95919 -0.67118,-1.57424c0,-0.61505 0.25627,-1.17152 0.67118,-1.57423c0.41369,-0.40393 0.98603,-0.65289 1.61695,-0.65289z" fill="url(#color-22)" stroke-linecap="butt"/></g><path d="M289.32646,165.65679c9.91157,4.14792 13.21502,19.97079 23.79655,21.66096c10.16052,1.62182 18.08904,-10.27645 28.06771,-13.11861c10.36797,-3.11795 22.74584,-9.83835 32.33889,-4.57625c9.06466,4.97287 13.39928,18.22328 11.89827,28.67789c-1.33871,9.32825 -9.85176,18.67236 -18.91519,21.0508c-26.67409,6.99741 -55.14453,6.4812 -82.67774,4.88134c-7.2549,-0.42102 -14.91982,-4.81667 -19.52537,-10.67794c-3.92094,-5.3585 -4.58724,-13.1723 -3.66101,-19.83045c1.21424,-8.73516 4.11497,-18.15615 10.37163,-24.3701c4.39077,-4.35415 12.62193,-6.20419 18.30625,-3.69762z" fill="#ff0000" fill-rule="nonzero" stroke="#000000" stroke-width="2.5" stroke-linecap="round"/><path d="M280.72969,165.90087c3.28709,-0.39539 7.01705,-0.4027 9.74731,1.52543c6.49024,4.61042 9.59476,16.66612 17.10947,17.69486c14.4644,1.97695 28.95357,-13.10762 43.03319,-9.15252c7.73241,2.17342 13.01256,14.71847 12.18407,24.16264c-0.82238,9.37461 -8.37125,18.67236 -16.07267,21.05079c-22.66542,6.99741 -46.85735,6.48121 -70.25277,4.88135c-6.16465,-0.42102 -12.67771,-4.81667 -16.59108,-10.67794c-3.33177,-5.3585 -3.89787,-13.1723 -3.11087,-19.83046c1.03179,-8.73516 3.59194,-18.04388 8.81302,-24.3701c3.70189,-4.48351 9.97429,-4.40298 15.14035,-5.28406z" fill="#cc0000" fill-rule="nonzero" stroke="#000000" stroke-width="2.5" stroke-linecap="round"/><path d="M303.97343,215.60514c-1.40681,9.23659 -0.43566,19.29741 -4.65717,27.60923c-1.46514,2.88169 -6.38834,0.02185 -9.503,0.44482c-2.54966,0.54464 -4.87281,2.13375 -7.37388,2.43848c-2.9199,0.35731 -5.84723,-0.5173 -8.83778,-0.31034c-3.59694,-0.15058 -9.39134,3.65942 -10.89516,0.48057c-2.38454,-5.0655 5.11369,-12.05973 3.43036,-17.59663c-2.06774,-6.77836 -11.4066,-9.55267 -13.43687,-16.50955c-2.031,-6.9558 -1.45122,-14.81354 2.22076,-21.91613c3.67199,-7.10259 9.74779,-12.1189 16.5973,-14.48367c6.85012,-2.36586 14.47269,-2.08067 21.23921,1.41753c6.76664,3.49821 11.4066,9.55267 13.43699,16.50955c2.03088,6.9558 -1.11649,14.66478 -2.22076,21.91613z" fill="#ae7d4b" fill-rule="nonzero" stroke="#000000" stroke-width="2.5" stroke-linecap="butt"/><path d="M312.08732,165.29301c5.95353,0 11.34838,1.98379 15.25468,5.18899c3.90679,3.20533 5.97891,7.96818 6.32464,12.51612c0.25846,3.49223 -0.80591,7.76182 -4.22199,9.15789c-5.16922,2.11851 -11.49666,-0.45872 -17.35733,-0.40697c-5.70544,-0.05174 -12.03043,2.54378 -17.35733,0.40697c-3.42877,-1.37252 -4.47583,-5.66969 -4.222,-9.15789c0.34109,-4.54428 2.41785,-9.31078 6.32464,-12.51612c3.90629,-3.2052 9.30115,-5.18899 15.25468,-5.18899z" fill="#ff0000" fill-rule="nonzero" stroke="#000000" stroke-width="2.5" stroke-linecap="round"/><path d="M261.31659,108.70521c2.13546,0 4.07057,0.78858 5.47175,2.06224c1.40132,1.27404 2.26873,3.03327 2.26873,4.97445c0,1.94119 -0.86741,3.70043 -2.26873,4.97446c-1.40118,1.27366 -3.33629,2.06224 -5.47175,2.06224c-2.13546,0 -4.07055,-0.78858 -5.47173,-2.06224c-1.40132,-1.27404 -2.2686,-3.03327 -2.2686,-4.97446c0,-1.94119 0.86729,-3.70043 2.2686,-4.97445c1.40118,-1.27366 3.33627,-2.06224 5.47173,-2.06224z" fill="#ffffff" fill-rule="nonzero" stroke="#000000" stroke-width="2.5" stroke-linecap="butt"/><path d="M261.01114,118.4857l-0.1407,-0.1407" fill="none" fill-rule="nonzero" stroke="#000000" stroke-width="2.5" stroke-linecap="round"/><path d="M256.41389,117.64136l0.1407,0.14071" fill="none" fill-rule="nonzero" stroke="#000000" stroke-width="2.5" stroke-linecap="round"/><path d="M260.87044,114.12301l0.1407,0.1407" fill="none" fill-rule="nonzero" stroke="#000000" stroke-width="2.5" stroke-linecap="round"/><path d="M264.15424,118.11046l0.14084,0.1407" fill="none" fill-rule="nonzero" stroke="#000000" stroke-width="2.5" stroke-linecap="round"/><path d="M262.18401,120.12767l-0.1407,-0.1407" fill="none" fill-rule="nonzero" stroke="#000000" stroke-width="2.5" stroke-linecap="round"/><path d="M263.1222,115.90567l-0.1407,-0.14082" fill="none" fill-rule="nonzero" stroke="#000000" stroke-width="2.5" stroke-linecap="round"/><path d="M265.70235,115.67112l-0.1407,-0.14082" fill="none" fill-rule="nonzero" stroke="#000000" stroke-width="2.5" stroke-linecap="round"/><path d="M267.20349,118.57955l0.14083,0.14083" fill="none" fill-rule="nonzero" stroke="#000000" stroke-width="2.5" stroke-linecap="round"/><path d="M266.03075,112.7156l0.1407,0.14082" fill="none" fill-rule="nonzero" stroke="#000000" stroke-width="2.5" stroke-linecap="round"/><path d="M260.63589,112.2465l0.1407,0.1407" fill="none" fill-rule="nonzero" stroke="#000000" stroke-width="2.5" stroke-linecap="round"/><path d="M262.27786,110.37012l0.1407,0.1407" fill="none" fill-rule="nonzero" stroke="#000000" stroke-width="2.5" stroke-linecap="round"/><path d="M263.21605,113.18482l0.1407,0.1407" fill="none" fill-rule="nonzero" stroke="#000000" stroke-width="2.5" stroke-linecap="round"/><path d="M257.72733,112.15265l-0.1407,-0.1407" fill="none" fill-rule="nonzero" stroke="#000000" stroke-width="2.5" stroke-linecap="round"/><path d="M257.58663,114.59211l0.1407,0.1407" fill="none" fill-rule="nonzero" stroke="#000000" stroke-width="2.5" stroke-linecap="round"/><path d="M255.38186,114.73281l-0.14083,-0.1407" fill="none" fill-rule="nonzero" stroke="#000000" stroke-width="2.5" stroke-linecap="round"/><path d="M259.83839,116.37477l-0.1407,-0.1407" fill="none" fill-rule="nonzero" stroke="#000000" stroke-width="2.5" stroke-linecap="round"/><path d="M258.99405,119.75242l0.1407,0.1407" fill="none" fill-rule="nonzero" stroke="#000000" stroke-width="2.5" stroke-linecap="round"/><path d="M289.75127,94.1333c7.29944,-2.42872 16.70566,-5.7008 23.06826,-1.37544c9.55876,6.5066 13.12166,19.63667 18.21388,30.46055c1.27599,2.41554 -2.94978,-2.15511 -4.69109,-2.34549c-6.83926,-0.76234 -13.6968,-2.12229 -20.64113,-1.40741c-6.78715,0.69998 -12.88809,5.95267 -19.70292,5.62941c-2.37318,-0.11446 -0.52072,-5.27332 -2.34549,-6.5676c-2.57125,-1.63683 -5.96867,-0.81115 -8.91321,-0.93831c-3.43256,-0.14961 -10.08412,2.45349 -10.32062,0c-0.29642,-3.36581 6.32464,-8.1067 9.85141,-11.2587c4.89575,-4.36844 9.34252,-10.14844 15.48093,-12.19702z" fill="#ff0000" fill-rule="nonzero" stroke="#000000" stroke-width="2.5" stroke-linecap="round"/><g stroke-width="1"><g fill="#000000" fill-rule="nonzero" stroke="none" stroke-linecap="butt"><path d="M295.58319,164.01223c0.09232,-0.02802 0.43063,-0.08486 0.7518,-0.1264l0.58396,-0.07554l0.06524,0.32284c0.05824,0.28827 0.08553,0.32442 0.25565,0.33762c0.10471,0.00819 0.26728,0.04018 0.36123,0.0711c0.41078,0.13511 0.70988,0.73344 0.57095,1.1423c-0.06913,0.20355 -0.0613,0.22457 0.15182,0.40634c0.52935,0.45166 0.27033,1.28401 -0.51849,1.6662c-0.16403,0.07944 -0.19642,0.1404 -0.1948,0.36669c0.00237,0.3247 -0.09671,0.37396 -0.9605,0.47777c-0.59532,0.07155 -0.76487,0.02618 -0.83588,-0.22394c-0.03608,-0.127 -0.09197,-0.14255 -0.4205,-0.11665c-0.4054,0.03195 -0.49036,-0.01599 -0.53061,-0.29958c-0.02773,-0.19561 0.05403,-0.31871 0.25607,-0.38535c0.17503,-0.05778 0.20529,-0.35685 0.10292,-1.01775c-0.13882,-0.89607 -0.17856,-0.98939 -0.40823,-0.95814c-0.15272,0.02078 -0.21176,-0.01033 -0.26324,-0.13898c-0.15746,-0.39286 0.06065,-0.67238 0.5797,-0.74299c0.17654,-0.02402 0.1926,-0.04935 0.16415,-0.25848zM295.57005,164.94375c-0.42867,0.08537 -0.55081,0.16441 -0.25965,0.16801c0.31701,0.00392 0.34844,0.08493 0.53197,1.37068c0.15449,1.08207 0.14769,1.14408 -0.13769,1.2489c-0.07775,0.02861 0.01253,0.05165 0.21725,0.05531c0.19274,0.00355 0.39084,0.04511 0.44027,0.09242c0.07683,0.07345 0.10036,0.06911 0.16187,-0.02949c0.08608,-0.13805 0.40202,-0.19395 0.53311,-0.09426c0.05147,0.03914 0.10954,0.16491 0.12904,0.27957l0.03555,0.20838l0.02301,-0.23682c0.02806,-0.28898 0.05954,-0.32911 0.37618,-0.47999c0.31487,-0.15001 0.72794,-0.65634 0.70042,-0.85856c-0.02857,-0.20996 -0.25342,-0.51327 -0.42897,-0.57857c-0.18645,-0.06936 -0.19398,-0.14019 -0.04393,-0.41388c0.10867,-0.19816 0.10907,-0.24848 0.0042,-0.47939c-0.13222,-0.29102 -0.4007,-0.45107 -0.77296,-0.46076c-0.22982,-0.00592 -0.25082,-0.02566 -0.32864,-0.30874c-0.05401,-0.19658 -0.07744,-0.23427 -0.06709,-0.10777c0.02724,0.3313 -0.06524,0.47614 -0.3265,0.51169c-0.24619,0.0335 -0.25986,0.0185 -0.39608,-0.43548c-0.03761,-0.12539 -0.04473,-0.10674 -0.02806,0.07372z"/><path d="M296.27078,166.39424c0.10188,-0.13396 0.96432,-0.23829 1.21928,-0.1475c0.30548,0.10874 0.42687,0.41325 0.31425,0.78778c-0.07642,0.25382 -0.2962,0.36587 -0.87147,0.44413c-0.39647,0.05393 -0.5163,0.04661 -0.56064,-0.03432zM296.61215,167.20767l0.33488,-0.02401c0.37956,-0.02718 0.64729,-0.2076 0.61881,-0.41694c-0.03298,-0.24244 -0.23528,-0.32089 -0.67352,-0.26126l-0.41072,0.05588z"/><path d="M296.08889,165.14204c0.04409,-0.11841 0.12835,-0.15265 0.49989,-0.2032c0.38285,-0.05208 0.47421,-0.03997 0.63821,0.0848c0.23594,0.17937 0.30213,0.54047 0.1461,0.79694c-0.09554,0.15702 -0.16591,0.18685 -0.55254,0.23402c-0.6451,0.07873 -0.671,0.06509 -0.73235,-0.38588zM296.50946,165.81045c0.03057,0.01249 0.1919,-0.01548 0.35857,-0.06212c0.24999,-0.06994 0.30321,-0.11305 0.30396,-0.24606c0.0014,-0.24774 -0.15504,-0.34209 -0.49116,-0.29636l-0.30051,0.04089l0.0368,0.27051z"/></g><g><path d="M303.36817,124.30898c11.98932,-2.26092 21.80234,1.30732 29.43888,10.70475c6.82824,10.25543 7.23998,20.73875 1.23523,31.44966c-6.65739,9.62733 -15.84775,13.94912 -27.57117,12.96577c-11.26203,-2.01612 -18.86458,-8.39303 -22.8076,-19.13093c-3.13592,-11.20309 -0.65424,-20.92454 7.44505,-29.16448c3.57234,-3.19368 7.65888,-5.46861 12.25963,-6.82477z" fill="#0c0608" fill-rule="evenodd" stroke="#000000" stroke-linecap="butt"/><path d="M336.15809,156.53808c-0.38717,-11.70691 -5.68004,-20.37069 -15.87881,-25.99133c-5.97937,-2.93464 -12.29333,-4.18911 -18.94158,-3.7635c9.65192,-3.08665 18.41164,-1.46041 26.27917,4.87872c7.21843,6.76918 10.0654,15.0612 8.54124,24.8761z" fill="#feffb1" fill-rule="evenodd" stroke="none" stroke-linecap="butt"/><path d="M301.33768,126.78324c6.64825,-0.42562 12.96224,0.82888 18.94158,3.7635c10.19876,5.62063 15.49163,14.28442 15.87881,25.99133c-1.79198,8.39067 -6.46569,14.6342 -14.02142,18.73091c-1.28919,0.64406 -2.63127,1.13658 -4.02592,1.47764c-10.28999,1.08459 -18.8089,-2.29349 -25.55694,-10.13387c-3.72827,-5.21745 -5.67947,-11.0669 -5.85357,-17.54867c0.05758,-4.61336 0.88894,-9.06617 2.49414,-13.35838c3.12242,-4.21763 7.17016,-7.19178 12.14334,-8.92245z" fill="#ffeb6e" fill-rule="evenodd" stroke="none" stroke-linecap="butt"/><path d="M289.19435,135.7057c-1.60517,4.29222 -2.43656,8.74501 -2.49414,13.35839c0.1741,6.4818 2.1253,12.33122 5.85357,17.54867c6.74805,7.84037 15.26693,11.21849 25.55694,10.13387c-10.03086,2.84276 -18.85834,0.71844 -26.48243,-6.37276c-7.67448,-8.34332 -9.64842,-17.88133 -5.92181,-28.61404c0.85479,-2.1996 2.01734,-4.21764 3.48786,-6.05412z" fill="#fec900" fill-rule="evenodd" stroke="none" stroke-linecap="butt"/><path d="M307.51024,149.78358c0.44715,0.06664 0.78909,0.30198 1.02595,0.70581c0.40874,0.64302 0.64491,1.34369 0.70862,2.10162c-0.16593,-0.22294 -0.28655,-0.48821 -0.36193,-0.79616c0.01816,0.37086 -0.01966,0.71416 -0.11349,1.02992c0.00021,-1.19897 -0.41955,-2.21264 -1.25914,-3.0412z" fill="#79527e" fill-rule="evenodd" stroke="none" stroke-linecap="butt"/><path d="M300.78642,152.55819c0.03413,1.37691 0.53177,2.54905 1.4929,3.51663c-0.73378,-0.22735 -1.2241,-0.72433 -1.4709,-1.49067c-0.0729,-0.32826 -0.14563,-0.6565 -0.21853,-0.98475c-0.0489,-0.40794 0.01665,-0.75501 0.19651,-1.04122z" fill="#916796" fill-rule="evenodd" stroke="none" stroke-linecap="butt"/><path d="M309.24482,152.59102c-0.10553,0.70571 -0.2642,1.40361 -0.47602,2.0937c-0.24326,0.42027 -0.56536,0.74595 -0.96612,0.97683c0.69346,-0.8136 1.01557,-1.75911 0.96669,-2.83677c0.09383,-0.31576 0.13166,-0.65904 0.11349,-1.02992c0.07538,0.30794 0.19599,0.57322 0.36193,0.79616z" fill="#a87fae" fill-rule="evenodd" stroke="none" stroke-linecap="butt"/><path d="M320.17187,148.39915c-0.88844,1.75535 -0.67014,3.35996 0.65495,4.81417c-0.15446,0.20058 -0.32047,0.22316 -0.49801,0.06775c-1.09583,-1.43197 -1.30661,-2.98131 -0.63238,-4.64817c0.11694,-0.1657 0.27543,-0.24358 0.47543,-0.23376z" fill="#976e9d" fill-rule="evenodd" stroke="none" stroke-linecap="butt"/><g fill-rule="evenodd" stroke="none" stroke-linecap="butt"><path d="M307.12557,144.37042c-1.07596,0.57478 -2.23919,0.99458 -3.4902,1.25946c-1.1243,0.25993 -2.20229,0.66811 -3.23341,1.22451c-0.18291,-0.06221 -0.3656,-0.12471 -0.5485,-0.18692c1.03945,-1.22393 2.30989,-2.13795 3.81163,-2.74165c1.27027,-0.52118 2.42368,-0.3729 3.46049,0.4446z" fill="#191409"/><path d="M319.31151,141.66641c2.38151,-0.39827 4.62053,0.03805 6.71658,1.30928c-2.32357,0.06478 -4.65213,0.2508 -6.9856,0.55808c-0.17968,-0.67856 -0.09015,-1.30093 0.26903,-1.86736z" fill="#1b160c"/><path d="M307.12557,144.37042c0.48538,0.26114 0.62327,0.6347 0.41398,1.1206c-1.28777,-0.03612 -2.58915,0.01015 -3.90419,0.13883c1.25098,-0.26486 2.41422,-0.68467 3.4902,-1.25946z" fill="#8f843d"/><path d="M325.28567,147.13055c-2.0284,-0.8471 -3.81422,-0.51677 -5.35756,0.99043c-0.08985,-0.33354 -0.0451,-0.64482 0.13452,-0.93369c1.52808,-1.03305 3.15429,-1.25429 4.87892,-0.66377c0.21654,0.14602 0.3314,0.34827 0.34411,0.60703z" fill="#9c8d50"/><path d="M325.28567,147.13055c2.1095,1.92954 2.21768,4.00713 0.32488,6.2327c-1.28217,0.7527 -2.64605,0.98193 -4.09108,0.68736c-0.44362,-0.29822 -0.83855,-0.63679 -1.18434,-1.01579c-1.24288,-1.47284 -1.46412,-3.09908 -0.66377,-4.87891c0.08552,-0.01163 0.17128,-0.0233 0.25677,-0.03493c1.54334,-1.5072 3.32916,-1.8375 5.35756,-0.99043z" fill="#0c0907"/><path d="M307.67228,150.31142c0.58009,0.89582 0.89111,1.89967 0.93279,3.01155c-0.19264,0.80427 -0.52755,1.54738 -1.00445,2.22896c-1.49613,1.21203 -3.12263,1.43331 -4.87891,0.66377c-0.12046,-0.24514 -0.31501,-0.39311 -0.58344,-0.44369c-0.7808,-1.01395 -1.20061,-2.17717 -1.25946,-3.4902c0.61308,-2.29705 2.11728,-3.41709 4.5121,-3.36002c0.91994,0.20071 1.68022,0.66405 2.28136,1.38962z" fill="#0a0807"/><path d="M305.13936,150.91757c0.34229,-0.04657 0.68484,-0.09317 1.02713,-0.13974c0.05824,0.42807 0.11644,0.85585 0.17468,1.28392c-0.34229,0.04657 -0.68485,0.09317 -1.02714,0.13974c-0.05824,-0.42807 -0.11643,-0.85585 -0.17467,-1.28392z" fill="#d9d8d7"/><path d="M323.66283,148.65902c0.34229,-0.04657 0.68484,-0.09317 1.02713,-0.13974c0.17423,0.54253 0.0612,0.9939 -0.33889,1.35379c-0.48169,-0.23995 -0.71122,-0.64469 -0.68824,-1.21405z" fill="#e8e8e8"/><path d="M307.67228,150.31142c0.70983,0.11919 1.11616,0.54332 1.21928,1.27259c0.00629,0.62683 -0.08904,1.20628 -0.28649,1.73897c-0.04168,-1.11188 -0.35269,-2.11573 -0.93279,-3.01155z" fill="#766b30"/><path d="M319.67133,148.1559c-0.80036,1.77986 -0.57912,3.40607 0.66377,4.87891c-0.49331,0.04776 -0.82792,-0.16825 -1.00356,-0.64809c-0.29938,-0.91834 -0.42745,-1.85971 -0.38428,-2.82465c0.06202,-0.59951 0.30349,-1.0681 0.72408,-1.4062z" fill="#958949"/><path d="M300.87882,152.28182c0.05885,1.31303 0.47863,2.47627 1.25946,3.4902c-0.45905,-0.15802 -0.80528,-0.45954 -1.0385,-0.90486c-0.3307,-0.87746 -0.40426,-1.73915 -0.22095,-2.58532z" fill="#7a7245"/><path d="M302.72171,156.2157c1.75631,0.76955 3.38278,0.54826 4.87891,-0.66377c-0.42247,0.9645 -1.18908,1.41767 -2.29971,1.35901c-0.94681,0.05925 -1.87467,-0.03239 -2.78358,-0.27515c0.12941,-0.11776 0.19743,-0.25779 0.20437,-0.42011z" fill="#c7b964"/></g><path d="M323.50614,163.85525c0,0 -4.46255,2.53557 -7.01023,2.88218c-2.20636,0.30018 -7.39968,-0.92174 -7.39968,-0.92174" fill="none" fill-rule="nonzero" stroke="#000000" stroke-linecap="round"/><g fill="#000000" fill-rule="nonzero" stroke="none" stroke-linecap="butt"><path d="M290.83251,145.57718c0.22743,-0.58425 0.40872,-0.70809 0.27531,-0.18808c-0.136,0.53012 -0.26133,1.10625 -0.25339,1.16464c0.00772,0.05667 0.03569,0.06082 1.16832,0.17279c0.84168,0.08326 1.25058,0.21102 1.95835,0.61201c0.99997,0.56652 1.25515,0.81312 1.215,1.17449c-0.02503,0.22477 -1.13563,1.51086 -1.37279,1.58964c-0.41057,0.13636 -0.54109,0.00789 -1.16212,-1.14403c-0.44236,-0.82061 -0.55587,-1.1783 -0.4466,-1.4075l0.07462,-0.15662l-0.77933,-0.1439c-0.42869,-0.07917 -0.79874,-0.11843 -0.82247,-0.08725c-0.04497,0.05913 -0.44055,1.56886 -0.63195,2.41189l-0.11085,0.48814l0.30731,0.41908c0.82702,1.12792 1.02953,1.42459 1.04377,1.5293c0.02096,0.15405 -0.40768,1.43369 -0.59628,1.78021c-0.17984,0.33036 -0.36222,0.45002 -0.58407,0.38325c-0.19244,-0.05786 -0.24398,-0.16661 -0.63955,-1.34876c-0.52234,-1.56114 -0.56608,-1.73389 -0.52132,-2.05686c0.03996,-0.28821 1.1434,-3.36653 1.27456,-3.55579c0.10733,-0.15481 -0.02845,-0.21413 -0.84563,-0.36928c-0.47862,-0.09093 -0.98897,-0.21286 -1.13408,-0.27103l-0.26386,-0.10582l0.35707,-0.01532c0.19638,-0.0084 0.70888,0.01538 1.13887,0.05294c0.43,0.03748 0.83041,0.06157 0.8897,0.0535c0.06556,-0.00892 0.13965,-0.10775 0.18864,-0.25162zM293.33288,148.58108c0.17348,0.33267 0.33474,0.60219 0.35842,0.59897c0.08076,-0.01099 0.54519,-0.57571 0.53501,-0.65062c-0.01128,-0.08295 -1.10776,-0.71754 -1.21467,-0.703c-0.03716,0.00506 -0.05102,0.04086 -0.03086,0.07951zM289.68646,151.25635c0.02623,0.19513 0.51845,1.41036 0.56852,1.40375c0.02486,-0.00331 0.08648,-0.13191 0.13695,-0.28579l0.09183,-0.27984l-0.28956,-0.46149c-0.30258,-0.48227 -0.42977,-0.62425 -0.48904,-0.54632z"/><path d="M289.42921,147.89566c0.17895,-0.40347 0.34031,-0.70335 0.35846,-0.66642c0.05599,0.11391 -1.28388,4.7468 -1.61902,5.59801c-0.11188,0.28407 -0.1116,0.29361 0.01342,0.4375l0.12774,0.14705l0.12885,-0.31909c0.07084,-0.17552 0.12653,-0.33583 0.12374,-0.35632c-0.0096,-0.07058 0.2906,-0.72894 0.33515,-0.73501c0.06667,-0.00907 0.08276,0.56621 0.03294,1.17787c-0.07529,0.92321 -0.15655,0.75591 1.10567,2.27483c1.02887,1.23824 2.66595,3.29325 2.98267,3.74423c0.2185,0.31113 -0.01408,0.24144 -0.34574,-0.10358c-0.16199,-0.16849 -0.5194,-0.53338 -0.79424,-0.81082c-0.27491,-0.27743 -1.1814,-1.22512 -2.01457,-2.10594c-0.83312,-0.88083 -1.67991,-1.76885 -1.88174,-1.97336c-0.79329,-0.80383 -0.8387,-1.01439 -0.42267,-1.96098c0.14719,-0.33485 0.55472,-1.28506 0.90576,-2.11157z"/><path d="M291.13627,147.9869c0.3262,-0.31624 0.53126,-0.08853 1.81591,2.01672c0.28939,0.47428 0.74723,1.19829 1.01736,1.60893c0.86458,1.31412 0.98914,1.51559 1.14222,1.84804c0.0826,0.17934 0.1447,0.32675 0.13815,0.32765c-0.06242,0.00849 -0.63733,-0.66099 -1.15828,-1.34877c-0.35268,-0.46568 -0.88631,-1.15226 -1.18579,-1.52578c-0.29948,-0.37352 -0.61341,-0.79023 -0.69754,-0.9261l-0.15295,-0.247l-0.05762,0.23095c-0.06266,0.25158 -0.21303,0.34971 -0.5077,0.33135l-0.17282,-0.01072l0.29453,0.58675c0.25027,0.49846 0.28729,0.61081 0.2464,0.74683c-0.06997,0.2324 -0.29656,0.24448 -0.51046,0.02714c-0.20325,-0.20648 -1.12481,-1.77019 -1.14927,-1.95004c-0.02356,-0.17316 0.12004,-0.36525 0.2903,-0.38841c0.07756,-0.01056 0.2527,0.01984 0.3891,0.06757c0.13639,0.04773 0.27592,0.08298 0.31001,0.07834c0.04052,-0.00552 0.02449,-0.24477 -0.04639,-0.69089z"/></g><g fill="#000000" fill-rule="nonzero" stroke="none" stroke-linecap="butt"><path d="M331.40085,150.35671c0.04495,-0.46885 0.158,-0.62486 0.2553,-0.35233c0.21961,0.61521 0.39395,1.29935 0.47705,1.87242c0.05075,0.34964 0.08575,0.44883 0.15529,0.43937c0.0582,-0.00791 0.08566,-0.09322 0.07816,-0.24241c-0.01369,-0.27146 0.1241,-0.42555 0.30652,-0.34285c0.08916,0.04039 0.13588,0.15182 0.18882,0.45034c0.03871,0.21819 0.05304,0.42858 0.03185,0.46754c-0.02119,0.03897 -0.1744,0.18512 -0.34047,0.32485l-0.30191,0.254l0.15965,0.12951c0.15634,0.12673 0.15965,0.14159 0.1566,0.70523c-0.00171,0.31668 0.01333,0.58826 0.0334,0.60359c0.02011,0.01524 0.13304,-0.05901 0.25105,-0.16507c0.23709,-0.21309 0.3514,-0.19039 0.29364,0.05831c-0.04593,0.19794 -0.39666,0.61365 -0.54251,0.64287c-0.05831,0.01169 -0.37186,0.06336 -0.69676,0.11473c-0.32489,0.05143 -0.65082,0.12462 -0.72423,0.1626c-0.0995,0.05153 -0.1367,0.0458 -0.146,-0.02257c-0.02043,-0.15017 0.23643,-0.46121 0.43845,-0.53102l0.18812,-0.06497l-0.1276,-0.61072c-0.11429,-0.54685 -0.11722,-0.62584 -0.02827,-0.75583c0.09786,-0.14298 0.09629,-0.147 -0.10772,-0.26926c-0.11391,-0.06827 -0.30429,-0.15527 -0.42295,-0.19323c-0.2301,-0.07363 -0.2488,-0.11478 -0.2977,-0.65541c-0.02586,-0.28625 0.05966,-0.54803 0.18463,-0.56503c0.12311,-0.01674 0.27372,0.18363 0.30371,0.40407c0.01807,0.13277 0.05711,0.25215 0.08678,0.26532c0.13413,0.05963 0.17187,-0.12058 0.13523,-0.64566zM331.75481,153.63858c-0.03086,0.08024 -0.03686,0.25513 -0.01337,0.38871c0.02349,0.1335 0.0269,0.27849 0.00748,0.32215c-0.05709,0.1284 0.18661,0.74605 0.28894,0.73213c0.07111,-0.00967 0.07254,-0.134 0.0071,-0.61499c-0.0451,-0.33153 -0.05805,-0.58447 -0.02884,-0.56202c0.02923,0.02244 0.06961,0.14322 0.08967,0.26837c0.1295,0.80852 0.14835,0.87924 0.23072,0.86804c0.15322,-0.02085 0.01652,-1.28616 -0.15891,-1.47107c-0.09536,-0.10048 -0.16159,-0.32636 -0.10848,-0.37005c0.02845,-0.02343 0.04769,-0.07248 0.04274,-0.1089c-0.00638,-0.04683 -0.02993,-0.04355 -0.08008,0.01097c-0.04498,0.04906 -0.10735,0.06072 -0.17034,0.03194c-0.14807,-0.0677 -0.21985,-0.04302 -0.12591,0.04324zM331.59623,150.96831c0.01514,-0.01373 0.03731,-0.02397 0.06277,-0.02744c0.0701,-0.00954 0.07626,-0.05948 0.02581,-0.20996c-0.0922,-0.27518 -0.10366,-0.27229 -0.14327,0.03563zM331.62116,151.06027l0.03657,0.13487c0.03331,-0.00453 0.07415,-0.03867 0.09068,-0.07586c0.01654,-0.03719 -0.01373,-0.06165 -0.06718,-0.05437c-0.02185,0.00297 -0.0427,0.00102 -0.06007,-0.00464zM331.57551,151.01576c0.00277,0.0203 0.02051,0.03632 0.04565,0.0445l-0.02493,-0.09196c-0.01492,0.01353 -0.02304,0.0304 -0.02073,0.04743z"/><path d="M332.92499,155.5196c0.23963,-0.21726 0.28718,-0.24176 0.3415,-0.17578c0.12725,0.15457 -0.27801,0.76955 -0.56999,0.86498c-0.12536,0.04092 -0.14023,0.14631 -0.12846,0.91264c0.00813,0.53213 -0.12493,0.49828 -0.29129,-0.07414c-0.07365,-0.2534 -0.14142,-0.51572 -0.15057,-0.58294c-0.02232,-0.16403 -0.10179,-0.14366 -0.15495,0.03957c-0.02369,0.08179 -0.09245,0.15155 -0.1528,0.15486c-0.06764,0.00374 -0.10365,0.05011 -0.09401,0.12095c0.00859,0.06317 -0.00764,0.19223 -0.03612,0.28682c-0.03922,0.13046 -0.09097,0.1727 -0.21438,0.17508c-0.15654,0.00301 -0.1651,-0.01316 -0.22882,-0.4325c-0.03906,-0.25708 -0.04069,-0.49379 -0.00394,-0.57754c0.11306,-0.25764 0.43148,-0.40946 0.97135,-0.46313z"/></g></g></g><path d="M285.20869,126.31917l7.27039,-3.75289l5.57266,-1.99378l12.25522,-1.75911l9.62149,0.9382l7.44454,2.58016l3.48284,3.04925l2.82984,6.80215l-1.30601,3.28381l-3.48296,-2.34549l-6.31268,-3.98757l-12.62534,-0.23455l-11.53693,2.58016l-10.86221,6.33305l-3.76582,-0.9382l-1.17543,-4.45666z" fill="#ffffff" fill-rule="nonzero" stroke="#000000" stroke-width="2.5" stroke-linecap="round"/><path d="M321.92261,192.65417c3.93193,0 7.49481,0.72049 10.0746,1.88445c2.58003,1.16395 4.17697,2.77151 4.17697,4.54539c0,1.774 -1.59694,3.38142 -4.17697,4.54538c-2.57978,1.16395 -6.14269,1.88445 -10.0746,1.88445c-3.93193,0 -7.49481,-0.72048 -10.0746,-1.88445c-2.58003,-1.16395 -4.17709,-2.77137 -4.17709,-4.54538c0,-1.77388 1.59706,-3.38143 4.17709,-4.54539c2.57978,-1.16395 6.14268,-1.88445 10.0746,-1.88445z" fill="#ff0000" fill-rule="nonzero" stroke="#000000" stroke-width="2.5" stroke-linecap="butt"/><path d="M311.72121,190.59266c6.15806,0.01379 11.76404,0.57661 17.82642,0.53805c2.07018,-0.01611 1.93094,-1.15431 1.87651,-0.87474c-0.18536,1.38423 3.32651,3.02887 -2.34561,4.13524c-3.09429,0.59796 -11.49665,-0.0648 -17.35732,-0.0576c-5.70544,-0.0072 -14.06364,0.63885 -17.35733,0.0576c-4.95664,-0.88767 -1.08318,-2.28655 -0.46909,-3.47918c0.1534,-0.2304 0.90586,0.05259 2.3456,0c5.02754,-0.15377 10.26046,-0.33132 15.48081,-0.31936z" fill="#ffffff" fill-rule="nonzero" stroke="#000000" stroke-width="2.5" stroke-linecap="round"/><path d="M300.50572,193.26434c3.93193,0 7.49482,0.72048 10.0746,1.88443c2.58003,1.16395 4.17697,2.77151 4.17697,4.54539c0,1.774 -1.59694,3.38143 -4.17697,4.54539c-2.57978,1.16395 -6.14268,1.88445 -10.0746,1.88445c-3.93193,0 -7.49481,-0.72048 -10.0746,-1.88444c-2.58003,-1.16395 -4.17709,-2.77138 -4.17709,-4.54539c0,-1.77388 1.59706,-3.38143 4.17709,-4.54539c2.57978,-1.16395 6.14269,-1.88443 10.07461,-1.88443z" fill="#ff0000" fill-rule="nonzero" stroke="#000000" stroke-width="2.5" stroke-linecap="butt"/><path d="M266.44517,170.53815c9.91156,4.14792 13.00024,21.12278 23.79655,21.66095c20.93486,1.04339 39.64992,-20.72007 60.40661,-17.69486c10.23008,1.49125 13.3993,18.22328 11.89828,28.67789c-1.33871,9.32825 -9.85177,18.67235 -18.9152,21.05079c-26.67409,6.99741 -55.14453,6.48121 -82.67774,4.88135c-7.2549,-0.42102 -14.91982,-4.81667 -19.52537,-10.67794c-3.92094,-5.3585 -4.58725,-13.1723 -3.66101,-19.83045c1.21424,-8.73516 4.11497,-18.15616 10.37163,-24.37011c4.39077,-4.35415 12.62193,-6.20418 18.30625,-3.6976z" fill="#cc0000" fill-rule="nonzero" stroke="#000000" stroke-width="2.5" stroke-linecap="round"/><g fill-rule="nonzero" stroke="#000000" stroke-width="2.5"><g fill="none" stroke-linecap="round"><path d="M362.54661,214.77531h-130.27083"/><path d="M345.15682,215.38548l0.61018,16.77961h-99.15227l-0.30509,-17.38978"/></g><path d="M246.64523,226.97867c0.63091,0 1.20325,0.24895 1.61695,0.65288c0.41491,0.4027 0.67118,0.95919 0.67118,1.57424c0,0.61505 -0.25627,1.17152 -0.67118,1.57423c-0.4137,0.40393 -0.98603,0.65289 -1.61695,0.65289c-0.63091,0 -1.20325,-0.24895 -1.61695,-0.65289c-0.41491,-0.4027 -0.67118,-0.95917 -0.67118,-1.57423c0,-0.61505 0.25627,-1.17152 0.67118,-1.57424c0.4137,-0.40393 0.98603,-0.65288 1.61695,-0.65288z" fill="url(#color-23)" stroke-linecap="butt"/><path d="M255.98079,229.72443c0.63091,0 1.20325,0.24895 1.61695,0.65288c0.41491,0.4027 0.67118,0.95918 0.67118,1.57423c0,0.61505 -0.25627,1.17152 -0.67118,1.57423c-0.4137,0.40393 -0.98603,0.65289 -1.61695,0.65289c-0.63091,0 -1.20325,-0.24895 -1.61694,-0.65289c-0.41491,-0.4027 -0.67119,-0.95917 -0.67119,-1.57423c0,-0.61505 0.25628,-1.17153 0.67119,-1.57423c0.4137,-0.40393 0.98603,-0.65288 1.61694,-0.65288z" fill="url(#color-24)" stroke-linecap="butt"/><path d="M268.91635,229.66341c0.63091,0 1.20326,0.24895 1.61695,0.65288c0.41491,0.4027 0.67118,0.95917 0.67118,1.57423c0,0.61505 -0.25626,1.17153 -0.67118,1.57424c-0.41369,0.40393 -0.98603,0.65288 -1.61695,0.65288c-0.63091,0 -1.20325,-0.24895 -1.61694,-0.65288c-0.41491,-0.4027 -0.67118,-0.95919 -0.67118,-1.57424c0,-0.61505 0.25627,-1.17152 0.67118,-1.57423c0.41369,-0.40393 0.98603,-0.65288 1.61694,-0.65288z" fill="url(#color-25)" stroke-linecap="butt"/><path d="M280.93667,229.72443c0.63091,0 1.20324,0.24895 1.61694,0.65288c0.41491,0.4027 0.67118,0.95918 0.67118,1.57423c0,0.61505 -0.25627,1.17152 -0.67118,1.57423c-0.41369,0.40393 -0.98602,0.65289 -1.61694,0.65289c-0.63091,0 -1.20325,-0.24895 -1.61695,-0.65289c-0.41491,-0.4027 -0.67118,-0.95917 -0.67118,-1.57423c0,-0.61505 0.25627,-1.17153 0.67118,-1.57423c0.41369,-0.40393 0.98603,-0.65288 1.61695,-0.65288z" fill="url(#color-26)" stroke-linecap="butt"/><path d="M292.52985,229.66341c0.63091,0 1.20325,0.24895 1.61695,0.65288c0.41491,0.4027 0.67118,0.95917 0.67118,1.57423c0,0.61505 -0.25627,1.17153 -0.67118,1.57424c-0.41369,0.40393 -0.98603,0.65288 -1.61695,0.65288c-0.63091,0 -1.20326,-0.24895 -1.61695,-0.65288c-0.41491,-0.4027 -0.67118,-0.95919 -0.67118,-1.57424c0,-0.61505 0.25627,-1.17152 0.67118,-1.57423c0.41369,-0.40393 0.98603,-0.65288 1.61695,-0.65288z" fill="url(#color-27)" stroke-linecap="butt"/><path d="M246.21811,219.59564c0.63091,0 1.20325,0.24895 1.61694,0.65289c0.41491,0.4027 0.67119,0.95917 0.67119,1.57423c0,0.61505 -0.25628,1.17153 -0.67119,1.57424c-0.4137,0.40393 -0.98603,0.65287 -1.61694,0.65287c-0.63091,0 -1.20325,-0.24895 -1.61695,-0.65287c-0.41491,-0.4027 -0.67118,-0.95919 -0.67118,-1.57424c0,-0.61505 0.25627,-1.17152 0.67118,-1.57423c0.4137,-0.40393 0.98603,-0.65289 1.61695,-0.65289z" fill="url(#color-28)" stroke-linecap="butt"/><path d="M246.46218,212.63972c0.63091,0 1.20325,0.24895 1.61695,0.65288c0.41491,0.4027 0.67118,0.95919 0.67118,1.57424c0,0.61505 -0.25627,1.17152 -0.67118,1.57423c-0.4137,0.40393 -0.98603,0.65288 -1.61695,0.65288c-0.63091,0 -1.20325,-0.24895 -1.61695,-0.65288c-0.41491,-0.4027 -0.67118,-0.95918 -0.67118,-1.57423c0,-0.61505 0.25626,-1.17152 0.67118,-1.57424c0.4137,-0.40393 0.98603,-0.65288 1.61695,-0.65288z" fill="url(#color-29)" stroke-linecap="butt"/><path d="M255.79774,212.33465c0.63091,0 1.20325,0.24895 1.61695,0.65288c0.41491,0.4027 0.67118,0.95919 0.67118,1.57424c0,0.61505 -0.25627,1.17152 -0.67118,1.57423c-0.4137,0.40393 -0.98603,0.65289 -1.61695,0.65289c-0.63091,0 -1.20325,-0.24895 -1.61695,-0.65289c-0.41491,-0.4027 -0.67118,-0.95917 -0.67118,-1.57423c0,-0.61505 0.25626,-1.17153 0.67118,-1.57424c0.4137,-0.40393 0.98603,-0.65288 1.61695,-0.65288z" fill="url(#color-30)" stroke-linecap="butt"/><path d="M265.37738,212.33465c0.63091,0 1.20325,0.24895 1.61695,0.65288c0.41491,0.4027 0.67119,0.95919 0.67119,1.57424c0,0.61505 -0.25628,1.17152 -0.67119,1.57423c-0.4137,0.40393 -0.98603,0.65289 -1.61695,0.65289c-0.63091,0 -1.20325,-0.24895 -1.61694,-0.65289c-0.41491,-0.4027 -0.67119,-0.95917 -0.67119,-1.57423c0,-0.61505 0.25628,-1.17153 0.67119,-1.57424c0.4137,-0.40393 0.98603,-0.65288 1.61694,-0.65288z" fill="url(#color-31)" stroke-linecap="butt"/><path d="M275.93329,212.5177c0.63091,0 1.20325,0.24895 1.61695,0.65289c0.41491,0.4027 0.67118,0.95917 0.67118,1.57422c0,0.61505 -0.25626,1.17153 -0.67118,1.57424c-0.41369,0.40393 -0.98603,0.65287 -1.61695,0.65287c-0.63091,0 -1.20325,-0.24895 -1.61695,-0.65287c-0.41491,-0.4027 -0.67118,-0.95919 -0.67118,-1.57424c0,-0.61505 0.25627,-1.17151 0.67118,-1.57422c0.41369,-0.40393 0.98603,-0.65289 1.61695,-0.65289z" fill="url(#color-32)" stroke-linecap="butt"/><path d="M287.40444,212.02956c0.63091,0 1.20324,0.24895 1.61694,0.65288c0.41491,0.4027 0.67118,0.95919 0.67118,1.57424c0,0.61505 -0.25627,1.17152 -0.67118,1.57423c-0.41369,0.40393 -0.98602,0.65289 -1.61694,0.65289c-0.63091,0 -1.20325,-0.24895 -1.61695,-0.65289c-0.41491,-0.4027 -0.67118,-0.95917 -0.67118,-1.57423c0,-0.61505 0.25627,-1.17152 0.67118,-1.57424c0.41369,-0.40393 0.98603,-0.65288 1.61695,-0.65288z" fill="url(#color-33)" stroke-linecap="butt"/><path d="M299.11967,212.21261c0.63091,0 1.20325,0.24895 1.61695,0.65288c0.41491,0.4027 0.67118,0.95919 0.67118,1.57424c0,0.61505 -0.25627,1.17152 -0.67118,1.57423c-0.41369,0.40393 -0.98603,0.65288 -1.61695,0.65288c-0.63091,0 -1.20325,-0.24895 -1.61695,-0.65288c-0.41491,-0.4027 -0.67118,-0.95918 -0.67118,-1.57423c0,-0.61505 0.25627,-1.17152 0.67118,-1.57424c0.41369,-0.40393 0.98603,-0.65288 1.61695,-0.65288z" fill="url(#color-34)" stroke-linecap="butt"/><path d="M309.91963,212.1516c0.63091,0 1.20325,0.24895 1.61695,0.65288c0.41491,0.4027 0.67118,0.95919 0.67118,1.57424c0,0.61505 -0.25627,1.17152 -0.67118,1.57423c-0.41369,0.40393 -0.98603,0.65287 -1.61695,0.65287c-0.63091,0 -1.20325,-0.24895 -1.61695,-0.65287c-0.41491,-0.4027 -0.67118,-0.95917 -0.67118,-1.57423c0,-0.61505 0.25627,-1.17153 0.67118,-1.57424c0.41369,-0.40393 0.98603,-0.65288 1.61695,-0.65288z" fill="url(#color-35)" stroke-linecap="butt"/><path d="M304.18405,229.54138c0.63091,0 1.20325,0.24895 1.61695,0.65287c0.41491,0.4027 0.67118,0.95917 0.67118,1.57423c0,0.61505 -0.25627,1.17153 -0.67118,1.57424c-0.41369,0.40393 -0.98603,0.65288 -1.61695,0.65288c-0.63091,0 -1.20325,-0.24895 -1.61694,-0.65288c-0.41491,-0.4027 -0.67118,-0.95919 -0.67118,-1.57424c0,-0.61505 0.25627,-1.17152 0.67118,-1.57423c0.41369,-0.40393 0.98603,-0.65287 1.61694,-0.65287z" fill="url(#color-36)" stroke-linecap="butt"/><path d="M316.57046,230.02951c0.63091,0 1.20325,0.24895 1.61694,0.65288c0.41491,0.4027 0.67118,0.95918 0.67118,1.57423c0,0.61505 -0.25627,1.17152 -0.67118,1.57423c-0.41369,0.40393 -0.98603,0.65288 -1.61694,0.65288c-0.63091,0 -1.20326,-0.24895 -1.61695,-0.65288c-0.41491,-0.4027 -0.67118,-0.95917 -0.67118,-1.57423c0,-0.61505 0.25627,-1.17153 0.67118,-1.57423c0.41369,-0.40393 0.98603,-0.65288 1.61695,-0.65288z" fill="url(#color-37)" stroke-linecap="butt"/><path d="M325.47891,229.72443c0.63091,0 1.20325,0.24895 1.61695,0.65288c0.41491,0.4027 0.67118,0.95918 0.67118,1.57423c0,0.61505 -0.25627,1.17152 -0.67118,1.57423c-0.41369,0.40393 -0.98603,0.65289 -1.61695,0.65289c-0.63091,0 -1.20325,-0.24895 -1.61695,-0.65289c-0.41491,-0.4027 -0.67118,-0.95917 -0.67118,-1.57423c0,-0.61505 0.25627,-1.17153 0.67118,-1.57423c0.41369,-0.40393 0.98603,-0.65288 1.61695,-0.65288z" fill="url(#color-38)" stroke-linecap="butt"/><path d="M319.92638,212.33465c0.63091,0 1.20325,0.24895 1.61694,0.65288c0.41491,0.4027 0.67118,0.95919 0.67118,1.57424c0,0.61505 -0.25627,1.17152 -0.67118,1.57423c-0.41369,0.40393 -0.98603,0.65289 -1.61694,0.65289c-0.63091,0 -1.20325,-0.24895 -1.61694,-0.65289c-0.41491,-0.4027 -0.67118,-0.95917 -0.67118,-1.57423c0,-0.61505 0.25627,-1.17153 0.67118,-1.57424c0.41369,-0.40393 0.98603,-0.65288 1.61694,-0.65288z" fill="url(#color-39)" stroke-linecap="butt"/><path d="M334.32635,229.66341c0.63091,0 1.20325,0.24895 1.61694,0.65288c0.41491,0.4027 0.67118,0.95917 0.67118,1.57423c0,0.61505 -0.25627,1.17153 -0.67118,1.57424c-0.41369,0.40393 -0.98603,0.65288 -1.61694,0.65288c-0.63091,0 -1.20325,-0.24895 -1.61694,-0.65288c-0.41491,-0.4027 -0.67118,-0.95919 -0.67118,-1.57424c0,-0.61505 0.25627,-1.17152 0.67118,-1.57423c0.41369,-0.40393 0.98603,-0.65288 1.61694,-0.65288z" fill="url(#color-40)" stroke-linecap="butt"/><path d="M329.01789,212.5177c0.63091,0 1.20325,0.24895 1.61694,0.65289c0.41491,0.4027 0.67118,0.95917 0.67118,1.57422c0,0.61505 -0.25627,1.17153 -0.67118,1.57424c-0.41369,0.40393 -0.98603,0.65287 -1.61694,0.65287c-0.63091,0 -1.20326,-0.24895 -1.61695,-0.65287c-0.41491,-0.4027 -0.67118,-0.95919 -0.67118,-1.57424c0,-0.61505 0.25627,-1.17151 0.67118,-1.57422c0.41369,-0.40393 0.98603,-0.65289 1.61695,-0.65289z" fill="url(#color-41)" stroke-linecap="butt"/><path d="M340.30599,212.5177c0.63091,0 1.20325,0.24895 1.61694,0.65289c0.41491,0.4027 0.67118,0.95917 0.67118,1.57422c0,0.61505 -0.25628,1.17153 -0.67118,1.57424c-0.41369,0.40393 -0.98603,0.65287 -1.61694,0.65287c-0.63091,0 -1.20325,-0.24895 -1.61695,-0.65287c-0.41491,-0.4027 -0.67118,-0.95919 -0.67118,-1.57424c0,-0.61505 0.25627,-1.17151 0.67118,-1.57422c0.41369,-0.40393 0.98603,-0.65289 1.61695,-0.65289z" fill="url(#color-42)" stroke-linecap="butt"/><path d="M345.49242,229.41935c0.63091,0 1.20326,0.24895 1.61695,0.65288c0.41491,0.4027 0.67118,0.95919 0.67118,1.57424c0,0.61505 -0.25627,1.17152 -0.67118,1.57423c-0.41369,0.40393 -0.98603,0.65289 -1.61695,0.65289c-0.63091,0 -1.20325,-0.24895 -1.61695,-0.65289c-0.41491,-0.4027 -0.67118,-0.95917 -0.67118,-1.57423c0,-0.61505 0.25627,-1.17152 0.67118,-1.57424c0.41369,-0.40393 0.98603,-0.65288 1.61695,-0.65288z" fill="url(#color-43)" stroke-linecap="butt"/><path d="M345.24835,217.82616c0.63091,0 1.20326,0.24895 1.61695,0.65289c0.41491,0.4027 0.67118,0.95917 0.67118,1.57423c0,0.61505 -0.25627,1.17153 -0.67118,1.57424c-0.41369,0.40393 -0.98603,0.65287 -1.61695,0.65287c-0.63091,0 -1.20325,-0.24895 -1.61694,-0.65287c-0.41491,-0.4027 -0.67118,-0.95919 -0.67118,-1.57424c0,-0.61505 0.25627,-1.17152 0.67118,-1.57423c0.41369,-0.40393 0.98603,-0.65289 1.61694,-0.65289z" fill="url(#color-44)" stroke-linecap="butt"/></g></g></g></g></svg>