<svg version="1.1" xmlns="http://www.w3.org/2000/svg" xmlns:xlink="http://www.w3.org/1999/xlink" width="384" height="343" viewBox="0,0,384,343"><g transform="translate(-48,-8.50001)"><g data-paper-data="{&quot;isPaintingLayer&quot;:true}" fill-rule="nonzero" stroke-linejoin="miter" stroke-miterlimit="10" stroke-dasharray="" stroke-dashoffset="0" style="mix-blend-mode: normal"><path d="M48,351.50001v-343h384v343z" fill="none" stroke="#ffb5d8" stroke-width="0" stroke-linecap="butt"/><g><path d="M296.84795,211.53444c1.34903,19.96791 1.05687,19.77379 -56.97435,19.92396c-58.60105,0.15165 -57.29849,-2.53302 -56.97435,-19.92396c0.34117,-18.30409 -4.38461,-20.1087 56.97435,-19.92396c61.89917,0.18636 55.7167,1.3086 56.97435,19.92396z" fill="#ffeb6e" stroke="#ff0000" stroke-width="4.5" stroke-linecap="butt"/><g fill="none" stroke="#ad8069" stroke-width="5" stroke-linecap="round"><path d="M231.75677,220.07936c0,0 -1.08595,-0.58363 -1.16127,-1.45476c-0.25074,-2.90009 -1.62824,-18.83251 -1.62824,-18.83251"/><g><path d="M210.05941,219.80163c-0.05305,-2.58695 0.05535,-8.74662 0.12669,-11.58575c0.01056,-0.42021 0.21941,-8.40245 0.21941,-8.40245"/><path d="M210.68297,199.85892c0,0 5.06328,-1.25885 8.55744,0.411c2.06113,0.985 3.64791,3.74101 3.48354,7.39583c-0.18848,4.19079 -2.12893,4.8536 -4.21473,5.59319c-3.43629,1.21845 -7.61999,0.52763 -7.61999,0.52763"/></g><g><path d="M257.63881,224.34183c0,0 6.39959,-8.97485 8.96433,-12.23907c1.83712,-2.33814 3.46162,-4.24433 3.46162,-4.24433"/><path d="M256.37086,207.85844c0,0 1.47042,0.96323 3.12902,2.62184c1.54557,1.54557 4.98588,4.4787 4.98588,4.4787"/></g><path d="M248.85887,218.07485c0,0 -3.29573,1.12102 -5.81388,1.21897c-2.93659,0.11425 -5.13556,-2.3547 -4.73282,-2.19055c0.41422,0.16884 -3.96656,-3.9127 2.55524,-7.78916c1.18635,-0.70515 2.33567,-0.79907 4.29821,-1.53839c1.72201,-0.6487 3.84345,1.40521 4.17925,4.04765c0.45123,3.55078 -0.35607,8.42942 -0.35607,8.42942"/></g></g></g></g></svg>