<svg version="1.1" xmlns="http://www.w3.org/2000/svg" xmlns:xlink="http://www.w3.org/1999/xlink" width="410.60264" height="393.53147" viewBox="0,0,410.60264,393.53147"><g transform="translate(-30.39398,14.9522)"><g data-paper-data="{&quot;isPaintingLayer&quot;:true}" fill-rule="nonzero" stroke-linejoin="miter" stroke-miterlimit="10" stroke-dasharray="" stroke-dashoffset="0" style="mix-blend-mode: normal"><g fill="none"><path d="M314.02522,74.21791c0,0 -82.2599,-3.58483 -119.32598,-4.41855c-37.52928,-0.8441 -61.48493,15.67878 -61.48493,15.67878c0,0 -7.79269,-14.5975 -9.92042,-23.98337c-2.36247,-10.42152 -3.62404,-35.76464 -3.62404,-35.76464c0,0 77.57556,-14.47678 127.52024,-10.05516c48.34079,4.27966 125.84693,51.88362 125.84693,51.88362l21.19705,35.98329z" data-paper-data="{&quot;index&quot;:null}" stroke="#674c3f" stroke-width="0" stroke-linecap="butt"/><path d="M114.3708,58.37137c0,0 10.31809,0.72915 13.52602,10.39182c3.36183,10.12629 -6.01786,34.48835 -6.01786,34.48835" data-paper-data="{&quot;index&quot;:null}" stroke="#000000" stroke-width="15" stroke-linecap="round"/><path d="M126.43453,21.29148c0,0 65.41608,-9.44252 126.1798,-2.77526c43.04288,4.72282 72.26108,21.58408 92.27388,32.06672c15.5524,8.14633 32.74722,23.52111 45.72971,40.87839c14.6652,19.60693 28.50484,50.86485 28.50484,50.86485" data-paper-data="{&quot;index&quot;:null}" stroke="#000000" stroke-width="15" stroke-linecap="round"/></g><path d="M57.39691,233.33341c-0.77733,-25.15319 12.15018,-47.08655 12.59521,-48.24287c12.9541,-33.66079 48.02838,-65.61032 152.8051,-71.55431c4.61337,-0.26169 73.0598,-0.25297 115.02877,13.32295c48.73338,15.76404 73.73532,41.91595 88.20851,69.69367c6.30786,8.1348 11.192,44.86339 4.00374,79.34752c-3.09032,14.82497 -32.84857,94.22825 -176.14925,95.1789c-54.6593,0.4212 -126.34019,-19.73736 -162.5726,-55.64593c-27.6531,-27.4059 -33.56069,-70.48943 -33.91947,-82.09993z" data-paper-data="{&quot;index&quot;:null}" fill="none" stroke="#000000" stroke-width="15" stroke-linecap="butt"/><path d="M246.68743,142.84639c61.07993,0 135.65187,33.09302 133.96008,97.0951c-0.79867,30.21371 -14.59163,44.3453 -34.99079,52.44179c-25.98068,10.31181 -62.67717,9.86523 -96.89239,9.86523c-61.07993,0 -129.77539,-33.08871 -128.2486,-75.28764c2.37234,-65.56998 65.09177,-84.11447 126.1717,-84.11447z" data-paper-data="{&quot;index&quot;:null}" fill="none" stroke="#000000" stroke-width="15" stroke-linecap="butt"/><path d="M79.12549,167.51581c0,0 6.87921,-11.5837 23.91483,-33.76318c2.1499,-2.79904 5.4933,-8.05983 8.48819,-12.13626c5.67378,-7.72275 12.08232,-21.47884 13.75941,-22.87965c27.15906,-22.68552 73.38276,-22.25793 98.95444,-24.30337c43.95583,-3.51598 97.47527,2.81545 119.42796,10.56145c8.86639,3.12849 22.44807,7.88371 33.86526,13.42607c15.13084,7.34511 30.40172,21.4765 39.42741,38.65309c15.54306,29.57974 16.53363,95.345 16.53363,95.345" data-paper-data="{&quot;index&quot;:null}" fill="none" stroke="#000000" stroke-width="15" stroke-linecap="round"/><path d="M77.4849,-7.4522c9.6499,0 18.56894,1.67595 27.24042,7.49413c10.11809,6.78876 15.81201,19.0243 15.81201,30.79872c0,21.86545 -23.44089,40.02359 -44.3505,40.02359c-20.90961,0 -38.29285,-16.86007 -38.29285,-38.72552c0,-21.86545 18.6813,-39.59092 39.59092,-39.59092z" data-paper-data="{&quot;index&quot;:null}" fill="none" stroke="#000000" stroke-width="15" stroke-linecap="butt"/><path d="M202.4925,237.04047c-8.0293,0 -14.5383,-6.50906 -14.5383,-14.5383c0,-8.02925 6.50901,-14.5383 14.5383,-14.5383c8.0293,0 14.5383,6.50906 14.5383,14.5383c0,8.0293 -6.50901,14.5383 -14.5383,14.5383z" data-paper-data="{&quot;index&quot;:null}" fill="#000000" stroke="none" stroke-width="0" stroke-linecap="butt"/><path d="M307.17721,238.60017c-8.0293,0 -14.5383,-6.50901 -14.5383,-14.5383c0,-8.0293 6.50901,-14.5383 14.5383,-14.5383c8.0293,0 14.5383,6.50901 14.5383,14.5383c0,8.0293 -6.50901,14.5383 -14.5383,14.5383z" data-paper-data="{&quot;index&quot;:null}" fill="#000000" stroke="none" stroke-width="0" stroke-linecap="butt"/></g></g></svg>