<svg version="1.1" xmlns="http://www.w3.org/2000/svg" xmlns:xlink="http://www.w3.org/1999/xlink" width="573.72075" height="190.96551" viewBox="0,0,573.72075,190.96551"><g transform="translate(60.65045,-210.86489)"><g data-paper-data="{&quot;isPaintingLayer&quot;:true}" fill-rule="nonzero" stroke-width="0" stroke-linecap="butt" stroke-linejoin="miter" stroke-miterlimit="10" stroke-dasharray="" stroke-dashoffset="0" style="mix-blend-mode: normal"><path d="M252.0757,401.83039c-172.48532,0 -312.31231,-31.2594 -312.31231,-69.81982c0,-28.59018 -8.97665,-72.32604 56.68491,-92.51437c22.89813,-7.04027 54.87318,-10.33848 99.47125,-10.33848c92.09106,0 136.18555,30.53569 224.46834,35.14473c24.05909,1.25607 84.91607,-13.95567 140.12874,-25.52791c12.65743,-2.65292 24.20501,-2.3981 34.29555,-3.17271c-0.26417,5.55849 -13.2923,10.85482 -13.31218,16.4207c-0.0037,1.03507 0.38195,2.09977 0.67723,3.16632c-2.18054,14.15235 -2.46558,28.06905 -0.52345,42.03192c-0.61581,5.05382 1.83257,11.82792 1.84622,15.94535c0.03513,10.59579 0.13886,21.1926 0,31.78753c-0.02123,1.61961 -1.06231,3.16139 -1.06231,4.78038c0,5.89396 0.31804,10.6945 3.33323,15.18002c-63.37535,27.60755 -158.541,36.91634 -233.69522,36.91634z" fill="#ffffff" stroke="none"/><path d="M513.07029,269.38172c-0.15144,1.6004 -0.29647,3.20042 -0.42832,4.79991c-0.25537,-0.20607 -0.51766,-0.404 -0.78594,-0.5945c0.3464,-1.41024 0.76063,-2.82258 1.21427,-4.20541z" fill="#d5eaff" stroke="none"/><path d="" fill="#d5eaff" stroke="none"/><path d="M74.32671,228.69578c1.29346,-5.32676 5.69303,-17.72276 7.07294,-17.83001c1.57344,-0.12229 6.55576,12.44501 7.81132,17.87909c0.08748,0.37862 0.3427,1.18129 -0.3073,1.45985c-2.71397,1.16307 -11.044,1.14006 -14.02306,0.09866c-0.85497,-0.29887 -0.66498,-1.15007 -0.55389,-1.6076z" fill="#ffffff" stroke="#674c3f"/><path d="M136.57227,230.95657c1.65697,-5.22512 6.89916,-17.28896 8.28317,-17.301c1.57813,-0.01372 5.68379,12.86666 6.56242,18.37426c0.06122,0.38374 0.2606,1.20207 -0.40704,1.43524c-2.78758,0.97355 -11.09627,0.37735 -13.99661,-0.86659c-0.83238,-0.357 -0.58427,-1.19311 -0.44195,-1.64191z" fill="#ffffff" stroke="#674c3f"/><path d="M204.14738,243.41881c2.15663,-5.03948 8.54575,-16.53713 9.92439,-16.41469c1.572,0.13962 4.40722,13.35787 4.74676,18.92477c0.02366,0.38787 0.14261,1.22169 -0.54452,1.38891c-2.86896,0.69819 -11.08046,-0.70218 -13.84626,-2.22194c-0.79377,-0.43616 -0.46562,-1.24422 -0.28038,-1.67707z" fill="#ffffff" stroke="#674c3f"/><path d="M302.85916,261.7161c1.73049,-5.20123 7.14229,-17.18995 8.52633,-17.18247c1.57816,0.00854 5.50178,12.94553 6.30265,18.46498c0.0558,0.38456 0.24362,1.20562 -0.42724,1.42935c-2.80103,0.93414 -11.10049,0.22083 -13.98299,-1.06389c-0.82726,-0.36871 -0.56738,-1.20123 -0.41875,-1.64797z" fill="#ffffff" stroke="#674c3f"/><path d="M386.16426,253.2584c0.42793,-5.46483 2.79552,-18.40358 4.14069,-18.7294c1.53383,-0.3715 8.4555,11.24104 10.56112,16.40554c0.14671,0.35983 0.52659,1.11156 -0.0707,1.49016c-2.49391,1.58077 -10.72111,2.88573 -13.82807,2.33246c-0.89167,-0.15879 -0.83979,-1.02938 -0.80304,-1.49876z" fill="#ffffff" stroke="#674c3f"/><path d="M449.71847,239.71182c0.42793,-5.46482 2.79552,-18.40358 4.14069,-18.7294c1.53384,-0.37151 8.4555,11.24104 10.56112,16.40554c0.14671,0.35984 0.52659,1.11156 -0.0707,1.49016c-2.49391,1.58077 -10.72111,2.88573 -13.82807,2.33246c-0.89168,-0.15879 -0.83979,-1.02938 -0.80303,-1.49876z" fill="#ffffff" stroke="#674c3f"/></g></g></svg>