<svg version="1.1" xmlns="http://www.w3.org/2000/svg" xmlns:xlink="http://www.w3.org/1999/xlink" width="151" height="136" viewBox="0,0,151,136"><g transform="translate(-164.5,-112)"><g data-paper-data="{&quot;isPaintingLayer&quot;:true}" fill="none" fill-rule="nonzero" stroke-linecap="butt" stroke-linejoin="miter" stroke-miterlimit="10" stroke-dasharray="" stroke-dashoffset="0" style="mix-blend-mode: normal"><path d="M231.96667,172.43433c0,-2.05625 0.96279,-3.55728 2.50255,-4.85717c1.40524,-1.18632 3.29103,-2.26388 5.36412,-2.26388c1.85362,0 3.5575,0.75617 4.90201,1.72708c1.80683,1.30477 2.96465,3.13906 2.96465,5.39397c0,1.81893 -0.36489,4.00605 -1.60459,5.26468c-1.44074,1.46275 -3.92682,1.85636 -6.26207,1.85636c-2.38533,0 -4.32844,-1.13684 -5.77111,-2.65449c-1.18502,-1.24661 -2.09556,-2.69294 -2.09556,-4.46655z" stroke="#674c3f" stroke-width="5"/><path d="M232.3,187.56568c0,-2.05625 0.96279,-3.55728 2.50256,-4.85717c1.40523,-1.18632 3.29102,-2.26387 5.36411,-2.26387c1.85362,0 3.5575,0.75617 4.90201,1.72707c1.80683,1.30477 2.96465,3.13906 2.96465,5.39397c0,1.81893 -0.36489,4.00605 -1.60459,5.26468c-1.44074,1.46275 -3.92681,1.85636 -6.26207,1.85636c-2.38532,0 -4.32844,-1.13685 -5.77111,-2.65449c-1.18501,-1.24661 -2.09556,-2.69294 -2.09556,-4.46654z" stroke="#674c3f" stroke-width="5"/><path d="M164.5,248v-136h151v136z" stroke="none" stroke-width="0"/></g></g></svg>