<svg version="1.1" xmlns="http://www.w3.org/2000/svg" xmlns:xlink="http://www.w3.org/1999/xlink" width="277.43716" height="76.47008" viewBox="0,0,277.43716,76.47008"><g transform="translate(-106.51199,-250.88398)"><g data-paper-data="{&quot;isPaintingLayer&quot;:true}" fill-rule="nonzero" stroke="#674c3f" stroke-width="2.5" stroke-linecap="butt" stroke-linejoin="miter" stroke-miterlimit="10" stroke-dasharray="" stroke-dashoffset="0" style="mix-blend-mode: normal"><path d="M363.36477,296.0015c-0.066,-0.30277 -0.0335,-38.73901 0,-38.81164c0.20378,-0.44187 16.2906,-0.71895 16.40801,0c0.17804,1.0902 0.17407,38.39574 0,38.81164c-0.09405,0.22472 -16.11797,1.33052 -16.40801,0z" fill="#dfc1a8"/><path d="M379.2168,283.58641c-1.35204,-0.08111 -3.07802,-0.23904 -4.89918,-0.28605c-1.7504,-0.04518 -3.58874,0.02637 -5.26751,-0.32437c-2.24781,-0.46962 -3.45481,-1.19203 -4.91933,-1.80258c-1.4671,-0.61164 -3.18974,-1.11103 -3.20982,-1.13162c-0.01882,-0.0193 0.10602,-5.70611 0.05399,-6.50029c-0.2822,-4.30747 -0.00371,4.16554 -0.32827,-5.2626c-0.16905,-4.9106 -0.10555,-8.49163 -0.05118,-8.63456c0.03454,-0.09079 -0.42255,-3.14959 2.13283,-5.07578c1.62507,-1.22495 6.01916,-1.6579 7.53678,-1.6541c1.75905,0.00441 6.15528,-1.60634 8.41096,-0.21252c3.13898,1.93963 3.96158,7.07207 4.02308,7.12931c0.03044,0.02833 -0.40701,8.08879 -0.32885,13.71175c0.00784,0.56411 0.33487,8.16908 0.32885,8.18093c-0.07216,0.14209 -1.45061,1.98436 -3.48236,1.86248z" data-paper-data="{&quot;index&quot;:null}" fill="#ffffff"/><path d="M110.44958,297.43739c-0.066,-0.30277 -0.0335,-38.73901 0,-38.81164c0.20378,-0.44187 16.2906,-0.71895 16.40801,0c0.17804,1.0902 -0.15927,67.06241 -0.33334,67.47831c-0.09405,0.22472 -15.78463,-27.33615 -16.07467,-28.66667z" fill="#dfc1a8"/><path d="M126.30161,285.0223c-1.35204,-0.08111 -3.07802,-0.23904 -4.89918,-0.28605c-1.7504,-0.04518 -3.58874,0.02637 -5.26751,-0.32437c-2.24781,-0.46962 -3.45481,-1.19203 -4.91933,-1.80258c-1.4671,-0.61164 -3.18974,-1.11103 -3.20982,-1.13162c-0.01882,-0.0193 0.10602,-5.70611 0.05399,-6.50029c-0.2822,-4.30747 -0.00371,4.16554 -0.32827,-5.2626c-0.16905,-4.9106 -0.10555,-8.49163 -0.05118,-8.63456c0.03454,-0.09079 -0.42255,-3.14959 2.13283,-5.07578c1.62507,-1.22495 6.01916,-1.6579 7.53678,-1.6541c1.75905,0.00441 6.15528,-1.60634 8.41096,-0.21252c3.13898,1.93963 3.96158,7.07207 4.02308,7.12931c0.03044,0.02833 -0.40701,8.08879 -0.32885,13.71175c0.00784,0.56411 0.33487,8.16908 0.32885,8.18093c-0.07216,0.14209 -1.45061,1.98436 -3.48236,1.86248z" data-paper-data="{&quot;index&quot;:null}" fill="#ffffff"/><path d="M195.11625,303.10406c-0.066,-0.30277 -0.0335,-38.73901 0,-38.81164c0.20378,-0.44187 16.2906,-0.71895 16.40801,0c0.17804,1.0902 0.17407,38.39574 0,38.81164c-0.09405,0.22472 -16.11797,1.33052 -16.40801,0z" fill="#dfc1a8"/><path d="M210.96828,290.68897c-1.35204,-0.08111 -3.07802,-0.23904 -4.89918,-0.28605c-1.7504,-0.04518 -3.58874,0.02637 -5.26751,-0.32437c-2.24781,-0.46962 -3.45481,-1.19203 -4.91933,-1.80258c-1.4671,-0.61164 -3.18974,-1.11103 -3.20982,-1.13162c-0.01882,-0.0193 0.10602,-5.70611 0.05399,-6.50029c-0.2822,-4.30747 -0.00371,4.16554 -0.32827,-5.2626c-0.16905,-4.9106 -0.10555,-8.49163 -0.05118,-8.63456c0.03454,-0.09079 -0.42255,-3.14959 2.13283,-5.07578c1.62507,-1.22495 6.01916,-1.6579 7.53678,-1.6541c1.75905,0.00441 6.15528,-1.60634 8.41096,-0.21252c3.13898,1.93963 3.96158,7.07207 4.02308,7.12931c0.03044,0.02833 -0.40701,8.08879 -0.32885,13.71175c0.00784,0.56411 0.33487,8.16908 0.32885,8.18093c-0.07216,0.14209 -1.45061,1.98436 -3.48236,1.86248z" data-paper-data="{&quot;index&quot;:null}" fill="#ffffff"/></g></g></svg>