<svg version="1.1" xmlns="http://www.w3.org/2000/svg" xmlns:xlink="http://www.w3.org/1999/xlink" width="151" height="136" viewBox="0,0,151,136"><g transform="translate(-164.5,-112)"><g data-paper-data="{&quot;isPaintingLayer&quot;:true}" fill="none" fill-rule="nonzero" stroke-linejoin="miter" stroke-miterlimit="10" stroke-dasharray="" stroke-dashoffset="0" style="mix-blend-mode: normal"><path d="M232.1374,186.55167c0,-2.21959 0.96279,-3.83986 2.50256,-5.24301c1.40524,-1.28056 3.29102,-2.44371 5.36411,-2.44371c1.85362,0 3.5575,0.81624 4.90201,1.86427c1.80683,1.40841 2.96465,3.38842 2.96465,5.82245c0,1.96341 -0.36489,4.32428 -1.60459,5.68289c-1.44074,1.57895 -3.92681,2.00382 -6.26207,2.00382c-2.38532,0 -4.32844,-1.22715 -5.77111,-2.86536c-1.18501,-1.34563 -2.09556,-2.90686 -2.09556,-4.82135z" stroke="#674c3f" stroke-width="5" stroke-linecap="butt"/><path d="M232.12927,185.95554c0,0 0.39266,-6.86092 1.2709,-10.18625c0.89905,-3.40413 4.06244,-10.00767 4.06244,-10.00767" stroke="#674c3f" stroke-width="5" stroke-linecap="round"/><path d="M164.5,248v-136h151v136z" stroke="none" stroke-width="0" stroke-linecap="butt"/></g></g></svg>