<svg version="1.1" xmlns="http://www.w3.org/2000/svg" xmlns:xlink="http://www.w3.org/1999/xlink" width="193.69369" height="172.67267" viewBox="0,0,193.69369,172.67267"><g transform="translate(-143.15315,-93.66366)"><g data-paper-data="{&quot;isPaintingLayer&quot;:true}" fill-rule="nonzero" stroke-linejoin="miter" stroke-miterlimit="10" stroke-dasharray="" stroke-dashoffset="0" style="mix-blend-mode: normal"><path d="M268.09904,197.46105c0.07864,4.71881 1.84222,8.93443 0.28148,10.44595c-1.54471,1.496 -8.86831,0.82718 -13.91031,0.90258c-3.87624,0.05797 -9.02292,0.16819 -15.8043,0.15898c-11.22265,-0.01526 -18.09278,0.15042 -22.18774,0.10592c-2.67433,-0.02906 -4.16502,0.23615 -4.91146,-1.02504c-0.77843,-1.31527 -0.56835,-4.40404 -0.55144,-8.02722c0.01671,-3.58103 0.02952,-8.33803 0.03349,-14.36729c0.00604,-9.19318 0.28395,-15.47918 0.56661,-19.5506c0.19972,-2.87666 -0.37273,-5.22544 1.05827,-6.13536c1.00009,-0.63592 2.9043,-0.60654 4.98807,-0.66881c4.3455,-0.12985 10.95408,0.29391 20.62453,0.13212c9.07859,-0.15188 15.12429,-0.51329 19.2819,-0.41305c3.48187,0.08395 5.697,-1.07608 6.70651,0.28622c1.00059,1.35024 1.00485,4.91185 1.01086,8.5153c0.00593,3.56134 1.17337,8.48454 1.39349,14.52069c0,0 1.35518,11.22818 1.42003,15.11964z" fill="#ffb5d8" stroke="#674c3f" stroke-width="4" stroke-linecap="butt"/><path d="M266.50933,183.44267c0,0 -7.77346,0.00079 -16.74704,0.64277c-3.0029,0.21483 -7.70214,0.47274 -10.78505,0.73247c-7.00526,0.59016 -12.07803,0.99711 -15.57839,1.12168c-4.87059,0.17333 -11.18814,-0.95654 -11.18814,-0.95654" fill="none" stroke="#674c3f" stroke-width="4" stroke-linecap="round"/><path d="M238.20473,160.91451c0,0 0.00973,3.36908 0.25349,10.3821c0.2929,8.42671 1.22332,21.08908 1.35701,25.82587c0.13527,4.79267 0.12242,11.54401 0.12242,11.54401" fill="none" stroke="#674c3f" stroke-width="4" stroke-linecap="round"/><path d="M215.86912,179.20661c0,-1.48879 1.20689,-2.69568 2.69568,-2.69568c1.48879,0 2.69567,1.20689 2.69567,2.69568c0,1.48879 -1.20689,2.69568 -2.69567,2.69568c-1.48879,0 -2.69568,-1.20689 -2.69568,-2.69568z" fill="#ffffff" stroke="none" stroke-width="0" stroke-linecap="butt"/><path d="M216.24511,168.02968c0,-1.48879 1.20689,-2.69568 2.69568,-2.69568c1.48879,0 2.69567,1.20689 2.69567,2.69568c0,1.48879 -1.20689,2.69568 -2.69567,2.69568c-1.48879,0 -2.69568,-1.20689 -2.69568,-2.69568z" fill="#ffffff" stroke="none" stroke-width="0" stroke-linecap="butt"/><path d="M227.21124,169.36841c0,-1.48879 1.20689,-2.69568 2.69568,-2.69568c1.48879,0 2.69568,1.20689 2.69568,2.69568c0,1.48879 -1.20689,2.69568 -2.69568,2.69568c-1.48879,0 -2.69568,-1.20689 -2.69568,-2.69568z" fill="#ffffff" stroke="none" stroke-width="0" stroke-linecap="butt"/><path d="M257.98173,179.27459c-1.45997,0.2915 -2.87981,-0.65572 -3.17131,-2.11569c-0.2915,-1.45997 0.65572,-2.87981 2.11569,-3.17131c1.45997,-0.2915 2.87981,0.65572 3.17131,2.11569c0.2915,1.45997 -0.65572,2.87981 -2.11569,3.17131z" data-paper-data="{&quot;index&quot;:null}" fill="#ffffff" stroke="none" stroke-width="0" stroke-linecap="butt"/><path d="M256.19479,168.19508c-1.45997,0.2915 -2.87981,-0.65572 -3.17131,-2.11569c-0.2915,-1.45997 0.65572,-2.87981 2.11569,-3.17131c1.45997,-0.2915 2.87981,0.65572 3.17131,2.11569c0.2915,1.45997 -0.65572,2.87981 -2.11568,3.17131z" data-paper-data="{&quot;index&quot;:null}" fill="#ffffff" stroke="none" stroke-width="0" stroke-linecap="butt"/><path d="M246.85833,172.2327c-1.45997,0.2915 -2.87981,-0.65572 -3.17131,-2.11569c-0.2915,-1.45997 0.65572,-2.87981 2.11569,-3.17131c1.45997,-0.2915 2.87981,0.65572 3.17131,2.11569c0.2915,1.45997 -0.65572,2.87981 -2.11568,3.17131z" data-paper-data="{&quot;index&quot;:null}" fill="#ffffff" stroke="none" stroke-width="0" stroke-linecap="butt"/><path d="M258.55771,191.69605c0.08642,1.48628 -1.04839,2.76118 -2.53467,2.8476c-1.48628,0.08642 -2.76118,-1.04839 -2.8476,-2.53467c-0.08642,-1.48628 1.04839,-2.76118 2.53467,-2.8476c1.48628,-0.08642 2.76118,1.04839 2.8476,2.53467z" data-paper-data="{&quot;index&quot;:null}" fill="#ffffff" stroke="none" stroke-width="0" stroke-linecap="butt"/><path d="M261.35789,200.55729c0.08642,1.48628 -1.04839,2.76118 -2.53467,2.8476c-1.48628,0.08642 -2.76118,-1.04839 -2.8476,-2.53467c-0.08642,-1.48628 1.04839,-2.76118 2.53467,-2.8476c1.48628,-0.08642 2.76118,1.04839 2.8476,2.53467z" data-paper-data="{&quot;index&quot;:null}" fill="#ffffff" stroke="none" stroke-width="0" stroke-linecap="butt"/><path d="M249.5717,199.0068c0.08642,1.48628 -1.04839,2.76118 -2.53466,2.8476c-1.48628,0.08642 -2.76118,-1.04839 -2.8476,-2.53467c-0.08642,-1.48628 1.04839,-2.76118 2.53467,-2.8476c1.48628,-0.08642 2.76118,1.04839 2.8476,2.53467z" data-paper-data="{&quot;index&quot;:null}" fill="#ffffff" stroke="none" stroke-width="0" stroke-linecap="butt"/><path d="M222.67878,190.11501c1.48628,0.08642 2.62109,1.36132 2.53467,2.8476c-0.08642,1.48628 -1.36132,2.62109 -2.8476,2.53467c-1.48628,-0.08642 -2.62109,-1.36132 -2.53467,-2.8476c0.08642,-1.48628 1.36132,-2.62109 2.8476,-2.53467z" data-paper-data="{&quot;index&quot;:null}" fill="#ffffff" stroke="none" stroke-width="0" stroke-linecap="butt"/><path d="M220.07115,198.97625c1.48628,0.08642 2.62109,1.36132 2.53467,2.8476c-0.08642,1.48628 -1.36132,2.62109 -2.8476,2.53467c-1.48628,-0.08642 -2.62108,-1.36132 -2.53466,-2.8476c0.08642,-1.48628 1.36132,-2.62109 2.84759,-2.53467z" data-paper-data="{&quot;index&quot;:null}" fill="#ffffff" stroke="none" stroke-width="0" stroke-linecap="butt"/><path d="M231.47224,198.96614c1.48628,0.08642 2.62108,1.36132 2.53467,2.8476c-0.08642,1.48628 -1.36132,2.62109 -2.8476,2.53467c-1.48628,-0.08642 -2.62108,-1.36132 -2.53466,-2.8476c0.08642,-1.48628 1.36132,-2.62109 2.8476,-2.53467z" data-paper-data="{&quot;index&quot;:null}" fill="#ffffff" stroke="none" stroke-width="0" stroke-linecap="butt"/><path d="M242.24825,174.0078l2.50312,0.3851" fill="none" stroke="#674c3f" stroke-width="4" stroke-linecap="round"/><g fill="#fff8aa" stroke="#674c3f" stroke-width="4" stroke-linecap="butt"><path d="M237.43453,180.93953c0,1.26242 -1.82579,2.94621 -3.68426,2.69223c-0.73481,-0.10043 -1.67853,-0.58252 -2.2731,-1.15724c-0.68844,-0.66546 -0.97438,-1.45507 -0.97438,-1.92009c0,-0.94821 -0.2988,-1.88415 -0.2411,-2.89101c0.08467,-1.47737 0.71487,-2.88544 2.35914,-2.88544c2.09807,0 3.7838,2.00824 4.47489,4.09202c0.21964,0.66228 0.33882,1.50529 0.33882,2.06953z"/><path d="M242.83803,181.11439c-0.85653,0.92738 -3.34022,2.08082 -4.53315,0.6333c-0.47167,-0.57233 -0.45273,-1.1817 -0.49957,-2.0073c-0.05423,-0.95595 -0.11363,-2.11512 0.20188,-2.45673c0.62652,-0.67833 0.9099,-2.12826 1.6145,-2.82038c1.08059,-1.06145 2.63125,-1.1215 3.86069,0.01402c2.03111,1.87594 0.94297,4.91847 -0.64437,6.63709z"/><path d="M243.32886,185.43856c-1.21522,-0.28987 -2.98571,-1.72163 -2.23782,-3.17987c0.29571,-0.57658 0.8472,-0.79688 1.56147,-1.15009c0.82706,-0.40899 1.83281,-1.09266 2.28044,-0.98588c0.78717,0.18777 1.91737,-0.23581 2.77215,-0.01847c1.59067,0.40445 2.7018,1.7982 2.21465,3.26579c-0.74891,2.25622 -4.33884,2.60573 -6.59089,2.06854z"/><path d="M240.74075,188.7856c-0.6306,-1.07849 -1.08614,-3.62584 0.48456,-4.09348c0.62105,-0.18489 1.16147,0.4464 1.91046,0.71836c0.86726,0.3149 1.91739,0.31705 2.14968,0.71431c0.37876,0.64777 1.25298,1.36899 1.66802,2.08269c0.86554,1.48836 1.02378,2.94399 -0.42807,3.6324c-2.14803,1.01853 -4.61602,-1.05563 -5.78466,-3.05429z"/><path d="M235.66428,188.4707c0.11553,-1.24434 1.26154,-3.58399 2.86903,-3.05438c0.63559,0.2094 0.94402,0.72332 1.41313,1.37915c0.28827,0.40301 1.18444,2.61272 1.05725,4.53578c-0.11247,1.70042 -1.15108,3.17672 -2.28958,2.98176c-2.42606,-0.41546 -3.26393,-3.5363 -3.04983,-5.84231z"/><path d="M231.97956,184.42303c0.99131,-0.76093 3.48645,-1.51034 4.19043,0.02879c0.27835,0.60856 0.11097,1.18409 -0.05129,1.97392c-0.08389,0.40836 0.07284,1.27592 -0.21394,2.15648c-0.3555,1.09151 -1.18587,2.20297 -1.55706,2.4845c-1.35483,1.02755 -3.68208,0.9434 -4.5811,-0.43588c-1.34405,-2.06203 0.37587,-4.79765 2.21297,-6.2078z"/></g><path d="M143.15315,266.33634v-172.67267h193.69369v172.67267z" fill="none" stroke="none" stroke-width="none" stroke-linecap="butt"/></g></g></svg>