<svg version="1.1" xmlns="http://www.w3.org/2000/svg" xmlns:xlink="http://www.w3.org/1999/xlink" width="74.49703" height="109.6527" viewBox="0,0,74.49703,109.6527"><g transform="translate(-205.88708,-123.42365)"><g data-paper-data="{&quot;isPaintingLayer&quot;:true}" fill-rule="nonzero" stroke-linejoin="miter" stroke-miterlimit="10" stroke-dasharray="" stroke-dashoffset="0" style="mix-blend-mode: normal"><path d="M230.33258,225.08217c-9.8886,-9.35408 0.94267,-37.39252 0.94267,-37.39252h34.87874c0,0 12.49631,27.28718 3.14223,36.13563c-9.35408,8.84845 -29.07504,10.61097 -38.96364,1.25689z" fill="#a5f8c7" stroke="#674c3f" stroke-width="3.5" stroke-linecap="butt"/><path d="M231.43262,146.68768c3.79705,-4.35791 5.65834,-8.98745 14.10073,-9.55792c0.48308,-0.03264 7.31718,-0.0352 12.67766,2.40069c2.91694,1.3255 5.39754,5.14248 6.18102,6.00134c2.21495,2.42803 6.46637,12.15258 9.83393,18.95154c3.04126,6.14018 4.86163,7.59104 4.31007,13.9927c-0.52686,6.58201 -0.51129,8.3441 -6.16746,14.31436c-4.55209,4.80487 -12.73239,7.68494 -23.06478,7.76659c-8.83807,0.08112 -19.17842,-1.80131 -25.03698,-8.71711c-2.12168,-2.50456 -6.19082,-8.69067 -5.44855,-13.79848c0.8947,-6.15675 2.84525,-7.93385 4.61612,-12.08928c3.14579,-7.38173 5.55241,-16.45732 7.99824,-19.26442z" data-paper-data="{&quot;index&quot;:null}" fill="#a5f8c7" stroke="#674c3f" stroke-width="3.5" stroke-linecap="butt"/><path d="" data-paper-data="{&quot;index&quot;:null}" fill="none" stroke="#ffbd9c" stroke-width="3.5" stroke-linecap="round"/><path d="M256.83295,175.62399c-1.5464,0 -2.8,-1.2536 -2.8,-2.8c0,-1.5464 1.2536,-2.8 2.8,-2.8c1.5464,0 2.8,1.2536 2.8,2.8c0,1.5464 -1.2536,2.8 -2.8,2.8z" data-paper-data="{&quot;index&quot;:null}" fill="#674c3f" stroke="none" stroke-width="0" stroke-linecap="butt"/><path d="M260.72518,161.61153c0.97671,0 1.7685,0.98497 1.7685,2.2c0,1.21503 -0.79178,2.2 -1.7685,2.2c-0.97671,0 -1.7685,-0.98497 -1.7685,-2.2c0,-1.21503 0.79178,-2.2 1.7685,-2.2z" data-paper-data="{&quot;index&quot;:null}" fill="none" stroke="#ffbd9c" stroke-width="0" stroke-linecap="butt"/><path d="M241.4817,175.3756c-1.5464,0 -2.8,-1.25361 -2.8,-2.8c0,-1.54639 1.2536,-2.8 2.8,-2.8c1.5464,0 2.8,1.25361 2.8,2.8c0,1.5464 -1.2536,2.8 -2.8,2.8z" data-paper-data="{&quot;index&quot;:null}" fill="#674c3f" stroke="none" stroke-width="0" stroke-linecap="butt"/><g stroke="#674c3f"><path d="M258.72554,142.70961c0,0 -14.65226,-0.84849 -21.25453,-1.04584c-6.68478,-0.19978 -10.95178,3.71101 -10.95178,3.71101c0,0 -1.38805,-3.45508 -1.76704,-5.67663c-0.42081,-2.46668 -0.64551,-8.46514 -0.64551,-8.46514c0,0 13.81787,-3.42651 22.71409,-2.37995c8.61054,1.01296 22.41606,12.28035 22.41606,12.28035l3.77565,8.5169z" data-paper-data="{&quot;index&quot;:null}" fill="#ffb6da" stroke-width="0" stroke-linecap="butt"/><path d="M223.16278,138.95888c0,0 1.83787,0.17258 2.40928,2.45964c0.59882,2.39679 0.35307,6.03285 0.35307,6.03285" data-paper-data="{&quot;index&quot;:null}" fill="none" stroke-width="3.5" stroke-linecap="round"/><path d="M225.3116,130.18244c0,0 11.65201,-2.23495 22.47534,-0.65688c7.66686,1.11785 12.87126,5.10875 16.43598,7.58988c2.77022,1.92816 5.83299,5.56722 8.14544,9.67552" data-paper-data="{&quot;index&quot;:null}" fill="none" stroke-width="3.5" stroke-linecap="round"/><path d="M265.19044,161.09376c0,0 -15.74225,-0.40105 -22.34355,-0.02524c-6.68381,0.38053 -15.32968,-1.98841 -15.32968,-1.98841c0,0 -4.19232,-2.55199 -3.73329,-4.42955c0.73779,-3.01779 3.93585,-8.74394 3.93585,-8.74394c0,0 14.11671,-3.42083 23.04144,-2.74452c4.5369,0.34381 14.74171,-0.44202 20.43893,3.40585c5.15008,3.47834 3.19498,10.18596 3.19498,10.18596z" data-paper-data="{&quot;index&quot;:null}" fill="#ffffff" stroke-width="0" stroke-linecap="butt"/><path d="M215.60099,125.17366c1.94112,0 3.73523,0.34141 5.47952,1.52659c2.03529,1.38291 3.18065,3.87535 3.18065,6.27385c0,4.4541 -4.71524,8.15301 -8.92131,8.15301c-4.20605,0 -7.70278,-3.43448 -7.70278,-7.88859c0,-4.4541 3.75782,-8.06487 7.9639,-8.06487z" data-paper-data="{&quot;index&quot;:null}" fill="#ffffff" stroke-width="3.5" stroke-linecap="butt"/><path d="M273.6824,149.05388c0,0.63887 2.82032,6.83817 -1.78777,9.63227c-4.91971,2.98307 -17.50952,2.54128 -24.96945,2.23889c-12.09187,-0.49016 -19.60005,-0.59928 -21.87363,-3.84781c-2.43215,-3.47514 0.85178,-10.11447 2.19711,-11.02585c4.60582,-3.12017 12.26462,-3.82341 19.35986,-3.82341c11.10507,0 27.07387,3.38388 27.07387,6.82591z" fill="none" stroke-width="3.5" stroke-linecap="butt"/></g><path d="M266.91089,180.45563c0,0 0.37689,5.50144 -5.78699,7.02555c-1.38043,0.34133 -2.9786,-0.27037 -4.8228,0.02847c-1.75827,0.28492 -3.5454,2.38183 -5.64216,2.98936c-1.49728,0.43384 -3.15245,-0.50778 -5.06774,-0.59784c-1.7984,-0.08457 -3.65561,0.49148 -5.27472,-0.10786c-1.54829,-0.57312 -2.87885,-2.3017 -3.73208,-3.25726c-0.8528,-0.95508 -1.75545,-2.02652 -2.15964,-3.08637c-1.12735,-2.95608 -0.50729,-5.82205 -0.50729,-5.82205" data-paper-data="{&quot;index&quot;:null}" fill="none" stroke="#674c3f" stroke-width="3.5" stroke-linecap="round"/></g></g></svg>