<svg version="1.1" xmlns="http://www.w3.org/2000/svg" xmlns:xlink="http://www.w3.org/1999/xlink" width="541.11182" height="194.20524" viewBox="0,0,541.11182,194.20524"><g transform="translate(60.65046,-195.12963)"><g data-paper-data="{&quot;isPaintingLayer&quot;:true}" fill-rule="nonzero" stroke-width="0" stroke-linecap="butt" stroke-linejoin="miter" stroke-miterlimit="10" stroke-dasharray="" stroke-dashoffset="0" style="mix-blend-mode: normal"><path d="" data-paper-data="{&quot;index&quot;:null}" fill="#87cbdc" stroke="none"/><path d="" data-paper-data="{&quot;index&quot;:null}" fill="#d5eaff" stroke="none"/><path d="" data-paper-data="{&quot;index&quot;:null}" fill="#d5eaff" stroke="none"/><path d="M10.11261,211.76108c10.4011,1.2315 30.65238,2.82659 46.14249,8.11001c15.26642,5.20712 25.83094,14.10194 28.25105,15.51371c14.03335,8.18633 22.2215,15.16232 46.34501,16.42215c89.17918,-4.60904 133.72138,-47.14473 226.74749,-47.14473c39.22613,0 94.05754,1.74235 122.8492,6.84024c-1.14944,5.23646 0.01351,11.91221 0.01351,16.64847c0,18.51852 0,37.03703 0,55.55555c0,22.58384 0,45.16768 0,67.75151c-52.38762,22.49448 -158.37901,37.87689 -280.60438,37.87689c-64.58601,0 -199.24131,-29.05332 -199.24131,-29.05332c0,-24.52452 -1.01015,-124.75005 -1.01015,-149.18103c5.11916,0.00676 5.72228,0.09401 10.50711,0.66054z" data-paper-data="{&quot;index&quot;:null}" fill="#70c1fe" stroke="none"/><path d="" data-paper-data="{&quot;index&quot;:null}" fill="#6ecfe6" stroke="none"/><path d="M-60.65046,256.88623c0.45364,1.38283 0.86787,2.79517 1.21427,4.20541c-0.26828,0.1905 -0.53057,0.38843 -0.78594,0.5945c-0.13185,-1.59949 -0.27688,-3.19951 -0.42832,-4.79991z" data-paper-data="{&quot;index&quot;:null}" fill="#6ecfe6" stroke="none"/><path d="" data-paper-data="{&quot;index&quot;:null}" fill="#6ecfe6" stroke="none"/><path d="M311.96385,208.19891c0.09713,0.22698 0.2692,0.6507 -0.14702,0.87941c-1.45031,0.79692 -5.75619,1.53123 -7.2606,1.16512c-0.36031,-0.08768 -0.29794,-0.52491 -0.28553,-0.72831c0.17804,-2.91913 1.66476,-9.85042 2.48908,-9.92364c0.72292,-0.0642 4.0732,5.96486 5.20408,8.60742z" data-paper-data="{&quot;index&quot;:null}" fill="#70c1fe" stroke="#674c3f"/><path d="M266.63051,220.53224c0.09713,0.22698 0.2692,0.6507 -0.14703,0.87941c-1.45031,0.79692 -5.75619,1.53123 -7.2606,1.16512c-0.36031,-0.08768 -0.29794,-0.52491 -0.28554,-0.72831c0.17804,-2.91913 1.66476,-9.85043 2.48908,-9.92364c0.72292,-0.0642 4.0732,5.96486 5.20408,8.60742z" data-paper-data="{&quot;index&quot;:null}" fill="#70c1fe" stroke="#674c3f"/><path d="M227.29718,232.86557c0.09714,0.22698 0.26921,0.6507 -0.14702,0.87941c-1.45031,0.79692 -5.7562,1.53123 -7.2606,1.16512c-0.36031,-0.08768 -0.29794,-0.52491 -0.28554,-0.7283c0.17804,-2.91913 1.66476,-9.85043 2.48908,-9.92364c0.72292,-0.0642 4.0732,5.96486 5.20408,8.60742z" data-paper-data="{&quot;index&quot;:null}" fill="#70c1fe" stroke="#674c3f"/><path d="M181.96385,245.19891c0.09714,0.22698 0.26921,0.6507 -0.14702,0.87941c-1.45031,0.79692 -5.7562,1.53123 -7.2606,1.16512c-0.36031,-0.08768 -0.29794,-0.52491 -0.28554,-0.72831c0.17804,-2.91913 1.66476,-9.85042 2.48908,-9.92364c0.72292,-0.0642 4.0732,5.96486 5.20408,8.60742z" data-paper-data="{&quot;index&quot;:null}" fill="#70c1fe" stroke="#674c3f"/><path d="M127.96295,253.09419c0.03301,0.24467 0.08571,0.69895 -0.37647,0.80824c-1.61043,0.38079 -5.95607,-0.06112 -7.30812,-0.81559c-0.32382,-0.18069 -0.14699,-0.58541 -0.08073,-0.77811c0.95092,-2.76564 4.23419,-9.04842 5.04813,-8.8989c0.71382,0.13113 2.33286,6.8358 2.71719,9.68437z" data-paper-data="{&quot;index&quot;:null}" fill="#70c1fe" stroke="#674c3f"/><path d="M95.7535,241.76712c-0.08701,0.23105 -0.25611,0.65596 -0.71483,0.53292c-1.59834,-0.42873 -5.21426,-2.87922 -6.0466,-4.18478c-0.19935,-0.31268 0.14831,-0.58507 0.29805,-0.72328c2.14907,-1.98356 8.0198,-5.95693 8.66541,-5.4392c0.56619,0.45406 -1.18907,7.12437 -2.20203,9.81434z" data-paper-data="{&quot;index&quot;:null}" fill="#70c1fe" stroke="#674c3f"/><path d="M68.00018,225.867c-0.03735,0.24404 -0.11494,0.69475 -0.58918,0.66921c-1.65245,-0.08897 -5.69692,-1.73883 -6.78123,-2.84406c-0.2597,-0.2647 0.02413,-0.60309 0.14205,-0.76927c1.69248,-2.38506 6.61474,-7.48648 7.35345,-7.11343c0.64783,0.32717 0.30976,7.21627 -0.12509,10.05756z" data-paper-data="{&quot;index&quot;:null}" fill="#70c1fe" stroke="#674c3f"/><path d="M42.98756,216.30148c-0.00103,0.24688 -0.01146,0.70409 -0.4843,0.74863c-1.64755,0.15516 -5.89077,-0.8816 -7.12591,-1.81525c-0.29582,-0.2236 -0.06488,-0.60007 0.0273,-0.78179c1.3231,-2.60815 5.4411,-8.37834 6.22666,-8.11805c0.68892,0.22828 1.36827,7.09213 1.35625,9.96648z" data-paper-data="{&quot;index&quot;:null}" fill="#70c1fe" stroke="#674c3f"/><path d="M367.55824,204.28831c0.06983,0.23681 0.19099,0.67779 -0.2492,0.85608c-1.5338,0.62123 -5.89611,0.84521 -7.34716,0.3051c-0.34753,-0.12936 -0.23429,-0.55625 -0.1981,-0.75678c0.51935,-2.87807 2.80913,-9.58703 3.63635,-9.56301c0.72546,0.02107 3.34513,6.40161 4.15811,9.15862z" data-paper-data="{&quot;index&quot;:null}" fill="#70c1fe" stroke="#674c3f"/><path d="M429.67987,207.39309c0.036,0.24425 0.09425,0.69785 -0.36657,0.81278c-1.60565,0.40045 -5.95637,0.01167 -7.31754,-0.72621c-0.32601,-0.17673 -0.15413,-0.58357 -0.09023,-0.77706c0.91706,-2.77705 4.12328,-9.0995 4.93899,-8.95994c0.71537,0.1224 2.41623,6.80678 2.83534,9.65044z" data-paper-data="{&quot;index&quot;:null}" fill="#70c1fe" stroke="#674c3f"/></g></g></svg>