<svg version="1.1" xmlns="http://www.w3.org/2000/svg" xmlns:xlink="http://www.w3.org/1999/xlink" width="151" height="136" viewBox="0,0,151,136"><g transform="translate(-164.5,-112)"><g data-paper-data="{&quot;isPaintingLayer&quot;:true}" fill="none" fill-rule="nonzero" stroke-linejoin="miter" stroke-miterlimit="10" stroke-dasharray="" stroke-dashoffset="0" style="mix-blend-mode: normal"><path d="M247.86261,173.28167c0,2.21959 -0.96279,3.83986 -2.50256,5.24301c-1.40524,1.28056 -3.29102,2.44371 -5.36412,2.44371c-1.85362,0 -3.5575,-0.81624 -4.90201,-1.86427c-1.80683,-1.40841 -2.96465,-3.38842 -2.96465,-5.82245c0,-1.96341 0.36489,-4.32428 1.60459,-5.68289c1.44074,-1.57894 3.92682,-2.00382 6.26207,-2.00382c2.38533,0 4.32844,1.22716 5.77111,2.86536c1.18502,1.34564 2.09557,2.90686 2.09557,4.82135z" data-paper-data="{&quot;index&quot;:null}" stroke="#674c3f" stroke-width="5" stroke-linecap="butt"/><path d="M247.87075,173.87779c0,0 -0.39266,5.86091 -1.27089,9.18625c-0.89905,3.40412 -2.06244,11.341 -2.06244,11.341" data-paper-data="{&quot;index&quot;:null}" stroke="#674c3f" stroke-width="5" stroke-linecap="round"/><path d="M164.5,248v-136h151v136z" stroke="none" stroke-width="0" stroke-linecap="butt"/></g></g></svg>