<svg version="1.1" xmlns="http://www.w3.org/2000/svg" xmlns:xlink="http://www.w3.org/1999/xlink" width="428.68088" height="132.54182" viewBox="0,0,428.68088,132.54182"><g transform="translate(-29.93883,-257.43141)"><g data-paper-data="{&quot;isPaintingLayer&quot;:true}" stroke-linecap="butt" stroke-linejoin="miter" stroke-miterlimit="10" stroke-dasharray="" stroke-dashoffset="0" style="mix-blend-mode: normal"><path d="M46.58451,385.72323c-0.31749,-0.44782 -0.16114,-57.29775 0,-57.40518c0.4888,-0.32587 22.72033,-54.40455 42.20592,-54.45682c19.59389,-0.05256 36.44186,53.92366 36.72505,54.45682c0.85646,1.61249 0.83738,56.79003 0,57.40518c-0.45243,0.33237 -77.53576,1.96793 -78.93097,0z" fill="#ffb6da" fill-rule="nonzero" stroke="#674c3f" stroke-width="2.5"/><path d="M125.07191,329.24437c-12.8874,-14.41241 -31.29003,-46.14139 -37.98936,-46.03006c-8.75218,0.14545 -28.21175,36.8522 -41.62022,49.80285c-1.47846,1.42798 -7.65514,1.00145 -10.8657,-1.95517c-3.21262,-2.95852 -3.45864,-8.44762 -3.40108,-8.52576c17.08689,-23.19631 40.97863,-61.87892 56.30638,-61.85482c16.12409,0.02535 44.7493,44.85312 53.28918,61.94865c0.1549,0.3101 -0.06339,5.46221 -3.42305,7.53831c-3.56327,2.20192 -10.33763,1.26628 -12.29615,-0.924z" fill="#ffffff" fill-rule="nonzero" stroke="#674c3f" stroke-width="2.5"/><path d="M183.72955,388.72323c-0.39804,-0.44782 -0.20202,-57.29775 0,-57.40518c1.22903,-0.65356 98.24884,-1.06338 98.95695,0c1.07376,1.61249 1.04984,56.79003 0,57.40518c-0.56722,0.33237 -97.20775,1.96793 -98.95695,0z" fill="#feeaca" fill-rule="nonzero" stroke="#674c3f" stroke-width="2.5"/><path d="M289.52385,327.42704c0.77141,1.64599 2.27496,5.54859 -2.51636,6.35375c-5.83811,0.98107 -15.72928,1.04253 -25.71648,1.08041c-10.95445,0.04154 -45.22252,1.14774 -53.89991,1.29195c-10.68288,0.17753 -21.94354,-1.13976 -28.11325,-1.7081c-6.15607,-0.56708 -0.33637,-8.75257 -0.22129,-8.90881c17.08689,-23.19631 40.97863,-61.87892 56.30638,-61.85482c16.12409,0.02535 44.7493,44.85312 53.28918,61.94865c0.3192,0.639 0.61035,1.23925 0.87173,1.79697z" fill="#ffffff" fill-rule="nonzero" stroke="#674c3f" stroke-width="2.5"/><path d="M350.72955,383.72323c-0.39804,-0.44782 -0.20202,-57.29775 0,-57.40518c1.22903,-0.65356 98.24884,-1.06338 98.95695,0c1.07376,1.61249 1.04984,56.79003 0,57.40518c-0.56722,0.33237 -97.20775,1.96793 -98.95695,0z" fill="#7cd7ff" fill-rule="nonzero" stroke="#674c3f" stroke-width="2.5"/><path d="M456.52385,322.42704c0.77141,1.64599 2.27496,5.54859 -2.51636,6.35375c-5.83811,0.98107 -15.72928,1.04253 -25.71648,1.08041c-10.95445,0.04154 -45.22252,1.14774 -53.89991,1.29195c-10.68288,0.17753 -21.94354,-1.13976 -28.11325,-1.7081c-6.15607,-0.56708 -0.33637,-8.75257 -0.22129,-8.90881c17.08689,-23.19631 40.97863,-61.87892 56.30638,-61.85482c16.12409,0.02535 44.7493,44.85312 53.28918,61.94865c0.3192,0.639 0.61035,1.23925 0.87173,1.79697z" fill="#ffffff" fill-rule="nonzero" stroke="#674c3f" stroke-width="2.5"/><g fill-rule="evenodd" stroke="none" stroke-width="1"><path d="M77.44821,313.2012c2.71886,1.00516 5.42293,2.0578 8.11229,3.1578c1.20476,-0.48619 2.42073,-0.90356 3.64781,-1.25223c-0.99373,0.47868 -1.97374,0.98686 -2.94002,1.52445c0.75036,0.29345 1.4944,0.60206 2.23224,0.92557c1.23132,-0.5317 2.48355,-1.02172 3.7567,-1.47001c0.04977,-0.04508 0.08613,-0.09953 0.10889,-0.16333c-0.5892,-0.91544 -0.44394,-1.00614 0.43556,-0.27222c0.21135,0.0809 0.41094,0.06271 0.59889,-0.05445c0.04965,0.13545 -0.00479,0.22616 -0.16334,0.27222c1.25202,0.82571 2.52244,1.6243 3.81115,2.39557c0.91326,0.70343 0.98589,1.46565 0.21778,2.28668c-0.48968,0.23096 -0.9615,0.1947 -1.41557,-0.10888c-1.11308,-1.38443 -2.20196,-2.78192 -3.26668,-4.19225c-0.94767,0.58234 -1.89131,1.16305 -2.83114,1.74223c1.38899,0.60357 2.76819,1.23873 4.13781,1.90557c1.35742,0.95899 2.35562,2.21121 2.99447,3.75669c0.58071,1.16153 1.16152,2.32294 1.74223,3.48447c0.34518,1.1049 0.00044,1.88532 -1.03445,2.34113c-1.76761,0.41465 -3.54621,0.77769 -5.33559,1.08889c-0.90292,0.15299 -1.81029,0.18925 -2.72224,0.10889c-0.24053,-0.20396 -0.44013,-0.43991 -0.5989,-0.70778c-0.07263,-0.54444 -0.07263,-1.0889 0,-1.63335c0.45451,-1.92691 0.92632,-3.85067 1.41557,-5.77116c0.15135,-0.48423 0.38722,-0.91979 0.70778,-1.30667c-1.08976,-0.79947 -2.25129,-1.48906 -3.48447,-2.0689c-3.07014,1.56225 -6.10088,3.19558 -9.09229,4.90004c-0.01317,1.7124 -0.12206,3.41827 -0.32667,5.11782c-0.02701,0.66161 -0.22659,1.26051 -0.59889,1.79668c-2.20131,1.00995 -4.41537,1.98996 -6.64228,2.94002c-1.82542,0.49763 -2.49684,-0.1739 -2.01445,-2.01445c1.29992,-2.56369 2.57034,-5.14068 3.81114,-7.73117c0.46997,-0.61414 1.06887,-1.06777 1.79668,-1.36112c3.89574,-1.45792 7.77952,-2.94612 11.6512,-4.46447c-0.45363,-0.31763 -0.92546,-0.60804 -1.41557,-0.87112c-0.22355,-0.03539 -0.44133,0.00098 -0.65334,0.10889c-6.17045,3.01265 -12.3408,6.02519 -18.51125,9.03785c1.99399,-0.54412 3.99038,-1.10664 5.98893,-1.68779c-0.00664,0.2278 -0.11553,0.39113 -0.32667,0.49c-2.35061,1.60177 -4.69173,3.21693 -7.02338,4.8456c-1.17013,8.42676 -2.38611,16.84752 -3.64781,25.26241c-0.03629,-0.21778 -0.07259,-0.43556 -0.10888,-0.65335c0.31994,-8.82268 0.70103,-17.64274 1.14334,-26.46019c-0.14744,-1.86593 0.59671,-3.22705 2.23224,-4.08337c6.65414,-2.43793 13.29641,-4.90602 19.92682,-7.40449c-2.06891,-1.1796 -4.13781,-2.35931 -6.20672,-3.53891c-0.08689,-0.04976 -0.12315,-0.12239 -0.10889,-0.21778z" fill="#000000"/><path d="M102.71062,319.08124c-5.91597,-6.96469 -13.39299,-9.59623 -22.43127,-7.8945c-6.80059,1.82891 -11.71882,5.91228 -14.75456,12.25009c-0.09115,0.16409 -0.21821,0.21855 -0.38111,0.16334c2.90136,-6.2776 7.65625,-10.41541 14.26454,-12.41343c8.31351,-1.97352 15.55468,-0.03168 21.72349,5.8256c0.47181,0.54444 0.94374,1.0889 1.41557,1.63335c0.08613,0.13557 0.14058,0.28071 0.16334,0.43555z" fill="#000000"/><path d="M95.85057,314.39899c0.44503,-0.02243 0.82615,0.12272 1.14334,0.43556c0.56895,1.1992 1.0045,2.43336 1.30667,3.70225c-1.01627,-0.87111 -2.03265,-1.74224 -3.04891,-2.61336c-0.31338,-0.71562 -0.11368,-1.2237 0.59889,-1.52446z" fill="#000000"/><path d="M102.71062,319.08124c0.58953,-0.28758 1.2066,-0.52354 1.85113,-0.70778c2.11954,-0.39549 4.22481,-0.84923 6.3156,-1.36112c0.03626,0.03626 0.07263,0.07262 0.10888,0.10888c-1.66732,0.97914 -3.37329,1.90471 -5.11781,2.7767c1.74223,0.65334 3.48448,1.30667 5.2267,1.96001c0.47933,0.64625 0.57004,1.35405 0.27222,2.12335c-1.66275,5.3957 -3.29609,10.80393 -4.90003,16.22456c-0.16366,0.36424 -0.43588,0.58202 -0.81668,0.65334c-0.46332,-0.08634 -0.69929,-0.37676 -0.70778,-0.87112c-0.22627,-2.4278 -0.33516,-4.85964 -0.32667,-7.2956c0.41432,1.60165 0.81362,3.19874 1.19778,4.79114c1.26421,-4.52469 2.48019,-9.06179 3.64781,-13.61121c-0.05194,-0.10649 -0.12446,-0.1972 -0.21778,-0.27222c-2.04082,-0.57113 -4.00082,-1.33336 -5.88003,-2.28669c-0.49545,-0.31392 -0.87656,-0.7313 -1.14334,-1.25223c-0.06784,-0.44514 0.09549,-0.77181 0.49,-0.98z" fill="#000000"/><path d="M99.44393,319.95237c0.78879,0.6248 1.53284,1.31451 2.23224,2.0689c1.52445,1.59708 3.04891,3.19406 4.57336,4.79115c0.2928,0.47584 0.4924,0.98404 0.59889,1.52446c-0.03823,0.92807 -0.51015,1.30919 -1.41557,1.14334c-0.3773,-0.26819 -0.72205,-0.57668 -1.03446,-0.92557c-1.65403,-2.87338 -3.30557,-5.74088 -4.95448,-8.60229z" fill="#000000"/><path d="M87.90162,320.82348c0.80393,-0.07927 1.36646,0.2474 1.6878,0.98001c0.07263,0.54444 0.07263,1.0889 0,1.63335c-2.85367,9.73104 -5.72107,19.45848 -8.60229,29.18244c1.52478,-8.45888 3.17632,-16.89783 4.95449,-25.31685c-0.37284,0.03931 -0.73588,0.14819 -1.0889,0.32667c-0.84672,0.13459 -1.48189,-0.17401 -1.90557,-0.92557c-0.70876,1.19964 -1.3621,2.43368 -1.96001,3.70225c-0.30849,0.45375 -0.68959,0.83486 -1.14334,1.14334c-0.47889,0.15004 -0.86002,0.02308 -1.14334,-0.38112c-0.16824,-0.49511 -0.2046,-1.0032 -0.10889,-1.52446c0.98001,-2.17779 1.96001,-4.35559 2.94002,-6.53338c0.54619,-1.00854 1.3266,-1.24439 2.34113,-0.70778c0.39407,0.44362 0.77518,0.89736 1.14334,1.36112c0.69537,-0.70245 1.31245,-1.46468 1.85113,-2.28668c0.34627,-0.23543 0.69101,-0.45319 1.03445,-0.65334z" fill="#000000"/><path d="M95.19723,352.07482c1.74006,-6.8509 3.50048,-13.71096 5.28116,-20.58015c0.28028,-0.86589 0.31654,-1.73701 0.10888,-2.61336c-1.14172,-2.17453 -2.19434,-4.38858 -3.1578,-6.64227c-0.1139,-0.79478 0.19459,-1.06701 0.92557,-0.81667c1.33597,1.60122 2.55193,3.28901 3.6478,5.06337c0.77769,1.35317 1.03184,2.805 0.76223,4.35559c-2.54922,7.68412 -5.16257,15.34266 -7.84006,22.97572c-0.01818,-0.07263 -0.03626,-0.14514 -0.05444,-0.21777c0.14373,-0.50231 0.25262,-1.01039 0.32667,-1.52445z" fill="#000000"/><path d="M104.67063,322.23905c0.10846,-0.00937 0.19915,0.02701 0.27222,0.10889c0.84357,1.58718 1.42428,3.25689 1.74224,5.00892c-0.55152,-1.75595 -1.22305,-3.46182 -2.01446,-5.11782z" fill="#000000"/><path d="M93.01944,323.76351c0.34322,-0.05891 0.61544,0.04998 0.81667,0.32667c0.60488,1.01006 1.16751,2.04451 1.68779,3.10336c-0.01579,0.08407 -0.05205,0.1567 -0.10889,0.21778c-1.16664,0.17444 -2.32817,0.37403 -3.48447,0.59889c0.17292,-1.20954 0.40889,-2.40734 0.70778,-3.59336c0.06141,-0.25992 0.18839,-0.47769 0.38112,-0.65334z" fill="#ffb6da"/><path d="M75.37931,325.28797c0.14471,0.59454 0.21735,1.22969 0.21778,1.90557c-0.01818,0.63515 -0.03626,1.27042 -0.05444,1.90557c-0.87689,0.45635 -1.78427,0.85555 -2.72225,1.19779c-0.05444,-0.03626 -0.10888,-0.07263 -0.16333,-0.10889c0.70114,-1.36591 1.37267,-2.74522 2.01445,-4.13781c0.18446,-0.3112 0.42043,-0.56525 0.70778,-0.76223z" fill="#ffb6da"/><path d="M106.30398,330.51467c0.25404,0 0.50819,0 0.76223,0c0.03092,-0.20852 -0.00534,-0.38994 -0.10889,-0.54445c-0.01786,-0.29259 0.00034,-0.58299 0.05445,-0.87111c0.26721,0.59802 0.32166,1.21499 0.16333,1.85113c-1.38062,0.41096 -2.77799,0.62873 -4.19225,0.65333c-0.07448,-0.13981 -0.0563,-0.26689 0.05444,-0.38111c1.06473,-0.34082 2.15362,-0.57679 3.2667,-0.70778z" fill="#000000"/><path d="M106.95732,329.97022c0.10356,0.15452 0.13982,0.33592 0.10889,0.54444c-0.25404,0 -0.50819,0 -0.76223,0c0.19219,-0.10464 0.40997,-0.14102 0.65333,-0.10889c0,-0.14515 0,-0.2904 0,-0.43555z" fill="#000000"/><path d="M107.0662,331.168c0.25851,0.207 0.27669,0.46115 0.05444,0.76223c-0.05411,-0.25153 -0.07219,-0.50557 -0.05444,-0.76223z" fill="#000000"/><path d="M97.15725,331.60356c0.70255,-0.0453 1.39216,0.00914 2.06891,0.16334c0.10432,0.1249 0.06806,0.23379 -0.10889,0.32667c-0.2904,0.10888 -0.58071,0.21777 -0.87112,0.32667c-3.61057,0.68546 -7.24029,1.19365 -10.88897,1.52445c-0.14515,-0.14515 -0.14515,-0.2904 0,-0.43555c0.37545,-0.20983 0.77475,-0.3551 1.19779,-0.43556c2.8748,-0.53954 5.7423,-1.02955 8.60229,-1.47001z" fill="#000000"/><path d="M82.02158,333.67246c0.65432,-0.01808 1.30766,0.00011 1.96001,0.05444c0.14319,0.1519 0.10682,0.26079 -0.10889,0.32667c-1.65044,0.62012 -3.35641,1.01943 -5.11782,1.19779c-4.76926,0.7362 -9.56041,1.24428 -14.37344,1.52445c-0.15626,-0.24685 -0.11999,-0.46463 0.10889,-0.65334c0.24914,-0.08951 0.50329,-0.16213 0.76223,-0.21778c5.59944,-0.78248 11.18907,-1.52653 16.76901,-2.23224z" fill="#000000"/><path d="M105.21508,341.18585c0.18784,0.03735 0.24228,0.14624 0.16333,0.32667c-2.02775,4.38695 -5.14917,7.76253 -9.36451,10.12674c-0.05521,-0.1629 -0.00076,-0.28998 0.16334,-0.38112c4.14522,-2.3481 7.15776,-5.7056 9.03785,-10.07229z" fill="#000000"/><path d="M95.19723,352.07482c-7.8895,3.5938 -15.43924,2.99491 -22.64905,-1.79668c-4.44411,-3.27476 -7.32969,-7.61216 -8.65673,-13.01232c-0.14145,-0.61185 -0.17771,-1.22893 -0.10889,-1.85112c1.43168,8.07646 5.87797,13.79317 13.33899,17.15013c6.08867,2.28266 12.07761,2.04669 17.9668,-0.70778c0.08689,0.04976 0.12315,0.12239 0.10888,0.21778z" fill="#000000"/></g><g fill-rule="evenodd" stroke="none" stroke-width="1"><path d="M226.44821,341.2012c2.71886,1.00516 5.42293,2.0578 8.11229,3.1578c1.20476,-0.48619 2.42073,-0.90356 3.64781,-1.25223c-0.99373,0.47868 -1.97374,0.98686 -2.94002,1.52445c0.75036,0.29345 1.4944,0.60206 2.23224,0.92557c1.23132,-0.5317 2.48355,-1.02172 3.7567,-1.47001c0.04977,-0.04508 0.08613,-0.09953 0.10889,-0.16333c-0.5892,-0.91544 -0.44394,-1.00614 0.43556,-0.27222c0.21135,0.0809 0.41094,0.06271 0.59889,-0.05445c0.04965,0.13545 -0.00479,0.22616 -0.16334,0.27222c1.25202,0.82571 2.52244,1.6243 3.81115,2.39557c0.91326,0.70343 0.98589,1.46565 0.21778,2.28668c-0.48968,0.23096 -0.9615,0.1947 -1.41557,-0.10888c-1.11308,-1.38443 -2.20196,-2.78192 -3.26668,-4.19225c-0.94767,0.58234 -1.89131,1.16305 -2.83114,1.74223c1.38899,0.60357 2.76819,1.23873 4.13781,1.90557c1.35742,0.95899 2.35562,2.21121 2.99447,3.75669c0.58071,1.16153 1.16152,2.32294 1.74223,3.48447c0.34518,1.1049 0.00044,1.88532 -1.03445,2.34113c-1.76761,0.41465 -3.54621,0.77769 -5.33559,1.08889c-0.90292,0.15299 -1.81029,0.18925 -2.72224,0.10889c-0.24053,-0.20396 -0.44013,-0.43991 -0.5989,-0.70778c-0.07263,-0.54444 -0.07263,-1.0889 0,-1.63335c0.45451,-1.92691 0.92632,-3.85067 1.41557,-5.77116c0.15135,-0.48423 0.38722,-0.91979 0.70778,-1.30667c-1.08976,-0.79947 -2.25129,-1.48906 -3.48447,-2.0689c-3.07014,1.56225 -6.10088,3.19558 -9.09229,4.90004c-0.01317,1.7124 -0.12206,3.41827 -0.32667,5.11782c-0.02701,0.66161 -0.22659,1.26051 -0.59889,1.79668c-2.20131,1.00995 -4.41537,1.98996 -6.64228,2.94002c-1.82542,0.49763 -2.49684,-0.1739 -2.01445,-2.01445c1.29992,-2.56369 2.57034,-5.14068 3.81114,-7.73117c0.46997,-0.61414 1.06887,-1.06777 1.79668,-1.36112c3.89574,-1.45792 7.77952,-2.94612 11.6512,-4.46447c-0.45363,-0.31763 -0.92546,-0.60804 -1.41557,-0.87112c-0.22355,-0.03539 -0.44133,0.00098 -0.65334,0.10889c-6.17045,3.01265 -12.3408,6.02519 -18.51125,9.03785c1.99399,-0.54412 3.99038,-1.10664 5.98893,-1.68779c-0.00664,0.2278 -0.11553,0.39113 -0.32667,0.49c-2.35061,1.60177 -4.69173,3.21693 -7.02338,4.8456c-1.17013,8.42676 -2.38611,16.84752 -3.64781,25.26241c-0.03629,-0.21778 -0.07259,-0.43556 -0.10888,-0.65335c0.31994,-8.82268 0.70103,-17.64274 1.14334,-26.46019c-0.14744,-1.86593 0.59671,-3.22705 2.23224,-4.08337c6.65414,-2.43793 13.29641,-4.90602 19.92682,-7.40449c-2.06891,-1.1796 -4.13781,-2.35931 -6.20672,-3.53891c-0.08689,-0.04976 -0.12315,-0.12239 -0.10889,-0.21778z" fill="#000000"/><path d="M251.71062,347.08125c-5.91597,-6.96469 -13.39299,-9.59623 -22.43127,-7.8945c-6.80059,1.82891 -11.71882,5.91228 -14.75456,12.25009c-0.09115,0.16409 -0.21821,0.21855 -0.38111,0.16334c2.90136,-6.2776 7.65625,-10.41541 14.26454,-12.41343c8.31351,-1.97352 15.55468,-0.03168 21.72349,5.8256c0.47181,0.54444 0.94374,1.0889 1.41557,1.63335c0.08613,0.13557 0.14058,0.28071 0.16334,0.43555z" fill="#000000"/><path d="M244.85057,342.39899c0.44503,-0.02243 0.82615,0.12272 1.14334,0.43556c0.56895,1.1992 1.0045,2.43336 1.30667,3.70225c-1.01627,-0.87111 -2.03265,-1.74224 -3.04891,-2.61336c-0.31338,-0.71562 -0.11368,-1.2237 0.59889,-1.52446z" fill="#000000"/><path d="M251.71062,347.08125c0.58953,-0.28758 1.2066,-0.52354 1.85113,-0.70778c2.11954,-0.39549 4.22481,-0.84923 6.3156,-1.36112c0.03626,0.03626 0.07263,0.07262 0.10888,0.10888c-1.66732,0.97914 -3.37329,1.90471 -5.11781,2.7767c1.74223,0.65334 3.48448,1.30667 5.2267,1.96001c0.47933,0.64625 0.57004,1.35405 0.27222,2.12335c-1.66275,5.3957 -3.29609,10.80393 -4.90003,16.22456c-0.16366,0.36424 -0.43588,0.58202 -0.81668,0.65334c-0.46332,-0.08634 -0.69929,-0.37676 -0.70778,-0.87112c-0.22627,-2.4278 -0.33516,-4.85964 -0.32667,-7.2956c0.41432,1.60165 0.81362,3.19874 1.19778,4.79114c1.26421,-4.52469 2.48019,-9.06179 3.64781,-13.61121c-0.05194,-0.10649 -0.12446,-0.1972 -0.21778,-0.27222c-2.04082,-0.57113 -4.00082,-1.33336 -5.88003,-2.28669c-0.49545,-0.31392 -0.87656,-0.7313 -1.14334,-1.25223c-0.06784,-0.44514 0.09549,-0.77181 0.49,-0.98z" fill="#000000"/><path d="M248.44393,347.95237c0.78879,0.6248 1.53284,1.31451 2.23224,2.0689c1.52445,1.59708 3.04891,3.19406 4.57336,4.79115c0.2928,0.47584 0.4924,0.98404 0.59889,1.52446c-0.03823,0.92807 -0.51015,1.30919 -1.41557,1.14334c-0.3773,-0.26819 -0.72205,-0.57668 -1.03446,-0.92557c-1.65403,-2.87338 -3.30557,-5.74088 -4.95448,-8.60229z" fill="#000000"/><path d="M236.90162,348.82348c0.80393,-0.07927 1.36646,0.2474 1.6878,0.98001c0.07263,0.54444 0.07263,1.0889 0,1.63335c-2.85367,9.73104 -5.72107,19.45848 -8.60229,29.18244c1.52478,-8.45888 3.17632,-16.89783 4.95449,-25.31685c-0.37284,0.03931 -0.73588,0.14819 -1.0889,0.32667c-0.84672,0.13459 -1.48189,-0.17401 -1.90557,-0.92557c-0.70876,1.19964 -1.3621,2.43368 -1.96001,3.70225c-0.30849,0.45375 -0.68959,0.83486 -1.14334,1.14334c-0.47889,0.15004 -0.86002,0.02308 -1.14334,-0.38112c-0.16824,-0.49511 -0.2046,-1.0032 -0.10889,-1.52446c0.98001,-2.17779 1.96001,-4.35559 2.94002,-6.53338c0.54619,-1.00854 1.3266,-1.24439 2.34113,-0.70778c0.39407,0.44362 0.77518,0.89736 1.14334,1.36112c0.69537,-0.70245 1.31245,-1.46468 1.85113,-2.28668c0.34627,-0.23543 0.69101,-0.45319 1.03445,-0.65334z" fill="#000000"/><path d="M244.19723,380.07482c1.74006,-6.8509 3.50048,-13.71096 5.28116,-20.58015c0.28028,-0.86589 0.31654,-1.73701 0.10888,-2.61336c-1.14172,-2.17453 -2.19434,-4.38858 -3.1578,-6.64227c-0.1139,-0.79478 0.19459,-1.06701 0.92557,-0.81667c1.33597,1.60122 2.55193,3.28901 3.6478,5.06337c0.77769,1.35317 1.03184,2.805 0.76223,4.35559c-2.54922,7.68412 -5.16257,15.34266 -7.84006,22.97572c-0.01818,-0.07263 -0.03626,-0.14514 -0.05444,-0.21777c0.14373,-0.50231 0.25262,-1.01039 0.32667,-1.52445z" fill="#000000"/><path d="M253.67063,350.23905c0.10846,-0.00937 0.19915,0.02701 0.27222,0.10889c0.84357,1.58718 1.42428,3.25689 1.74224,5.00892c-0.55152,-1.75595 -1.22305,-3.46182 -2.01446,-5.11782z" fill="#000000"/><path d="M242.01944,351.76351c0.34322,-0.05891 0.61544,0.04998 0.81667,0.32667c0.60488,1.01006 1.16751,2.04451 1.68779,3.10336c-0.01579,0.08407 -0.05205,0.1567 -0.10889,0.21778c-1.16664,0.17444 -2.32817,0.37403 -3.48447,0.59889c0.17292,-1.20954 0.40889,-2.40734 0.70778,-3.59336c0.06141,-0.25992 0.18839,-0.47769 0.38112,-0.65334z" fill="#feeaca"/><path d="M224.37931,353.28797c0.14471,0.59454 0.21735,1.22969 0.21778,1.90557c-0.01818,0.63515 -0.03626,1.27042 -0.05444,1.90557c-0.87689,0.45635 -1.78427,0.85555 -2.72225,1.19779c-0.05444,-0.03626 -0.10888,-0.07263 -0.16333,-0.10889c0.70114,-1.36591 1.37267,-2.74522 2.01445,-4.13781c0.18446,-0.3112 0.42043,-0.56525 0.70778,-0.76223z" fill="#feeaca"/><path d="M255.30398,358.51467c0.25404,0 0.50819,0 0.76223,0c0.03092,-0.20852 -0.00534,-0.38994 -0.10889,-0.54445c-0.01786,-0.29259 0.00034,-0.58299 0.05445,-0.87111c0.26721,0.59802 0.32166,1.21499 0.16333,1.85113c-1.38062,0.41096 -2.77799,0.62873 -4.19225,0.65333c-0.07448,-0.13981 -0.0563,-0.26689 0.05444,-0.38111c1.06473,-0.34082 2.15362,-0.57679 3.2667,-0.70778z" fill="#000000"/><path d="M255.95732,357.97022c0.10356,0.15452 0.13982,0.33592 0.10889,0.54444c-0.25404,0 -0.50819,0 -0.76223,0c0.19219,-0.10464 0.40997,-0.14102 0.65333,-0.10889c0,-0.14515 0,-0.2904 0,-0.43555z" fill="#000000"/><path d="M256.0662,359.168c0.25851,0.207 0.27669,0.46115 0.05444,0.76223c-0.05411,-0.25153 -0.07219,-0.50557 -0.05444,-0.76223z" fill="#000000"/><path d="M246.15725,359.60356c0.70255,-0.0453 1.39216,0.00914 2.06891,0.16334c0.10432,0.1249 0.06806,0.23379 -0.10889,0.32667c-0.2904,0.10888 -0.58071,0.21777 -0.87112,0.32667c-3.61057,0.68546 -7.24029,1.19365 -10.88897,1.52445c-0.14515,-0.14515 -0.14515,-0.2904 0,-0.43555c0.37545,-0.20983 0.77475,-0.3551 1.19779,-0.43556c2.8748,-0.53954 5.7423,-1.02955 8.60229,-1.47001z" fill="#000000"/><path d="M231.02158,361.67246c0.65432,-0.01808 1.30766,0.00011 1.96001,0.05444c0.14319,0.1519 0.10682,0.26079 -0.10889,0.32667c-1.65044,0.62012 -3.35641,1.01943 -5.11782,1.19779c-4.76926,0.7362 -9.56041,1.24428 -14.37344,1.52445c-0.15626,-0.24685 -0.11999,-0.46463 0.10889,-0.65334c0.24914,-0.08951 0.50329,-0.16213 0.76223,-0.21778c5.59944,-0.78248 11.18907,-1.52653 16.76901,-2.23224z" fill="#000000"/><path d="M254.21508,369.18585c0.18784,0.03735 0.24228,0.14624 0.16333,0.32667c-2.02775,4.38695 -5.14917,7.76253 -9.36451,10.12674c-0.05521,-0.1629 -0.00076,-0.28998 0.16334,-0.38112c4.14522,-2.3481 7.15776,-5.7056 9.03785,-10.07229z" fill="#000000"/><path d="M244.19723,380.07482c-7.8895,3.5938 -15.43924,2.99491 -22.64905,-1.79668c-4.44411,-3.27476 -7.32969,-7.61216 -8.65673,-13.01232c-0.14145,-0.61185 -0.17771,-1.22893 -0.10889,-1.85112c1.43168,8.07646 5.87797,13.79317 13.33899,17.15013c6.08867,2.28266 12.07761,2.04669 17.9668,-0.70778c0.08689,0.04976 0.12315,0.12239 0.10888,0.21778z" fill="#000000"/></g><g fill-rule="evenodd" stroke="none" stroke-width="1"><path d="M393.44821,336.2012c2.71886,1.00516 5.42293,2.0578 8.11229,3.1578c1.20476,-0.48619 2.42073,-0.90356 3.64781,-1.25223c-0.99373,0.47868 -1.97374,0.98686 -2.94002,1.52445c0.75036,0.29345 1.4944,0.60206 2.23224,0.92557c1.23132,-0.5317 2.48355,-1.02172 3.7567,-1.47001c0.04977,-0.04508 0.08613,-0.09953 0.10889,-0.16333c-0.5892,-0.91544 -0.44394,-1.00614 0.43556,-0.27222c0.21135,0.0809 0.41094,0.06271 0.59889,-0.05445c0.04965,0.13545 -0.00479,0.22616 -0.16334,0.27222c1.25202,0.82571 2.52244,1.6243 3.81115,2.39557c0.91326,0.70343 0.98589,1.46565 0.21778,2.28668c-0.48968,0.23096 -0.9615,0.1947 -1.41557,-0.10888c-1.11308,-1.38443 -2.20196,-2.78192 -3.26668,-4.19225c-0.94767,0.58234 -1.89131,1.16305 -2.83114,1.74223c1.38899,0.60357 2.76819,1.23873 4.13781,1.90557c1.35742,0.95899 2.35562,2.21121 2.99447,3.75669c0.58071,1.16153 1.16152,2.32294 1.74223,3.48447c0.34518,1.1049 0.00044,1.88532 -1.03445,2.34113c-1.76761,0.41465 -3.54621,0.77769 -5.33559,1.08889c-0.90292,0.15299 -1.81029,0.18925 -2.72224,0.10889c-0.24053,-0.20396 -0.44013,-0.43991 -0.5989,-0.70778c-0.07263,-0.54444 -0.07263,-1.0889 0,-1.63335c0.45451,-1.92691 0.92632,-3.85067 1.41557,-5.77116c0.15135,-0.48423 0.38722,-0.91979 0.70778,-1.30667c-1.08976,-0.79947 -2.25129,-1.48906 -3.48447,-2.0689c-3.07014,1.56225 -6.10088,3.19558 -9.09229,4.90004c-0.01317,1.7124 -0.12206,3.41827 -0.32667,5.11782c-0.02701,0.66161 -0.22659,1.26051 -0.59889,1.79668c-2.20131,1.00995 -4.41537,1.98996 -6.64228,2.94002c-1.82542,0.49763 -2.49684,-0.1739 -2.01445,-2.01445c1.29992,-2.56369 2.57034,-5.14068 3.81114,-7.73117c0.46997,-0.61414 1.06887,-1.06777 1.79668,-1.36112c3.89574,-1.45792 7.77952,-2.94612 11.6512,-4.46447c-0.45363,-0.31763 -0.92546,-0.60804 -1.41557,-0.87112c-0.22355,-0.03539 -0.44133,0.00098 -0.65334,0.10889c-6.17045,3.01265 -12.3408,6.02519 -18.51125,9.03785c1.99399,-0.54412 3.99038,-1.10664 5.98893,-1.68779c-0.00664,0.2278 -0.11553,0.39113 -0.32667,0.49c-2.35061,1.60177 -4.69173,3.21693 -7.02338,4.8456c-1.17013,8.42676 -2.38611,16.84752 -3.64781,25.26241c-0.03629,-0.21778 -0.07259,-0.43556 -0.10888,-0.65335c0.31994,-8.82268 0.70103,-17.64274 1.14334,-26.46019c-0.14744,-1.86593 0.59671,-3.22705 2.23224,-4.08337c6.65414,-2.43793 13.29641,-4.90602 19.92682,-7.40449c-2.06891,-1.1796 -4.13781,-2.35931 -6.20672,-3.53891c-0.08689,-0.04976 -0.12315,-0.12239 -0.10889,-0.21778z" fill="#000000"/><path d="M418.71062,342.08125c-5.91597,-6.96469 -13.39299,-9.59623 -22.43127,-7.8945c-6.80059,1.82891 -11.71882,5.91228 -14.75456,12.25009c-0.09115,0.16409 -0.21821,0.21855 -0.38111,0.16334c2.90136,-6.2776 7.65625,-10.41541 14.26454,-12.41343c8.31351,-1.97352 15.55468,-0.03168 21.72349,5.8256c0.47181,0.54444 0.94374,1.0889 1.41557,1.63335c0.08613,0.13557 0.14058,0.28071 0.16334,0.43555z" fill="#000000"/><path d="M411.85057,337.39899c0.44503,-0.02243 0.82615,0.12272 1.14334,0.43556c0.56895,1.1992 1.0045,2.43336 1.30667,3.70225c-1.01627,-0.87111 -2.03265,-1.74224 -3.04891,-2.61336c-0.31338,-0.71562 -0.11368,-1.2237 0.59889,-1.52446z" fill="#000000"/><path d="M418.71062,342.08125c0.58953,-0.28758 1.2066,-0.52354 1.85113,-0.70778c2.11954,-0.39549 4.22481,-0.84923 6.3156,-1.36112c0.03626,0.03626 0.07263,0.07262 0.10888,0.10888c-1.66732,0.97914 -3.37329,1.90471 -5.11781,2.7767c1.74223,0.65334 3.48448,1.30667 5.2267,1.96001c0.47933,0.64625 0.57004,1.35405 0.27222,2.12335c-1.66275,5.3957 -3.29609,10.80393 -4.90003,16.22456c-0.16366,0.36424 -0.43588,0.58202 -0.81668,0.65334c-0.46332,-0.08634 -0.69929,-0.37676 -0.70778,-0.87112c-0.22627,-2.4278 -0.33516,-4.85964 -0.32667,-7.2956c0.41432,1.60165 0.81362,3.19874 1.19778,4.79114c1.26421,-4.52469 2.48019,-9.06179 3.64781,-13.61121c-0.05194,-0.10649 -0.12446,-0.1972 -0.21778,-0.27222c-2.04082,-0.57113 -4.00082,-1.33336 -5.88003,-2.28669c-0.49545,-0.31392 -0.87656,-0.7313 -1.14334,-1.25223c-0.06784,-0.44514 0.09549,-0.77181 0.49,-0.98z" fill="#000000"/><path d="M415.44393,342.95237c0.78879,0.6248 1.53284,1.31451 2.23224,2.0689c1.52445,1.59708 3.04891,3.19406 4.57336,4.79115c0.2928,0.47584 0.4924,0.98404 0.59889,1.52446c-0.03823,0.92807 -0.51015,1.30919 -1.41557,1.14334c-0.3773,-0.26819 -0.72205,-0.57668 -1.03446,-0.92557c-1.65403,-2.87338 -3.30557,-5.74088 -4.95448,-8.60229z" fill="#000000"/><path d="M403.90162,343.82348c0.80393,-0.07927 1.36646,0.2474 1.6878,0.98001c0.07263,0.54444 0.07263,1.0889 0,1.63335c-2.85367,9.73104 -5.72107,19.45848 -8.60229,29.18244c1.52478,-8.45888 3.17632,-16.89783 4.95449,-25.31685c-0.37284,0.03931 -0.73588,0.14819 -1.0889,0.32667c-0.84672,0.13459 -1.48189,-0.17401 -1.90557,-0.92557c-0.70876,1.19964 -1.3621,2.43368 -1.96001,3.70225c-0.30849,0.45375 -0.68959,0.83486 -1.14334,1.14334c-0.47889,0.15004 -0.86002,0.02308 -1.14334,-0.38112c-0.16824,-0.49511 -0.2046,-1.0032 -0.10889,-1.52446c0.98001,-2.17779 1.96001,-4.35559 2.94002,-6.53338c0.54619,-1.00854 1.3266,-1.24439 2.34113,-0.70778c0.39407,0.44362 0.77518,0.89736 1.14334,1.36112c0.69537,-0.70245 1.31245,-1.46468 1.85113,-2.28668c0.34627,-0.23543 0.69101,-0.45319 1.03445,-0.65334z" fill="#000000"/><path d="M411.19723,375.07482c1.74006,-6.8509 3.50048,-13.71096 5.28116,-20.58015c0.28028,-0.86589 0.31654,-1.73701 0.10888,-2.61336c-1.14172,-2.17453 -2.19434,-4.38858 -3.1578,-6.64227c-0.1139,-0.79478 0.19459,-1.06701 0.92557,-0.81667c1.33597,1.60122 2.55193,3.28901 3.6478,5.06337c0.77769,1.35317 1.03184,2.805 0.76223,4.35559c-2.54922,7.68412 -5.16257,15.34266 -7.84006,22.97572c-0.01818,-0.07263 -0.03626,-0.14514 -0.05444,-0.21777c0.14373,-0.50231 0.25262,-1.01039 0.32667,-1.52445z" fill="#000000"/><path d="M420.67063,345.23905c0.10846,-0.00937 0.19915,0.02701 0.27222,0.10889c0.84357,1.58718 1.42428,3.25689 1.74224,5.00892c-0.55152,-1.75595 -1.22305,-3.46182 -2.01446,-5.11782z" fill="#000000"/><path d="M409.01944,346.76351c0.34322,-0.05891 0.61544,0.04998 0.81667,0.32667c0.60488,1.01006 1.16751,2.04451 1.68779,3.10336c-0.01579,0.08407 -0.05205,0.1567 -0.10889,0.21778c-1.16664,0.17444 -2.32817,0.37403 -3.48447,0.59889c0.17292,-1.20954 0.40889,-2.40734 0.70778,-3.59336c0.06141,-0.25992 0.18839,-0.47769 0.38112,-0.65334z" fill="#7cd7ff"/><path d="M391.37931,348.28797c0.14471,0.59454 0.21735,1.22969 0.21778,1.90557c-0.01818,0.63515 -0.03626,1.27042 -0.05444,1.90557c-0.87689,0.45635 -1.78427,0.85555 -2.72225,1.19779c-0.05444,-0.03626 -0.10888,-0.07263 -0.16333,-0.10889c0.70114,-1.36591 1.37267,-2.74522 2.01445,-4.13781c0.18446,-0.3112 0.42043,-0.56525 0.70778,-0.76223z" fill="#7cd7ff"/><path d="M422.30398,353.51467c0.25404,0 0.50819,0 0.76223,0c0.03092,-0.20852 -0.00534,-0.38994 -0.10889,-0.54445c-0.01786,-0.29259 0.00034,-0.58299 0.05445,-0.87111c0.26721,0.59802 0.32166,1.21499 0.16333,1.85113c-1.38062,0.41096 -2.77799,0.62873 -4.19225,0.65333c-0.07448,-0.13981 -0.0563,-0.26689 0.05444,-0.38111c1.06473,-0.34082 2.15362,-0.57679 3.2667,-0.70778z" fill="#000000"/><path d="M422.95732,352.97022c0.10356,0.15452 0.13982,0.33592 0.10889,0.54444c-0.25404,0 -0.50819,0 -0.76223,0c0.19219,-0.10464 0.40997,-0.14102 0.65333,-0.10889c0,-0.14515 0,-0.2904 0,-0.43555z" fill="#000000"/><path d="M423.0662,354.168c0.25851,0.207 0.27669,0.46115 0.05444,0.76223c-0.05411,-0.25153 -0.07219,-0.50557 -0.05444,-0.76223z" fill="#000000"/><path d="M413.15725,354.60356c0.70255,-0.0453 1.39216,0.00914 2.06891,0.16334c0.10432,0.1249 0.06806,0.23379 -0.10889,0.32667c-0.2904,0.10888 -0.58071,0.21777 -0.87112,0.32667c-3.61057,0.68546 -7.24029,1.19365 -10.88897,1.52445c-0.14515,-0.14515 -0.14515,-0.2904 0,-0.43555c0.37545,-0.20983 0.77475,-0.3551 1.19779,-0.43556c2.8748,-0.53954 5.7423,-1.02955 8.60229,-1.47001z" fill="#000000"/><path d="M398.02158,356.67246c0.65432,-0.01808 1.30766,0.00011 1.96001,0.05444c0.14319,0.1519 0.10682,0.26079 -0.10889,0.32667c-1.65044,0.62012 -3.35641,1.01943 -5.11782,1.19779c-4.76926,0.7362 -9.56041,1.24428 -14.37344,1.52445c-0.15626,-0.24685 -0.11999,-0.46463 0.10889,-0.65334c0.24914,-0.08951 0.50329,-0.16213 0.76223,-0.21778c5.59944,-0.78248 11.18907,-1.52653 16.76901,-2.23224z" fill="#000000"/><path d="M421.21508,364.18585c0.18784,0.03735 0.24228,0.14624 0.16333,0.32667c-2.02775,4.38695 -5.14917,7.76253 -9.36451,10.12674c-0.05521,-0.1629 -0.00076,-0.28998 0.16334,-0.38112c4.14522,-2.3481 7.15776,-5.7056 9.03785,-10.07229z" fill="#000000"/><path d="M411.19723,375.07482c-7.8895,3.5938 -15.43924,2.99491 -22.64905,-1.79668c-4.44411,-3.27476 -7.32969,-7.61216 -8.65673,-13.01232c-0.14145,-0.61185 -0.17771,-1.22893 -0.10889,-1.85112c1.43168,8.07646 5.87797,13.79317 13.33899,17.15013c6.08867,2.28266 12.07761,2.04669 17.9668,-0.70778c0.08689,0.04976 0.12315,0.12239 0.10888,0.21778z" fill="#000000"/></g></g></g></svg>