<svg version="1.1" xmlns="http://www.w3.org/2000/svg" xmlns:xlink="http://www.w3.org/1999/xlink" width="179" height="188" viewBox="0,0,179,188"><g transform="translate(-150.5,-86)"><g data-paper-data="{&quot;isPaintingLayer&quot;:true}" fill-rule="nonzero" stroke-linecap="butt" stroke-linejoin="miter" stroke-miterlimit="10" stroke-dasharray="" stroke-dashoffset="0" style="mix-blend-mode: normal"><path d="M150.5,274v-188h179v188z" fill="none" stroke="none" stroke-width="NaN"/><path d="M276.49288,205.57618c-2.56409,2.17504 -6.33719,2.66786 -10.28275,0.27146c-5.36566,-3.25891 -11.81442,-11.22696 -19.07937,-19.05499c-5.95438,-6.41588 -12.75621,-12.73771 -17.43209,-16.29566c-3.56968,-2.71622 -8.84246,-0.87489 -9.61552,-0.24365c-0.09145,0.07467 -1.61821,1.16814 -2.22098,2.62703c-0.47197,1.14234 -0.12272,2.50873 0.23155,3.78551c0.82866,2.98654 5.10249,5.54988 5.29875,8.74049c0.25287,4.11085 -2.11002,6.72276 -2.66952,7.21436c-4.25441,3.73805 -10.88174,0.4713 -14.89303,-4.42068c-2.09836,-2.55907 -3.26019,-6.22491 -3.46588,-8.14363c-2.12651,-19.83652 8.73652,-27.49451 24.76026,-27.49451c8.01534,0 22.53672,10.88479 34.1595,22.80381c5.7714,5.91851 11.05699,11.86312 14.02328,17.30979c3.00221,5.51264 3.40073,10.20396 1.18583,12.90069z" fill="#ffffff" stroke="#674c3f" stroke-width="4"/><path d="M267.03147,184.11441c0,0.3574 0.22643,4.74156 -0.23222,8.95476c-0.19681,1.80799 -0.47989,3.63247 -0.79653,5.18284c-0.51958,2.54414 -1.12954,4.35019 -1.59702,4.1342c-0.08945,-0.04132 -0.45255,-0.1049 -0.79312,-0.41418c-2.49555,-2.2662 -10.64303,-10.86402 -10.64303,-11.00027c0,-0.71204 0.96508,-3.71465 1.6632,-7.25972c0.94305,-4.78883 1.59092,-10.35275 1.87398,-10.57807c0.16773,-0.13351 0.60802,0.24658 1.21874,0.74793c1.17175,0.96192 2.97088,2.71936 4.67602,4.60093c0.1829,0.20182 0.36471,0.40488 0.54456,0.60818c2.18871,2.47425 4.08541,4.81933 4.08541,5.0234z" fill="#ff7cb8" stroke="none" stroke-width="0"/><path d="M241.12109,160.28727c0,0.17375 0.07935,4.26887 -0.56185,7.87143c-0.6777,3.80767 -2.08411,7.51669 -2.32432,7.40571c-0.04159,-0.01921 -2.23527,-2.17374 -4.57082,-4.06949c-2.68771,-2.18159 -5.5633,-3.49618 -5.5633,-3.56908c0,-0.34959 0.08584,-3.50294 -0.45604,-6.64932c-0.56181,-3.26209 -2.1402,-6.90729 -1.99611,-7.02198c0.11046,-0.08792 1.28737,-0.11579 2.43477,0.00918c1.40975,0.15354 3.36461,0.7982 5.28079,1.58522c3.01646,1.23894 5.97933,3.02554 7.18828,3.95515c0.36365,0.27961 0.56861,0.45815 0.56861,0.48317z" fill="#ff7cb8" stroke="none" stroke-width="0"/><path d="M216.12757,173.16924c0.00034,0.02053 0.09919,1.65186 0.33786,3.1616c0.29392,1.85921 1.39482,3.53831 1.35858,3.55579c-0.14987,0.07229 -2.23563,-0.31322 -4.94414,1.02823c-2.98181,1.4768 -6.73819,4.81803 -6.82512,4.77613c-0.00477,-0.0023 -0.73492,-1.26944 -1.32639,-3.08804c-0.40653,-1.24997 -0.67885,-2.76045 -0.88135,-4.29979c-0.50096,-3.80818 0.20408,-7.79298 0.34082,-8.44704c0.04242,-0.20289 2.72139,-0.64163 5.50326,0.10469c3.37471,0.90536 6.43408,3.0634 6.43648,3.20843z" fill="#ff7cb8" stroke="none" stroke-width="0"/></g></g></svg>